<?xml version="1.0" encoding="UTF-8" standalone="no"?>
<!-- Created with Inkscape (http://www.inkscape.org/) -->

<svg
   width="100"
   height="100"
   viewBox="0 0 357.74719 357.74719"
   version="1.1"
   id="svg1"
   xml:space="preserve"
   inkscape:version="1.3.2 (091e20e, 2023-11-25, custom)"
   sodipodi:docname="AdminSys.svg"
   xmlns:inkscape="http://www.inkscape.org/namespaces/inkscape"
   xmlns:sodipodi="http://sodipodi.sourceforge.net/DTD/sodipodi-0.dtd"
   xmlns="http://www.w3.org/2000/svg"
   xmlns:svg="http://www.w3.org/2000/svg"><sodipodi:namedview
     id="namedview1"
     pagecolor="#ffffff"
     bordercolor="#000000"
     borderopacity="0.25"
     inkscape:showpageshadow="2"
     inkscape:pageopacity="0.0"
     inkscape:pagecheckerboard="0"
     inkscape:deskcolor="#d1d1d1"
     inkscape:document-units="mm"
     inkscape:zoom="8.3597643"
     inkscape:cx="85.468917"
     inkscape:cy="59.690678"
     inkscape:window-width="2558"
     inkscape:window-height="1360"
     inkscape:window-x="1273"
     inkscape:window-y="0"
     inkscape:window-maximized="0"
     inkscape:current-layer="layer1" /><defs
     id="defs1" /><g
     inkscape:label="Layer 1"
     inkscape:groupmode="layer"
     id="layer1"
     transform="translate(30.516531,-12.906742)"><path
       style="fill:#000000;stroke-width:1.86614"
       d="m 265.74101,304.37926 c -1.40873,-0.50183 -3.30917,-1.46694 -4.2232,-2.14468 -1.882,-1.39543 -12.31989,-14.40624 -12.35706,-15.40301 -0.0132,-0.35736 1.94077,-1.81924 4.34241,-3.24862 5.98235,-3.56052 7.51511,-5.94679 7.19175,-11.19649 -0.20981,-3.40648 -0.55129,-4.3646 -2.15052,-6.03382 -1.04559,-1.09137 -2.5655,-2.15108 -3.37752,-2.35488 -1.3099,-0.32876 -1.43152,-0.65149 -1.07822,-2.86095 0.60191,-3.76412 -1.72293,-8.12595 -5.24247,-9.83588 -2.36211,-1.14761 -2.72042,-1.59646 -2.68484,-3.3632 0.0226,-1.12136 -0.16982,-2.79573 -0.42766,-3.72084 -0.42151,-1.51249 -0.23497,-1.75376 1.8509,-2.39391 l 2.31963,-0.71191 7.96023,8.24143 c 11.2697,11.66779 26.9403,29.85883 28.36826,32.93101 1.82579,3.92803 1.64116,9.65333 -0.44642,13.84252 -3.68055,7.38591 -12.401,10.97638 -20.04527,8.25323 z m 9.5537,-10.53538 c 6.30417,-5.61162 0.02,-15.2581 -7.66025,-11.75876 -4.90497,2.23486 -4.51316,10.73459 0.59518,12.91121 1.91967,0.81795 5.50929,0.23241 7.06507,-1.15245 z m -39.27157,-9.6346 c -2.80908,-1.52529 -3.60474,-6.42936 -1.43257,-8.82959 1.5315,-1.69229 14.22743,-7.715 16.2633,-7.715 2.00104,0 5.42856,3.27062 5.42856,5.18008 0,3.35643 -1.79948,5.07894 -9.15015,8.75867 -3.95943,1.9821 -7.68676,3.59211 -8.28297,3.5778 -0.59623,-0.015 -1.86799,-0.45168 -2.82617,-0.97196 z m 65.35821,-6.77029 c -1.3026,-0.53611 -1.37344,-1.16013 -1.78526,-15.72431 -0.23584,-8.34134 -0.42948,-19.88478 -0.4303,-25.65211 -0.001,-13.99727 -0.55974,-13.3362 11.04381,-13.0901 l 8.7713,0.18606 v 27.28845 27.28845 l -8.12157,0.13096 c -4.46687,0.072 -8.73195,-0.12037 -9.47798,-0.42736 z m -125.9426,-2.19632 c -1.09461,-1.09461 -1.73851,-2.86206 -2.30789,-6.33483 -0.43435,-2.64916 -1.12667,-6.52785 -1.53849,-8.6193 l -0.74876,-3.80268 -4.54809,-1.45091 c -2.50145,-0.79802 -6.7021,-2.5432 -9.33479,-3.87817 l -4.7867,-2.42721 -5.41911,3.78247 c -8.10568,5.65767 -9.47088,6.33409 -11.68518,5.78975 -1.24832,-0.30688 -5.11823,-3.67121 -11.16878,-9.70964 -7.33096,-7.31629 -9.25857,-9.60425 -9.25857,-10.9893 0,-1.10973 1.87324,-4.5238 5.1238,-9.33847 l 5.12383,-7.58921 -2.54816,-5.25558 c -1.40149,-2.89055 -3.01157,-6.86363 -3.57795,-8.82905 -0.56637,-1.96542 -1.29628,-3.90718 -1.622,-4.31503 -0.32573,-0.40784 -4.16444,-1.42573 -8.53043,-2.26195 -11.479137,-2.19863 -10.861942,-1.17524 -10.861942,-18.01106 0,-11.99347 0.134361,-13.76551 1.137012,-14.98638 0.883506,-1.07587 3.01425,-1.74989 9.55649,-3.02293 4.63071,-0.90109 8.49082,-1.70969 8.57803,-1.7969 0.0871,-0.0871 1.082,-2.77944 2.21065,-5.98276 1.12865,-3.20331 2.75059,-7.0194 3.60432,-8.48019 0.85371,-1.46079 1.55221,-2.93609 1.55221,-3.27841 0,-0.34234 -2.21766,-3.95678 -4.92813,-8.0321 -4.22692,-6.3553 -4.87215,-7.69161 -4.53452,-9.39121 0.28097,-1.41446 2.93665,-4.53095 9.27931,-10.88947 4.88712,-4.89934 9.67521,-9.23493 10.64019,-9.63463 2.18932,-0.90685 3.74762,-0.15786 11.81576,5.67966 l 5.83101,4.21886 4.95265,-2.2992 c 2.72396,-1.26455 6.86807,-2.90784 9.20916,-3.65175 l 4.25654,-1.35256 1.14843,-6.96992 c 2.2691,-13.771333 1.57498,-13.294536 18.95152,-13.018083 11.91955,0.189644 12.68845,0.277686 14.01415,1.604844 1.32527,1.326696 1.80404,3.191243 4.09047,15.929889 0.40893,2.27837 0.63365,2.45766 4.79389,3.82454 2.40066,0.78876 6.49012,2.4335 9.08769,3.655 l 4.72284,2.22087 2.09927,-1.46878 c 1.1546,-0.8078 4.14591,-2.99442 6.64734,-4.85913 5.34738,-3.9862 7.26697,-4.62259 9.83832,-3.26163 1.02121,0.54051 5.7892,4.93936 10.59554,9.77525 10.87922,10.94609 10.77296,10.41877 4.06077,20.15392 -2.57291,3.73166 -4.67802,7.05699 -4.67802,7.3896 0,0.33262 0.99155,2.76565 2.20345,5.40677 1.21186,2.6411 2.737,6.51444 3.38918,8.60745 1.37653,4.41766 1.24157,4.34193 10.65049,5.97563 5.67854,0.98596 7.12162,1.48234 8.60886,2.96114 l 1.78675,1.77663 v 12.67732 c 0,6.97254 -0.27838,13.40952 -0.61862,14.30443 -0.87895,2.31182 -2.30778,2.88576 -11.19923,4.49863 l -7.88901,1.43105 -1.70725,5.11709 -1.70727,5.11708 -4.51999,0.11573 c -3.7059,0.0948 -5.44346,0.54814 -9.6469,2.51699 -2.81977,1.32077 -5.20294,2.40138 -5.29594,2.40138 -0.093,0 -1.64208,-1.70028 -3.44242,-3.77844 l -3.27331,-3.77845 1.96205,-4.11937 c 3.39608,-7.13023 4.62075,-12.99005 4.62075,-22.10944 0,-9.91227 -1.34881,-15.5714 -5.73584,-24.0655 -7.47943,-14.48155 -22.02899,-24.55639 -38.51669,-26.67086 -9.82153,-1.25957 -21.71295,1.21066 -30.63057,6.36294 -6.41091,3.70401 -15.91576,13.56434 -19.2874,20.00875 -4.47233,8.54817 -5.72902,14.00274 -5.68827,24.68954 0.032,8.43368 0.18476,9.54569 2.09381,15.26855 4.68629,14.04761 14.18872,24.68014 27.53373,30.80829 7.56306,3.47302 13.52755,4.51121 23.68943,4.12343 4.75364,-0.18138 8.79377,-0.17895 8.97809,0.005 0.18438,0.18437 -0.52308,1.31251 -1.57195,2.50713 -2.55707,2.91234 -3.52144,6.60634 -2.60915,9.9943 0.88183,3.27483 3.97084,6.84793 6.69843,7.7481 1.79917,0.59378 2.19408,1.13681 2.8573,3.92878 1.2305,5.1801 -1.17373,16.84428 -3.75691,18.22676 -0.6422,0.34371 -7.04767,0.62489 -14.23437,0.62489 -12.82796,0 -13.09448,-0.0278 -14.58491,-1.51816 z m 51.28119,-1.71097 c -2.22487,-0.88322 -3.83337,-3.20872 -3.83337,-5.54216 0,-1.27687 0.53474,-2.80258 1.26696,-3.61485 1.86066,-2.064 17.45292,-9.7045 19.80439,-9.7045 4.52047,0 6.85491,5.86882 3.71565,9.34127 -1.56192,1.7277 -15.31936,9.12514 -18.02986,9.69473 -0.89338,0.18774 -2.20907,0.10911 -2.92377,-0.17448 z m 51.97764,-8.93723 c -3.57328,-4.19007 -6.59436,-7.84475 -6.71347,-8.12156 -0.11904,-0.2768 0.46564,-0.50726 1.29946,-0.51215 3.2846,-0.0192 4.43978,-0.71284 4.43978,-2.66581 0,-1.84676 -0.053,-1.87348 -3.73592,-1.87973 -6.65229,-0.0106 -13.91038,-4.75332 -19.33842,-12.6346 -1.3645,-1.9812 -2.65162,-3.61044 -2.86021,-3.62051 -0.20862,-0.009 -5.36515,1.64132 -11.45897,3.66982 -12.16172,4.04835 -14.23434,4.19868 -17.40284,1.26222 -2.894,-2.68205 -3.08257,-7.0167 -0.40501,-9.30929 0.70898,-0.60707 7.64492,-3.85718 15.41316,-7.22247 18.64813,-8.07857 17.61324,-8.05273 32.3426,-0.80764 12.82196,6.30686 16.98267,7.87761 20.8667,7.87761 h 2.82203 v 19.81661 19.81661 l -2.43647,0.004 c -1.34005,10e-4 -3.27392,0.44076 -4.29748,0.97458 -1.02356,0.53382 -1.90083,0.97059 -1.94952,0.97059 -0.0487,0 -3.01211,-3.42822 -6.58542,-7.61829 z m -61.72351,-2.72783 c -3.23258,-1.35786 -4.94101,-5.56914 -3.42785,-8.44962 0.45591,-0.86792 2.87559,-2.68816 5.37703,-4.04499 3.9324,-2.13299 5.09073,-2.45956 8.55682,-2.41246 2.5418,0.0346 5.60094,-0.47537 8.35976,-1.39344 3.61166,-1.20188 4.45254,-1.29663 4.94852,-0.55758 0.83896,1.25011 0.16908,5.03945 -1.14807,6.49495 -1.30431,1.44126 -17.42329,10.05845 -19.75609,10.5616 -0.88588,0.19106 -2.19543,0.10169 -2.91012,-0.19846 z M -20.306439,249.49868 c -3.953242,-2.41043 -4.092431,-3.21149 -4.091316,-23.54658 0.0011,-20.68389 0.232106,-21.90705 4.547066,-24.08048 2.123178,-1.0694 5.98088,-1.14024 58.150385,-1.06769 l 55.876347,0.0779 2.344932,1.57991 c 1.443365,0.97248 4.906015,2.1193 9.006125,2.98281 5.35016,1.12675 6.76802,1.66534 7.20391,2.73638 0.2985,0.73346 1.56555,3.76006 2.81565,6.7258 l 2.27297,5.39227 -4.22583,6.44957 c -6.41579,9.79198 -6.43989,13.08074 -0.1452,19.80985 l 3.9416,4.21358 -67.808331,-0.001 c -66.107184,-10e-4 -67.860502,-0.0342 -69.888383,-1.27071 z m 18.7759109,-14.15782 c 0.4010819,-6.039 0.4256089,-6.00996 -5.0765764,-6.00996 h -4.7971595 v 4.87294 4.87294 h 4.8128056 4.8128064 z M 11.985835,234.20384 V 229.3309 H 8.7372104 5.4885849 v 4.87294 4.87294 h 3.2486255 3.2486246 z m 12.994502,0 v -4.87294 h -3.248626 -3.248624 v 4.87294 4.87294 h 3.248624 3.248626 z m 73.125289,1.97489 c 2.338804,-0.46789 5.062724,-2.83471 6.531744,-5.67544 1.4569,-2.81733 0.96094,-8.10774 -1.02095,-10.89107 -1.70624,-2.39618 -5.864101,-4.54673 -8.790635,-4.54673 -2.92656,0 -7.084438,2.15055 -8.790658,4.54673 -3.249836,4.56396 -2.021749,12.35422 2.404796,15.2546 2.002642,1.31218 5.205352,2.22416 6.710713,1.91089 0.536025,-0.11162 1.865766,-0.3811 2.95499,-0.59898 z m -6.259923,-5.73146 c -4.280453,-3.28645 -2.32454,-9.56279 2.980082,-9.56279 2.636812,0 4.674544,1.51607 5.189595,3.86106 0.74007,3.36953 -1.756459,6.49321 -5.189595,6.49321 -1.072063,0 -2.413099,-0.35617 -2.980082,-0.79148 z m -92.9893903,-13.67586 -0.189838,-4.65822 -5.0353704,-0.18975 -5.0353683,-0.18977 v 4.79199 c 0,2.63558 0.12051,4.9138 0.267829,5.06269 0.147313,0.14891 2.4986513,0.17411 5.2252109,0.056 l 4.95737733,-0.21472 z M 11.985835,216.66124 V 211.7883 H 8.7372104 5.4885849 v 4.87294 4.87294 h 3.2486255 3.2486246 z m 12.994502,0 v -4.87298 h -3.248626 -3.248624 v 4.87294 4.87294 h 3.248624 3.248626 z M 205.13183,247.8308 c -2.00505,-2.00506 -2.24435,-2.58043 -1.91565,-4.60605 0.49429,-3.04593 1.28539,-3.90317 5.59746,-6.06546 5.81532,-2.9161 6.53611,-3.02482 6.53611,-0.98585 0,2.3792 1.78045,5.92489 3.7551,7.47816 0.9026,0.70999 1.52336,1.39897 1.37948,1.53106 -1.06759,0.9801 -10.3114,4.93941 -11.53209,4.93941 -0.88346,0 -2.4966,-0.96748 -3.82041,-2.29127 z m 2.33805,-17.13493 c -0.49027,-0.67864 -4.05697,-5.06925 -7.926,-9.75689 l -7.03458,-8.523 -4.98532,0.40205 c -22.32376,1.80046 -39.73165,-19.94044 -32.55871,-40.66296 0.43292,-1.2507 0.98729,-2.49945 1.2319,-2.77496 0.35964,-0.40508 6.70948,7.02439 16.76299,19.61309 l 1.25349,1.56959 7.39399,-1.2686 7.39402,-1.26862 2.70067,-7.12309 c 1.48536,-3.91771 2.49028,-7.41547 2.23317,-7.77282 -0.25712,-0.35734 -4.02301,-5.09629 -8.36865,-10.53097 -4.34563,-5.4347 -7.90115,-10.17256 -7.90115,-10.5286 0,-1.99373 11.91452,-1.57824 17.79095,0.62042 14.31446,5.35572 22.32374,21.65916 18.27558,37.20116 l -0.96781,3.71564 11.03856,12.74182 c 6.07118,7.008 11.03853,12.92756 11.03853,13.1546 0,0.22701 -1.81767,1.11757 -4.03928,1.97902 -2.2216,0.86145 -8.08322,3.56444 -13.02582,6.00664 -4.9426,2.44222 -9.08299,4.44038 -9.20084,4.44038 -0.11798,0 -0.61542,-0.55525 -1.10569,-1.2339 z M -19.140107,191.44969 c -1.217251,-0.42758 -2.82532,-1.60232 -3.573488,-2.61049 -1.29704,-1.74784 -1.369151,-2.72262 -1.550484,-20.95941 -0.167169,-16.81257 -0.05834,-19.40418 0.899768,-21.42321 2.110565,-4.44768 -2.357968,-4.18883 72.308421,-4.18883 78.31335,0 69.96669,-1.01672 66.07308,8.04854 -1.27819,2.97592 -2.32398,5.72507 -2.32398,6.10918 0,0.86588 -0.78071,1.09594 -8.28959,2.44286 -6.698997,1.20165 -9.454995,2.67463 -11.491905,6.14201 -1.206795,2.05432 -1.345432,3.4537 -1.448026,14.6166 l -0.113479,12.34478 -54.138572,0.12764 c -40.637219,0.0959 -54.690511,-0.0662 -56.351758,-0.64974 z M -1.6583883,175.37527 V 170.149 l -4.7105074,0.19091 -4.7105063,0.19089 -0.18976,5.03536 -0.189762,5.03537 h 4.9002685 4.9002672 z m 13.6442233,0.42157 v -4.8047 l -2.7613307,-0.29192 c -1.5187325,-0.16048 -2.9806143,-0.17392 -3.2486255,-0.0298 -0.6026821,0.32407 -0.6515733,8.90063 -0.054131,9.49805 0.2382326,0.23824 1.7001144,0.43316 3.2486268,0.43316 h 2.8154734 z m 12.994502,-0.0683 v -4.87294 h -3.248626 -3.248624 v 4.87294 4.87294 h 3.248624 3.248626 z m -26.1229677,-17.705 0.19089461,-4.71051 H -6.1779998 -11.404264 v 4.43979 c 0,2.44188 0.206509,4.6463 0.458909,4.89869 0.252399,0.25241 2.5183147,0.37423 5.0353677,0.27072 l 4.576462,-0.18816 z m 13.1284657,0.16235 v -4.87294 H 8.7372104 5.4885849 v 4.87294 4.87294 h 3.2486255 3.2486246 z m 12.994502,0 v -4.87294 h -3.248626 -3.248624 v 4.87294 4.87294 h 3.248624 3.248626 z m 16.243126,0 v -4.87294 h -4.87294 -4.872939 v 4.87294 4.87294 h 4.872939 4.87294 z m -61.074152,-26.15241 c -4.413377,-2.20473 -4.597733,-3.25243 -4.399385,-25.00182 l 0.176164,-19.317738 2.12402,-2.123191 2.124019,-2.123192 81.690498,-0.156937 c 64.530813,-0.123939 82.027613,0.01496 83.295323,0.659196 0.88264,0.448857 2.27142,1.805319 3.08618,3.014351 1.3583,2.015579 1.4814,2.918987 1.4814,10.873424 0,4.771367 -0.14966,8.675217 -0.33266,8.675217 -0.18289,0 -2.34738,-1.33972 -4.80983,-2.97713 -5.54577,-3.687699 -8.55724,-4.23825 -12.5665,-2.29738 -3.33045,1.61225 -21.51355,19.70313 -22.55394,22.43955 -0.84354,2.21867 -0.85937,5.64173 -0.036,7.80707 l 0.63363,1.6666 -63.819398,-0.001 c -59.457354,-9.3e-4 -63.974827,-0.0785 -66.093435,-1.13702 z m 18.1923007,-15.42996 v -4.87294 h -4.8729383 -4.8729374 v 4.43979 c 0,2.44189 0.194918,4.63471 0.43315,4.87294 0.238232,0.23824 2.4310544,0.43315 4.8729373,0.43315 h 4.4397884 z m 13.6442233,0 v -4.87294 H 8.7372104 5.4885849 v 4.87294 4.87294 h 3.2486255 3.2486246 z m 12.994502,0 v -4.87294 h -3.248626 -3.248624 v 4.87294 4.87294 h 3.248624 3.248626 z m 75.928163,0.78617 c 6.68496,-4.42388 6.10681,-14.95288 -1.007685,-18.351183 -7.92381,-3.784894 -16.373728,1.812253 -15.663605,10.375443 0.702337,8.46921 9.538042,12.69631 16.67129,7.97574 z m -8.857728,-4.14478 c -1.355866,-0.54553 -2.884121,-4.13084 -2.467798,-5.78954 1.02536,-4.0854 6.206202,-5.54092 9.170672,-2.57643 4.262164,4.26216 -0.897329,10.7018 -6.702874,8.36597 z M -1.1426307,98.898489 -0.95173609,94.187981 H -6.1779998 -11.404264 v 4.900257 4.900282 l 5.0353683,-0.18976 5.0353704,-0.18978 z m 13.1284657,0.162353 v -4.87294 H 8.7372104 5.4885849 v 4.87294 4.872938 h 3.2486255 3.2486246 z m 12.994502,0 v -4.872728 h -3.248626 -3.248624 v 4.872939 4.872937 h 3.248624 3.248626 z m 16.243126,0 v -4.87294 h -4.87294 -4.872939 v 4.87294 4.872938 h 4.872939 4.87294 z"
       id="path1" /></g></svg>
