<?xml version="1.0" encoding="UTF-8" standalone="no"?>
<!-- Created with Inkscape (http://www.inkscape.org/) -->

<svg
   width="100"
   height="100"
   viewBox="0 0 263.48587 263.48587"
   version="1.1"
   id="svg1"
   xml:space="preserve"
   inkscape:version="1.3.2 (091e20e, 2023-11-25, custom)"
   sodipodi:docname="AR_VR.svg"
   xmlns:inkscape="http://www.inkscape.org/namespaces/inkscape"
   xmlns:sodipodi="http://sodipodi.sourceforge.net/DTD/sodipodi-0.dtd"
   xmlns="http://www.w3.org/2000/svg"
   xmlns:svg="http://www.w3.org/2000/svg"><sodipodi:namedview
     id="namedview1"
     pagecolor="#ffffff"
     bordercolor="#000000"
     borderopacity="0.25"
     inkscape:showpageshadow="2"
     inkscape:pageopacity="0.0"
     inkscape:pagecheckerboard="0"
     inkscape:deskcolor="#d1d1d1"
     inkscape:document-units="mm"
     inkscape:zoom="8.3597643"
     inkscape:cx="78.411302"
     inkscape:cy="53.470407"
     inkscape:window-width="2558"
     inkscape:window-height="1360"
     inkscape:window-x="1273"
     inkscape:window-y="0"
     inkscape:window-maximized="0"
     inkscape:current-layer="layer1" /><defs
     id="defs1" /><g
     inkscape:label="Layer 1"
     inkscape:groupmode="layer"
     id="layer1"
     transform="translate(123.8196,22.287632)"><path
       style="fill:#000000;stroke-width:1.81799"
       d="m -93.405091,166.70716 c -1.208886,-0.30269 -3.506853,-1.93334 -3.506853,-2.48849 0,-0.25003 6.580844,-0.48097 15.748436,-0.55264 l 15.748438,-0.12306 3.880445,-5.45547 c 4.616417,-6.49016 5.880455,-7.51747 9.578856,-7.78499 3.78117,-0.27351 5.792603,1.03298 11.388701,7.39732 2.495917,2.83857 4.923098,5.36709 5.393736,5.61898 0.523969,0.2804 9.449555,0.45795 23.023321,0.45795 20.9660057,0 22.315277,-0.0507 24.891662,-0.93722 6.823212,-2.3475 11.491679,-7.23005 13.633997,-14.25915 0.76239,-2.50145 0.85505,-4.68027 0.85505,-20.10596 0,-16.55884 -0.04441,-17.44162 -1.035908,-20.59297 C 24.254328,101.71398 20.261769,96.874746 14.839813,94.118508 9.5804164,91.444916 12.165792,91.580901 -38.464373,91.314877 l -46.991849,-0.246894 1.742361,-1.029759 c 4.376442,-2.586534 1.93581,-2.477095 55.244015,-2.477095 47.526772,0 49.364347,0.03212 52.855109,0.92495 8.372988,2.141441 14.541535,7.762944 17.398169,15.855251 1.126018,3.18978 1.496743,6.89229 0.636906,6.36088 -0.260871,-0.16126 -1.638517,-0.0515 -3.06144,0.24395 -1.882725,0.39085 -3.01614,0.9661 -4.16279,2.11274 -2.28223,2.28224 -2.741442,4.94703 -2.501191,14.51437 0.175036,6.97062 0.319432,8.14631 1.210274,9.85498 1.256758,2.41047 3.731266,3.98596 6.709991,4.27219 2.252153,0.21638 2.279465,0.23865 2.279465,1.85724 0,1.63287 0.0058,1.63727 1.753427,1.3484 0.964384,-0.15944 2.752879,-0.29215 3.974435,-0.29497 l 2.221008,-0.005 v -2.80549 -2.80549 H 45.44312 c -5.773522,0 -7.447757,-0.46238 -8.832426,-2.43927 -0.60282,-0.86064 -0.729755,-2.68486 -0.729755,-10.48727 v -9.4454 l 1.438709,-1.4387 1.438709,-1.4387 h 6.029732 6.029732 l 0.12975,-22.831382 0.129751,-22.831378 1.34846,-1.767502 c 2.737323,-3.587958 2.112713,-3.514214 29.862542,-3.525766 l 24.664866,-0.01019 v -4.231259 c 0,-4.841136 -0.62634,-6.53077 -2.94507,-7.944581 -1.44865,-0.883296 -2.60217,-0.912792 -35.762231,-0.914484 -37.312088,-0.0018 -36.531635,-0.05543 -38.290219,2.626002 -0.769233,1.172901 -0.877998,2.800484 -1.088427,16.287481 l -0.23379,14.984076 H 27.464502 26.295551 L 26.156383,69.091648 c -0.144766,-15.078567 0.02246,-16.835724 1.819695,-19.12054 1.895377,-2.409581 4.055239,-3.089538 9.813818,-3.089538 4.826098,0 5.170926,-0.05903 4.577539,-0.783499 -1.424564,-1.739278 -8.347967,-6.479364 -11.826967,-8.097294 -4.333856,-2.015489 -4.314007,-2.030899 3.703949,-2.876021 4.38636,-0.462337 5.69395,-0.43133 8.88403,0.210675 4.866934,0.979474 11.903144,4.507584 16.952691,8.500451 l 3.851702,3.045688 h 20.013841 20.013839 l 1.92084,1.245492 c 3.14502,2.039277 3.87732,3.869272 3.87732,9.68942 v 4.962827 h 10.72391 c 11.37897,0 12.48429,0.16942 14.68407,2.250754 3.06245,2.897521 2.86755,0.08297 3.01032,43.474717 0.0873,26.54321 -0.0312,40.01058 -0.36299,41.24275 -0.58569,2.17509 -2.35783,4.40483 -4.38129,5.51264 -1.34828,0.73813 -4.43789,0.80145 -39.104177,0.80145 h -37.64025 l -1.729857,-1.07561 c -2.029412,-1.26188 -3.439387,-3.36974 -3.893887,-5.82119 l -0.325088,-1.75344 h -4.093535 -4.093538 l -1.010345,2.77099 c -2.140802,5.87135 -6.511257,10.75726 -11.901944,13.30568 -6.509571,3.07737 -13.70751,3.66041 -42.860577,3.47173 -21.290314,-0.13781 -22.275797,-0.18275 -23.66211,-1.07896 -0.795606,-0.51432 -3.458245,-3.26993 -5.916977,-6.12356 -7.879903,-9.14549 -10.254713,-9.07881 -16.448991,0.46173 -1.900919,2.92784 -3.940457,5.66251 -4.532304,6.07707 -0.935304,0.6551 -2.882343,0.74662 -14.882567,0.69947 -7.593565,-0.0298 -14.227306,-0.15961 -14.741644,-0.28837 z m 226.823331,-15.27457 1.58977,-1.58979 -0.001,-39.90799 c -0.001,-38.691403 -0.0294,-39.953418 -0.91014,-41.397797 -1.73239,-2.84117 0.0996,-2.706888 -38.870389,-2.849123 -38.816265,-0.141677 -38.473068,-0.161984 -40.363129,2.387543 -0.971378,1.310299 -0.97987,1.588291 -0.985589,32.263057 -0.0031,17.01775 0.102021,35.22004 0.23379,40.44953 l 0.239558,9.50816 1.527016,1.36309 1.527013,1.36309 h 37.212039 37.212031 z m -22.00895,-6.90705 c -3.95712,-0.75497 -4.11573,-1.25335 -2.10723,-6.62154 0.84576,-2.26049 1.17663,-2.67978 2.01987,-2.55961 0.8397,0.11958 0.99951,0.43708 0.9551,1.89714 -0.0293,0.96437 0.0477,1.75341 0.17115,1.75341 0.12345,0 1.23316,-0.74045 2.466,-1.64543 9.27361,-6.80745 14.19748,-18.85963 12.13917,-29.71303 -0.37074,-1.95495 -0.33806,-2.63145 0.15076,-3.12028 0.74064,-0.74063 1.99174,-0.36526 2.44034,0.7322 0.7498,1.83424 0.77605,11.08286 0.0413,14.53519 -1.61867,7.60511 -6.91043,15.63812 -13.11799,19.91342 -2.83799,1.95461 -3.19501,2.57099 -1.48913,2.57099 1.32238,0 2.37484,1.10714 1.99456,2.09816 -0.30683,0.79957 -2.05114,0.84866 -5.66387,0.15944 z M 82.533687,134.34852 c -6.615737,-3.2858 -12.349443,-6.24045 -12.74157,-6.56589 -0.613976,-0.50956 -0.712958,-2.85793 -0.712958,-16.91512 V 94.544097 l 12.774214,-6.336773 12.774222,-6.336774 12.426755,6.058663 c 7.83434,3.819651 12.61744,6.41497 12.94271,7.022763 0.34669,0.647795 0.51596,6.089114 0.51596,16.586294 0,14.2889 -0.0698,15.68443 -0.81826,16.35114 -0.63541,0.56605 -24.904761,12.62943 -25.088939,12.47079 -0.02399,-0.0208 -5.45639,-2.72588 -12.072134,-6.01168 z m 10.859656,-7.51067 c 0,-5.14339 -0.10384,-9.35161 -0.230693,-9.35161 -0.467332,0 -18.472524,9.11507 -18.472524,9.35166 0,0.25914 17.7527,9.27925 18.352534,9.32488 0.192885,0.0146 0.350683,-4.18154 0.350683,-9.32493 z m 12.387787,4.79826 c 5.01651,-2.50434 9.11783,-4.66104 9.11404,-4.7927 -0.004,-0.13163 -4.21201,-2.27469 -9.35161,-4.76234 l -9.344729,-4.52296 v 9.31566 c 0,5.12363 0.10384,9.31569 0.230693,9.31569 0.12693,0 4.335106,-2.04901 9.351606,-4.55335 z m 11.45883,-20.43553 V 97.901202 l -10.40367,5.030798 -10.40367,5.0308 -0.138346,3.12884 -0.138346,3.12885 10.425102,5.09851 c 5.73382,2.80417 10.47773,5.11706 10.54202,5.13974 0.0642,0.0227 0.11687,-5.94351 0.11687,-13.25816 z m -34.085587,7.84624 10.23897,-4.98555 v -2.99819 -2.99819 l -10.487187,-5.10852 c -5.767955,-2.80969 -10.590038,-5.10852 -10.715739,-5.10852 -0.125692,0 -0.167746,5.10248 -0.09344,11.33882 0.16909,14.19138 0.192759,14.84569 0.53683,14.84569 0.154875,0 4.889127,-2.24349 10.520563,-4.98554 z m 10.23897,-23.770656 c 0,-5.014806 -0.07404,-9.117831 -0.164558,-9.117831 -0.418004,0 -18.538662,8.926997 -18.538662,9.132923 0,0.320859 17.390926,9.024474 18.118749,9.067874 0.448782,0.0267 0.584471,-2.08186 0.584471,-9.082966 z m 12.741447,4.617349 8.99146,-4.500455 -9.11302,-4.592454 c -5.01216,-2.525855 -9.270831,-4.603663 -9.463716,-4.617362 -0.192872,-0.01367 -0.350683,4.078116 -0.350683,9.092922 0,5.826986 0.170453,9.117816 0.47226,9.117816 0.259742,0 4.518409,-2.0252 9.463699,-4.500467 z M 60.696021,117.2926 c -0.841146,-1.01353 -1.187798,-9.85254 -0.533706,-13.6086 0.73146,-4.200352 2.679999,-9.176756 4.906823,-12.531617 2.130288,-3.209407 6.66563,-7.791296 9.458713,-9.55579 2.387514,-1.508284 2.542579,-1.984382 0.646306,-1.984382 -1.510561,0 -2.552648,-1.260496 -1.906466,-2.306041 0.561675,-0.908808 7.152301,-0.230316 8.519912,0.877109 l 1.024662,0.829719 -1.303836,3.5749 c -1.432593,3.927929 -1.69323,4.243628 -3.127556,3.788396 -0.993324,-0.315274 -1.033778,-1.132296 -0.159893,-3.229208 0.603397,-1.447879 -5.16254,2.827431 -7.791886,5.777495 -2.548463,2.859305 -5.556456,8.339198 -6.686641,12.181539 -1.007063,3.4238 -1.398805,9.42893 -0.83892,12.86016 0.250603,1.53583 0.352453,3.0613 0.226333,3.38996 -0.306266,0.79811 -1.749976,0.76036 -2.433847,-0.0636 z M 117.5714,73.709246 c -0.59694,-0.596937 -0.34727,-2.407357 0.36993,-2.682575 1.24961,-0.479519 2.16397,0.208654 2.01251,1.514667 -0.13962,1.204041 -1.6204,1.929941 -2.38244,1.167908 z m 8.10981,-0.379486 c -0.4205,-0.506679 -0.42681,-0.915258 -0.0257,-1.664739 0.59588,-1.113392 1.7617,-1.089105 2.48,0.05166 1.08169,1.717888 -1.14999,3.184663 -2.45429,1.61308 z m -229.51103,86.75578 c -1.36172,-0.47035 -3.25542,-1.4802 -4.20822,-2.24408 -2.22482,-1.78372 -4.57846,-5.68239 -5.21097,-8.6317 -0.70573,-3.29069 -0.66532,-38.58518 0.0474,-41.41572 0.70853,-2.81379 4.07174,-6.37123 6.70426,-7.09141 1.13048,-0.30927 6.695302,-0.51269 14.067881,-0.51426 l 12.197563,-0.003 2.252869,4.92465 c 2.488318,5.43936 4.181251,7.34084 7.27812,8.17474 1.270472,0.34209 7.490121,0.46599 18.592466,0.37037 14.831765,-0.12783 16.849318,-0.23449 18.178811,-0.96151 1.968682,-1.07653 3.326278,-2.94672 5.940255,-8.18314 l 2.159066,-4.32511 h 11.598945 c 6.3794209,0 12.847455,0.2287 14.37341026,0.50825 5.73050244,1.04972 10.34621374,4.56548 12.76424574,9.72241 l 1.232151,2.6278 0.133914,16.77159 c 0.110212,13.80234 0.01006,17.19635 -0.565668,19.17079 -1.573603,5.39668 -5.4575735,9.3129 -10.9563293,11.04732 -2.74336103,0.86531 -4.258793,0.9373 -19.7279107,0.9373 h -16.756284 l -4.741457,-5.38957 c -6.538402,-7.43215 -10.371559,-9.45335 -15.481587,-8.16333 -3.394038,0.85682 -6.014362,3.1773 -9.696872,8.58728 l -3.380062,4.96562 -17.160077,-0.0146 c -15.386011,-0.0146 -17.41604,-0.10358 -19.63594,-0.87044 z m 114.296777,-0.97175 c 3.710846,-2.729 6.026026,-7.31205 6.771199,-13.40404 0.294774,-2.40985 0.420574,-9.71219 0.308373,-17.90034 C 17.36993,114.92089 17.285122,113.77513 16.30092,110.97889 13.858199,104.03884 8.5836806,99.417874 1.3738554,97.901435 -0.36064426,97.536614 -16.39458,97.380273 -52.07482,97.380273 c -37.320113,0 -50.8847,-0.139429 -50.64914,-0.520567 0.17695,-0.286315 1.2708,-0.940379 2.43078,-1.453491 2.070272,-0.915792 3.084404,-0.931581 55.165647,-0.859151 56.991028,0.0792 54.3149889,-0.02825 59.032184,2.372069 2.559802,1.302568 5.703095,4.328117 7.346968,7.071757 2.819325,4.70548 2.998247,6.32514 2.844272,25.74721 l -0.138258,17.43951 -1.461535,3.03926 c -0.803844,1.67161 -2.231006,3.92241 -3.171471,5.0018 -1.862236,2.13733 -7.549677,5.28499 -9.5493485,5.28499 -1.130807,0 -1.0918792,-0.0782 0.6916785,-1.38987 z M -120.05718,138.4302 c -1.99335,-1.14319 -2.07379,-1.61056 -2.08925,-12.13859 -0.008,-5.57239 0.11583,-10.47224 0.27558,-10.88853 0.37542,-0.97831 2.60321,-2.12507 4.12835,-2.12507 h 1.19217 v 12.85847 12.85846 l -1.28585,-0.0146 c -0.70721,-0.008 -1.70666,-0.25555 -2.221,-0.55052 z m 47.952555,-29.24353 c -0.765571,-0.70721 -2.123071,-2.96911 -3.016669,-5.02649 l -1.624724,-3.74063 23.422612,-0.12125 c 12.882436,-0.0667 23.504696,-0.0392 23.605023,0.0611 0.425917,0.42592 -3.728264,8.27373 -4.84436,9.15165 -1.183842,0.93122 -1.771215,0.96143 -18.686098,0.96143 h -17.463838 z m 23.825351,-25.48313 c 0.0098,-1.330494 4.260702,-10.863773 6.983424,-15.661246 13.501948,-23.790615 35.0473836,-37.026765 60.316489,-37.054628 4.384703,-0.0049 14.054814,0.958582 14.054814,1.400256 0,0.182568 -1.420274,0.46432 -3.156167,0.626116 C 20.440154,33.897548 8.6417175,39.442442 -0.42700776,47.275845 -9.034336,54.7107 -17.324839,67.478124 -21.652282,79.962896 l -1.499163,4.325116 h -12.566061 c -9.743415,0 -12.565095,-0.13129 -12.561768,-0.584472 z M 89.516573,57.343926 c -0.496936,-0.496933 -0.398978,-2.416558 0.140307,-2.749861 0.259471,-0.160366 0.902944,-0.154712 1.429923,0.01251 1.310707,0.416003 1.085677,2.736026 -0.284393,2.932149 -0.524928,0.07514 -1.103556,-0.01251 -1.28585,-0.194827 z m 8.669474,-0.01763 c -0.742579,-0.29964 -0.755917,-1.669756 -0.02335,-2.402297 0.739303,-0.739308 1.095339,-0.708188 1.976263,0.172745 0.55394,0.553936 0.61541,0.955145 0.25074,1.636532 -0.477691,0.892585 -1.067722,1.051369 -2.203629,0.59302 z"
       id="path1"
       sodipodi:nodetypes="ssscssssscssssscssssssssssssccccssscccccccsccsscsscccsssssssscccsscsssssscsscccsssssssssccsssscsccccccsssssssssssssssssscccssssssssscsssscsssccccccssscccccssssscssssssscsssssssssssscsssssssssssssssssscssssccssssscssscscsscssscccccssssssssssscsssccsssccccccsscsssscssscsssscsssssssssssss" /></g></svg>
