<?xml version="1.0" encoding="UTF-8" standalone="no"?>
<!-- Created with Inkscape (http://www.inkscape.org/) -->

<svg
   width="100"
   height="100"
   viewBox="0 0 263.48587 263.48587"
   version="1.1"
   id="svg1"
   xml:space="preserve"
   inkscape:version="1.3.2 (091e20e, 2023-11-25, custom)"
   sodipodi:docname="Bright.svg"
   xmlns:inkscape="http://www.inkscape.org/namespaces/inkscape"
   xmlns:sodipodi="http://sodipodi.sourceforge.net/DTD/sodipodi-0.dtd"
   xmlns="http://www.w3.org/2000/svg"
   xmlns:svg="http://www.w3.org/2000/svg"><sodipodi:namedview
     id="namedview1"
     pagecolor="#ffffff"
     bordercolor="#000000"
     borderopacity="0.25"
     inkscape:showpageshadow="2"
     inkscape:pageopacity="0.0"
     inkscape:pagecheckerboard="0"
     inkscape:deskcolor="#d1d1d1"
     inkscape:document-units="mm"
     inkscape:zoom="8.3597643"
     inkscape:cx="47.190326"
     inkscape:cy="61.96347"
     inkscape:window-width="2558"
     inkscape:window-height="1360"
     inkscape:window-x="1273"
     inkscape:window-y="0"
     inkscape:window-maximized="0"
     inkscape:current-layer="layer1" /><defs
     id="defs1" /><g
     inkscape:label="Layer 1"
     inkscape:groupmode="layer"
     id="layer1"
     transform="translate(68.622673,10.134179)"><path
       style="fill:#000000;stroke-width:1.71246"
       d="m 60.259738,251.95628 c -2.860097,-1.74388 -2.770953,-0.79168 -2.769138,-29.57979 0.0015,-25.09696 0.03422,-26.13984 0.860363,-27.49477 2.272731,-3.7274 7.69257,-3.5412 9.77178,0.33571 0.75229,1.40272 0.803786,3.14932 0.803146,27.24033 -6.27e-4,23.62583 -0.06388,25.86805 -0.76984,27.28118 -1.406034,2.81456 -5.179162,3.87409 -7.896311,2.21734 z m 89.829932,-35.84433 c -1.31094,-0.59541 -36.83681,-35.98484 -38.21277,-38.06598 -1.70339,-2.57636 -0.18885,-6.68238 2.89822,-7.85735 3.66109,-1.39342 3.21784,-1.7412 23.35959,18.32739 10.11931,10.08252 18.68102,18.86643 19.02606,19.51977 1.60049,3.03082 0.32036,6.82822 -2.73177,8.10348 -1.78877,0.7474 -2.64557,0.74201 -4.33933,-0.0274 z m -179.639453,-0.92022 c -0.728262,-0.61278 -1.559015,-1.82591 -1.846118,-2.69585 -1.072337,-3.24922 -1.004438,-3.33222 19.255327,-23.54014 16.2602623,-16.21866 19.0392917,-18.8122 20.4315259,-19.06783 0.8862762,-0.16267 2.0740271,-0.15583 2.6394491,0.0155 1.633019,0.49429 3.42261,2.44523 3.912789,4.26563 0.852648,3.16649 0.155747,4.01046 -19.2220449,23.27816 -9.8865571,9.83038 -18.4079501,18.09516 -18.9364301,18.36616 -1.767479,0.90639 -4.775085,0.60658 -6.234498,-0.62142 z m 86.59883,-33.6608 C 42.958246,179.83393 30.877676,174.01264 20.822609,164.07439 12.819138,156.1639 7.6764427,147.1222 4.9588818,136.18335 -1.7289626,109.26312 10.823874,81.498836 35.54984,68.522472 c 5.270824,-2.766178 7.89621,-3.783923 13.107894,-5.081382 9.003693,-2.24148 17.156486,-2.441424 26.070528,-0.639376 11.365579,2.297658 21.284892,7.48115 29.686548,15.513191 12.30825,11.766759 18.634,26.437035 18.648,43.247365 0.006,7.45852 -0.78844,12.62701 -2.93021,19.0579 -6.85221,20.57455 -25.325297,36.59708 -46.367036,40.21621 -5.018913,0.86324 -12.674594,1.18132 -16.716517,0.69455 z M -65.290398,126.44029 c -3.172163,-2.13097 -3.318039,-7.03041 -0.27397,-9.20164 l 1.418662,-1.0119 26.394502,-0.11403 c 25.861186,-0.11173 26.423924,-0.0958 27.8506745,0.77947 3.5545972,2.18107 3.5282964,7.50972 -0.047823,9.6902 -1.3551375,0.82629 -2.3988945,0.85879 -27.6278135,0.86037 l -26.219471,10e-4 z m 201.976048,0.44135 c -2.78644,-1.40997 -3.88299,-5.39396 -2.23054,-8.10405 1.74256,-2.85787 0.82184,-2.77079 29.29335,-2.77079 29.18115,0 28.18529,-0.1094 29.71833,3.26594 1.03312,2.27468 1.02805,2.65335 -0.0655,4.91253 -1.63801,3.38371 -0.50673,3.25999 -29.74085,3.25266 -19.82499,-0.005 -26.14259,-0.13529 -26.97468,-0.55629 z M 6.6795395,72.942572 C 5.9536911,72.486205 -2.8840812,63.826257 -12.959952,53.69822 -32.229929,34.328486 -32.285732,34.260813 -31.592174,31.103061 c 0.703862,-3.204665 4.801142,-5.187374 7.78939,-3.769358 0.806884,0.382894 9.812743,9.058858 20.0130159,19.279926 16.3247441,16.358013 18.5822801,18.783597 18.8492401,20.252302 0.884272,4.864906 -4.312964,8.633632 -8.3799325,6.076641 z M 114.45708,73.355913 c -2.35271,-0.973159 -3.78106,-4.158239 -3.10541,-6.924894 0.20407,-0.835689 6.35891,-7.304185 19.07971,-20.052051 20.21238,-20.255381 20.30128,-20.328093 23.54665,-19.257023 2.35498,0.77721 3.81003,2.739385 3.81003,5.13791 0,1.082225 -0.28302,2.502238 -0.62891,3.155583 -0.56674,1.070487 -28.32978,28.918865 -35.51548,35.624626 -2.56789,2.396389 -3.14054,2.73208 -4.61904,2.707647 -0.92825,-0.01535 -2.08365,-0.191642 -2.56755,-0.391798 z M 60.089893,50.337274 C 59.271301,49.785625 58.35413,48.845322 58.051734,48.247709 57.630457,47.415151 57.500409,41.031729 57.495439,20.941673 l -0.0064,-26.2194703 1.002998,-1.4883477 c 1.807035,-2.6814595 4.968355,-3.382391 7.711664,-1.7098431 2.759803,1.6826056 2.722955,1.2835115 2.722955,29.4919461 0,22.976392 -0.07458,25.729464 -0.73463,27.12043 -1.464946,3.087143 -5.257981,4.117503 -8.10205,2.200886 z"
       id="path1"
       sodipodi:nodetypes="ssssssscssssscccssscsssccssssssssssssscccsscsssssscsssssssssssssssscsssscssssss" /></g></svg>
