<?xml version="1.0" encoding="UTF-8" standalone="no"?>
<!-- Created with Inkscape (http://www.inkscape.org/) -->

<svg
   width="100"
   height="100"
   viewBox="0 0 147.16097 147.16097"
   version="1.1"
   id="svg1"
   xml:space="preserve"
   inkscape:version="1.3.2 (091e20e, 2023-11-25, custom)"
   sodipodi:docname="building.svg"
   xmlns:inkscape="http://www.inkscape.org/namespaces/inkscape"
   xmlns:sodipodi="http://sodipodi.sourceforge.net/DTD/sodipodi-0.dtd"
   xmlns="http://www.w3.org/2000/svg"
   xmlns:svg="http://www.w3.org/2000/svg"><sodipodi:namedview
     id="namedview1"
     pagecolor="#ffffff"
     bordercolor="#000000"
     borderopacity="0.25"
     inkscape:showpageshadow="2"
     inkscape:pageopacity="0.0"
     inkscape:pagecheckerboard="0"
     inkscape:deskcolor="#d1d1d1"
     inkscape:document-units="mm"
     inkscape:zoom="2.8284271"
     inkscape:cx="116.8494"
     inkscape:cy="83.4386"
     inkscape:window-width="2558"
     inkscape:window-height="1360"
     inkscape:window-x="1273"
     inkscape:window-y="0"
     inkscape:window-maximized="0"
     inkscape:current-layer="layer1" /><defs
     id="defs1" /><g
     inkscape:label="Layer 1"
     inkscape:groupmode="layer"
     id="layer1"
     transform="translate(-37.216797,-80.640068)"><path
       style="fill:#000000"
       d="m 37.398044,220.24124 v -7.31723 h 3.73035 3.73035 v -64.86494 c 0,-58.318875 0.0454,-64.952671 0.44948,-65.734157 0.91273,-1.765023 -0.80694,-1.684845 36.13664,-1.684845 36.752966,0 35.099646,-0.07367 36.205126,1.61326 0.49882,0.761187 0.52829,2.355861 0.60229,32.592792 l 0.0778,31.79245 27.32592,0.007 c 15.65091,0.004 27.81631,0.12001 28.47371,0.27172 0.68623,0.15836 1.46513,0.61899 1.93691,1.14548 l 0.78911,0.88061 v 31.9904 31.99039 h 3.73035 3.73035 v 7.31723 7.31722 h -14.63445 -14.63445 v -18.3648 -18.36479 h -14.77792 -14.77793 v 18.36479 18.3648 H 81.444864 37.398044 Z m 36.7296,-22.09515 v -7.31722 h -7.31723 -7.31722 v 7.31722 7.31722 h 7.31722 7.31723 z m 29.268906,0 v -7.31722 h -7.317236 -7.31723 v 7.31722 7.31722 h 7.31723 7.317236 z m -29.268906,-29.2689 v -7.31722 h -7.31723 -7.31722 v 7.31722 7.31723 h 7.31722 7.31723 z m 29.268906,0 v -7.31722 h -7.317236 -7.31723 v 7.31722 7.31723 h 7.31723 7.317236 z m 29.55584,0 v -7.31722 h -7.31722 -7.31723 v 7.31722 7.31723 h 7.31723 7.31722 z m 29.2689,0 v -7.31722 h -7.31722 -7.31723 v 7.31722 7.31723 h 7.31723 7.31722 z M 74.127644,139.32134 v -7.31722 h -7.31723 -7.31722 v 7.31722 7.31723 h 7.31722 7.31723 z m 29.268906,0 v -7.31722 h -7.317236 -7.31723 v 7.31722 7.31723 h 7.31723 7.317236 z m -29.268906,-29.2689 v -7.31722 h -7.31723 -7.31722 v 7.31722 7.31723 h 7.31722 7.31723 z m 29.268906,0 v -7.31722 h -7.317236 -7.31723 v 7.31722 7.31723 h 7.31723 7.317236 z"
       id="path1" /></g></svg>
