<?xml version="1.0" encoding="UTF-8" standalone="no"?>
<!-- Created with Inkscape (http://www.inkscape.org/) -->

<svg
   width="100"
   height="100"
   viewBox="0 0 26.458334 26.458334"
   version="1.1"
   id="svg1"
   xml:space="preserve"
   inkscape:version="1.3.2 (091e20e, 2023-11-25, custom)"
   sodipodi:docname="Checklist.svg"
   xmlns:inkscape="http://www.inkscape.org/namespaces/inkscape"
   xmlns:sodipodi="http://sodipodi.sourceforge.net/DTD/sodipodi-0.dtd"
   xmlns="http://www.w3.org/2000/svg"
   xmlns:svg="http://www.w3.org/2000/svg"><sodipodi:namedview
     id="namedview1"
     pagecolor="#ffffff"
     bordercolor="#000000"
     borderopacity="0.25"
     inkscape:showpageshadow="2"
     inkscape:pageopacity="0.0"
     inkscape:pagecheckerboard="0"
     inkscape:deskcolor="#d1d1d1"
     inkscape:document-units="mm"
     inkscape:zoom="4"
     inkscape:cx="116.625"
     inkscape:cy="44.25"
     inkscape:window-width="2558"
     inkscape:window-height="1360"
     inkscape:window-x="1273"
     inkscape:window-y="0"
     inkscape:window-maximized="0"
     inkscape:current-layer="layer1" /><defs
     id="defs1" /><g
     inkscape:label="Layer 1"
     inkscape:groupmode="layer"
     id="layer1"
     transform="translate(-130.98473,-126.68037)"><path
       style="fill:#000000;stroke-width:1.36468"
       d="m 134.12247,152.86656 c -0.0928,-0.0403 -0.21599,-0.15097 -0.27387,-0.24591 -0.10248,-0.16809 -0.10521,-0.2561 -0.10521,-3.35701 0,-3.10205 0.003,-3.18886 0.10535,-3.35719 0.20012,-0.32821 0.14386,-0.32314 3.58596,-0.32294 3.00125,1.9e-4 3.1272,0.004 3.28763,0.10194 0.37499,0.22865 0.3552,0.0293 0.3552,3.57822 0,3.54886 0.0198,3.34957 -0.3552,3.5782 -0.16055,0.0978 -0.28453,0.10167 -3.29902,0.0999 -2.57138,-0.001 -3.16237,-0.015 -3.30082,-0.0752 z m 5.51946,-3.60292 v -2.21863 h -2.24474 -2.24473 v 2.21863 2.21863 h 2.24473 2.24474 z m 4.44716,0.12924 c -0.41857,-0.2552 -0.41857,-0.94279 0,-1.198 0.16996,-0.10358 0.25068,-0.10535 4.90252,-0.10549 l 4.72972,-1.9e-4 0.17661,0.119 c 0.22519,0.15175 0.30692,0.31577 0.30788,0.61783 5.3e-4,0.16615 -0.033,0.28395 -0.10822,0.37952 -0.24207,0.30775 0.0136,0.29313 -5.12175,0.29291 -4.636,-1.9e-4 -4.71679,-0.001 -4.88673,-0.10549 z m -10.01732,-5.37347 c -0.33994,-0.20728 -0.32882,-0.0858 -0.3286,-3.58848 1.9e-4,-3.01327 0.005,-3.18208 0.0983,-3.33472 0.2086,-0.34209 0.13469,-0.33515 3.56448,-0.33515 3.52075,0 3.35489,-0.0195 3.58155,0.4215 l 0.11873,0.23105 -0.0143,3.10843 c -0.016,3.45531 0.004,3.27001 -0.36956,3.49755 -0.1605,0.0978 -0.28651,0.10167 -3.32511,0.10167 -3.04054,0 -3.16452,-0.004 -3.32542,-0.10194 z m 5.57016,-3.55192 v -2.24473 h -2.24474 -2.24473 v 2.24473 2.24473 h 2.24473 2.24474 z m 4.45284,0.57635 c -0.44798,-0.27316 -0.42533,-0.96234 0.0399,-1.21181 0.16848,-0.0903 0.4253,-0.0954 4.8665,-0.0954 5.17552,0 4.89156,-0.0183 5.10319,0.3288 0.0641,0.10508 0.10194,0.26138 0.10208,0.42124 1.8e-4,0.22569 -0.0225,0.27677 -0.20248,0.45677 l -0.20267,0.20268 -4.76966,-2e-4 c -4.63856,-1.9e-4 -4.77428,-0.003 -4.93681,-0.10208 z m -9.96454,-5.79503 c -0.0598,-0.0242 -0.17135,-0.11846 -0.24796,-0.20951 l -0.13929,-0.16555 v -3.21149 c 0,-3.61195 -0.021,-3.41945 0.3938,-3.62022 0.20525,-0.0993 0.32974,-0.1033 3.26384,-0.10221 2.88379,0.001 3.06238,0.007 3.26886,0.1003 0.25658,0.11654 0.3703,0.30523 0.42313,0.70217 l 0.0371,0.27886 1.04406,-0.93901 c 0.57423,-0.51645 1.11453,-0.98309 1.20067,-1.03697 0.31583,-0.19756 0.75208,-0.0712 0.96603,0.27964 0.11668,0.1913 0.1306,0.36593 0.048,0.60279 -0.0392,0.11232 -0.54571,0.59876 -1.6705,1.60429 l -1.61434,1.44319 -2.9e-4,1.80975 c -1.7e-4,1.06758 -0.0221,1.88826 -0.0535,2.00122 -0.0299,0.1074 -0.1336,0.2621 -0.23645,0.35236 l -0.18326,0.16091 -3.19561,-0.003 c -1.7576,-0.001 -3.24453,-0.0231 -3.3043,-0.0472 z m 5.5117,-2.14832 c 0,-0.91394 0.0676,-0.88378 -0.61426,-0.274 -0.81819,0.73168 -0.90116,0.70525 -2.17966,-0.69457 -1.09053,-1.19401 -1.1615,-1.2831 -1.2045,-1.5123 -0.042,-0.2242 0.13142,-0.58929 0.33809,-0.71135 0.19703,-0.11641 0.56766,-0.11559 0.74155,0.001 0.0744,0.0501 0.44556,0.43164 0.82498,0.84796 0.37941,0.41632 0.71169,0.75695 0.7384,0.75695 0.0267,0 0.34156,-0.25842 0.69971,-0.57425 l 0.65117,-0.57423 0.003,-0.48287 0.003,-0.48288 h -2.24473 -2.24474 v 2.24473 2.24474 h 2.24474 2.24473 z m 4.62741,-0.30833 c -0.46795,-0.14023 -0.66178,-0.78437 -0.33975,-1.1291 0.27322,-0.29252 0.0265,-0.27892 5.05926,-0.27892 4.23911,0 4.67019,0.008 4.83754,0.0872 0.23861,0.11327 0.37975,0.34932 0.38,0.63562 2.6e-4,0.29724 -0.13033,0.50816 -0.39361,0.6356 -0.20789,0.10057 -0.33166,0.10317 -4.80383,0.0988 -2.52475,-0.003 -4.65757,-0.0246 -4.73961,-0.0491 z"
       id="path1" /></g></svg>
