<?xml version="1.0" encoding="UTF-8" standalone="no"?>
<!-- Created with Inkscape (http://www.inkscape.org/) -->

<svg
   width="100"
   height="100"
   viewBox="0 0 357.74719 357.74719"
   version="1.1"
   id="svg1"
   xml:space="preserve"
   inkscape:version="1.3.2 (091e20e, 2023-11-25, custom)"
   sodipodi:docname="Cloud-Devops.svg"
   xmlns:inkscape="http://www.inkscape.org/namespaces/inkscape"
   xmlns:sodipodi="http://sodipodi.sourceforge.net/DTD/sodipodi-0.dtd"
   xmlns="http://www.w3.org/2000/svg"
   xmlns:svg="http://www.w3.org/2000/svg"><sodipodi:namedview
     id="namedview1"
     pagecolor="#ffffff"
     bordercolor="#000000"
     borderopacity="0.25"
     inkscape:showpageshadow="2"
     inkscape:pageopacity="0.0"
     inkscape:pagecheckerboard="0"
     inkscape:deskcolor="#d1d1d1"
     inkscape:document-units="mm"
     inkscape:zoom="8.3597643"
     inkscape:cx="83.913849"
     inkscape:cy="67.107155"
     inkscape:window-width="2558"
     inkscape:window-height="1360"
     inkscape:window-x="1273"
     inkscape:window-y="0"
     inkscape:window-maximized="0"
     inkscape:current-layer="layer1" /><defs
     id="defs1" /><g
     inkscape:label="Layer 1"
     inkscape:groupmode="layer"
     id="layer1"
     transform="translate(30.516531,-12.906742)"><path
       style="fill:#000000;stroke-width:1.81326"
       d="m 135.12364,368.79333 c -39.238682,-5.4161 -71.659815,-32.8255 -83.895239,-70.92647 l -2.382507,-7.41909 -6.989994,-0.008 c -7.199038,-0.008 -9.733559,-0.74317 -8.972386,-2.60265 0.475567,-1.16175 22.665139,-28.34542 24.395438,-29.88598 1.159943,-1.03277 1.485459,-1.07528 2.418592,-0.31603 1.410615,1.14773 24.776596,28.3689 25.537261,29.75069 0.414221,0.75244 0.270248,1.37674 -0.493647,2.14063 -0.929659,0.92963 -1.926837,1.02278 -7.229815,0.67525 -3.75682,-0.2462 -6.299229,-0.1641 -6.531071,0.21114 -0.690236,1.11681 4.722903,13.7259 8.417133,19.60649 20.838015,33.17062 60.573335,47.18019 96.494835,34.02143 19.71868,-7.22333 37.83912,-24.18426 45.95871,-43.01784 1.31766,-3.05632 2.86966,-7.26154 3.44889,-9.34495 l 1.05316,-3.788 4.87845,4.74743 c 5.2156,5.07555 6.59195,5.60317 10.00813,3.83658 0.96875,-0.50097 2.5729,-1.9748 3.56474,-3.27518 0.99185,-1.30038 1.91018,-2.0439 2.04072,-1.65229 0.40057,1.20179 -4.64389,15.46622 -7.4544,21.07901 -14.12297,28.20467 -40.05095,48.37258 -70.66699,54.96786 -6.93501,1.49393 -26.42641,2.18986 -33.60001,1.1997 z m 4.7842,-44.36756 c -0.471,-1.14062 -1.3445,-3.82852 -1.9411,-5.97308 -0.91464,-3.28788 -1.34646,-3.96283 -2.75401,-4.3049 -0.9181,-0.2231 -3.63438,-1.3046 -6.03615,-2.40331 l -4.36687,-1.99764 -4.95727,2.66811 c -2.72648,1.46747 -5.31897,2.66813 -5.76107,2.66813 -1.23073,0 -10.57131,-9.67251 -10.57131,-10.94698 0,-0.61705 1.13256,-3.18549 2.5168,-5.70763 l 2.51675,-4.58569 -2.19301,-5.02362 c -1.20617,-2.76298 -2.1965,-5.5014 -2.20074,-6.08539 -0.005,-0.78601 -1.52613,-1.52948 -5.854379,-2.86271 l -5.846654,-1.80095 -0.179689,-7.19713 c -0.113649,-4.55475 0.07143,-7.44878 0.504175,-7.88251 0.376136,-0.37693 2.98214,-1.39643 5.791116,-2.26552 l 5.107241,-1.58019 1.70299,-4.42449 c 0.93666,-2.43348 2.0459,-5.06048 2.46497,-5.83779 0.66796,-1.23885 0.40489,-2.04259 -2.13158,-6.5128 -1.77131,-3.12166 -2.75381,-5.53991 -2.53322,-6.23494 0.52768,-1.6626 9.50155,-10.17373 10.72684,-10.17373 0.5749,0 3.16098,1.16119 5.74688,2.58042 l 4.70161,2.58039 6.17183,-2.52992 6.17184,-2.52991 1.58017,-5.07692 c 0.8691,-2.79234 1.88828,-5.38436 2.26484,-5.76011 0.43528,-0.43433 3.42751,-0.61798 8.21524,-0.50418 l 7.53059,0.17897 1.79528,5.58602 c 1.68332,5.23767 1.93964,5.64284 4.11015,6.49694 1.27319,0.50098 3.96965,1.6753 5.99214,2.60959 l 3.67725,1.69868 4.93405,-2.66499 c 2.71375,-1.46574 5.34723,-2.66499 5.85223,-2.66499 1.47849,0 10.61844,9.77176 10.61844,11.35245 0,0.76144 -1.15774,3.36679 -2.57276,5.78966 l -2.57278,4.40517 2.25675,5.25425 c 1.2412,2.88983 2.25673,5.52611 2.25673,5.85838 0,0.3323 2.631,1.43939 5.84667,2.46021 l 5.84665,1.85605 v 7.58487 7.58484 l -5.75288,1.84323 -5.75289,1.84322 -2.36354,5.99235 -2.36354,5.99235 2.71571,5.18399 2.71574,5.184 -4.66963,5.14646 c -2.5683,2.83055 -5.17359,5.30639 -5.78953,5.5019 -0.65067,0.20651 -3.26659,-0.74981 -6.24327,-2.28238 l -5.12335,-2.63785 -4.22873,1.93397 c -2.32579,1.0637 -4.99959,2.12148 -5.94174,2.35063 -1.52047,0.36981 -1.91329,1.06676 -3.49493,6.20109 l -1.78191,5.78447 -7.74838,0.1777 -7.74838,0.1777 z m 15.11632,-27.38075 c 11.39137,-2.96706 19.76427,-12.95299 20.42456,-24.35933 0.15938,-2.75195 -0.0606,-6.36193 -0.50357,-8.26533 -3.22585,-13.86228 -16.74728,-22.98335 -30.7543,-20.74571 -14.8027,2.36474 -25.45607,16.48736 -23.11133,30.63746 2.72743,16.45953 18.21318,26.83043 33.94464,22.73291 z m 71.97169,-24.69234 c -5.51043,-6.4674 -11.24033,-13.19485 -12.7331,-14.94989 -4.06516,-4.77943 -3.70866,-5.17626 4.84228,-5.39015 l 7.16956,-0.17933 -0.43475,-2.31741 c -1.20053,-6.39945 -7.86724,-19.59602 -13.75496,-27.22761 -6.86658,-8.90035 -17.76322,-17.81524 -27.9337,-22.85346 l -5.41462,-2.68226 v -10.75765 -10.75763 l 2.05423,0.41036 c 3.04871,0.609 13.95583,5.63868 19.51308,8.99816 7.76642,4.69503 13.06306,8.88686 19.83337,15.69643 12.73704,12.81093 22.04097,28.96861 26.29699,45.66875 l 1.48534,5.82836 7.59157,0.17625 c 6.6775,0.15503 7.61737,0.31094 7.80595,1.29457 0.13201,0.68851 -2.42549,4.33218 -6.65474,9.48107 -3.77804,4.59955 -9.23626,11.27824 -12.12935,14.84155 -3.11413,3.8355 -5.72081,6.47871 -6.38918,6.47871 -0.68445,0 -5.07398,-4.63009 -11.14797,-11.75888 z M 65.906768,248.65659 c -5.975271,-6.22078 -8.459903,-6.37588 -13.516002,-0.84371 -1.724651,1.88705 -3.280773,3.431 -3.458049,3.431 -0.177283,0 0.212459,-1.92982 0.86608,-4.28849 7.021234,-25.33699 21.575129,-45.65213 42.98108,-59.99538 6.961818,-4.66484 21.297743,-11.56471 24.028103,-11.56471 0.37985,0 0.60215,4.19814 0.5774,10.90323 l -0.0403,10.90323 -5.61775,2.7042 c -18.39,8.85225 -34.552244,28.04238 -39.956244,47.4418 -0.789148,2.83287 -1.599082,5.15282 -1.799866,5.15547 -0.200759,0.001 -2.029791,-1.72835 -4.064485,-3.84664 z m 64.318322,-47.3619 -1.42216,-0.57579 v -18.66648 -18.66647 h -6.19431 c -6.44419,0 -7.71126,-0.44949 -7.71126,-2.7356 0,-1.05183 27.44193,-29.67581 32.15651,-33.54166 l 1.50105,-1.23082 16.67101,16.76668 c 20.51258,20.6303 20.55927,20.7414 8.7184,20.7414 h -5.95298 l -0.009,18.17206 c -0.005,9.99463 -0.21863,18.48478 -0.47405,18.86697 -0.59466,0.8899 -35.23669,1.69802 -37.28252,0.86971 z M 64.402634,149.11343 C 58.941719,147.64481 53.57664,144.44729 49.138481,140.01619 37.915715,128.81127 35.26924,112.23192 42.381208,97.683949 45.048412,92.22804 51.817626,85.410671 57.460855,82.497081 l 4.190477,-2.163544 0.324653,-6.669239 c 0.401775,-8.253069 1.96599,-13.015409 6.4314,-19.580588 7.979114,-11.73116 22.552585,-18.394388 36.406645,-16.645696 3.04645,0.384541 7.27967,1.402248 9.40714,2.261567 l 3.86813,1.562413 1.99966,-2.935251 c 2.99926,-4.402511 9.81835,-11.288443 14.01147,-14.148735 2.04451,-1.394667 6.02656,-3.606182 8.84898,-4.914491 19.95193,-9.248534 44.33195,-5.286556 60.33204,9.804509 9.31118,8.782162 15.31213,19.888329 16.84587,31.177248 0.25131,1.84983 0.78302,3.44684 1.18154,3.548892 12.2923,3.147813 17.44402,5.879732 24.5035,12.993979 5.33115,5.37248 9.14234,12.097823 11.10615,19.598234 1.43337,5.474481 1.39683,15.978651 -0.0747,21.490431 -4.05706,15.19556 -16.26983,27.46185 -31.10909,31.24543 -5.6239,1.43392 -38.4524,1.46542 -39.25142,0.0377 -1.21806,-2.17658 -35.31065,-35.78011 -36.63911,-36.11352 -3.31084,-0.83097 -4.8551,0.43907 -22.8438,18.78739 L 109.08,150.1125 88.444088,150.07093 c -15.925523,-0.032 -21.413261,-0.25064 -24.041325,-0.95742 z"
       id="path1" /></g></svg>
