<?xml version="1.0" encoding="UTF-8" standalone="no"?>
<!-- Created with Inkscape (http://www.inkscape.org/) -->

<svg
   width="100"
   height="100"
   viewBox="0 0 263.48587 263.48587"
   version="1.1"
   id="svg1"
   xml:space="preserve"
   inkscape:version="1.3.2 (091e20e, 2023-11-25, custom)"
   sodipodi:docname="Dark.svg"
   xmlns:inkscape="http://www.inkscape.org/namespaces/inkscape"
   xmlns:sodipodi="http://sodipodi.sourceforge.net/DTD/sodipodi-0.dtd"
   xmlns="http://www.w3.org/2000/svg"
   xmlns:svg="http://www.w3.org/2000/svg"><sodipodi:namedview
     id="namedview1"
     pagecolor="#ffffff"
     bordercolor="#000000"
     borderopacity="0.25"
     inkscape:showpageshadow="2"
     inkscape:pageopacity="0.0"
     inkscape:pagecheckerboard="0"
     inkscape:deskcolor="#d1d1d1"
     inkscape:document-units="mm"
     inkscape:zoom="8.3597643"
     inkscape:cx="69.080895"
     inkscape:cy="40.671003"
     inkscape:window-width="2558"
     inkscape:window-height="1360"
     inkscape:window-x="1268"
     inkscape:window-y="0"
     inkscape:window-maximized="0"
     inkscape:current-layer="layer1" /><defs
     id="defs1" /><g
     inkscape:label="Layer 1"
     inkscape:groupmode="layer"
     id="layer1"
     transform="translate(30.516531,-12.906742)"><path
       style="fill:#000000;stroke-width:2.06923"
       d="M 90.317913,274.87357 C 47.198252,268.80641 10.819763,242.94119 -8.9726399,204.27765 -22.974659,176.92537 -26.690282,144.24661 -19.245899,113.92477 -15.147568,97.2318 -7.5383245,81.37548 3.4842172,66.559217 9.0528497,59.073994 21.510845,46.511521 29.024326,40.804945 51.893543,23.435465 79.381778,13.871694 106.43597,13.871694 c 4.05273,0 7.82936,0.246588 8.39249,0.547975 1.30736,0.699679 2.6315,3.248125 2.6315,5.064603 0,2.843437 -1.40957,4.125041 -7.88571,7.169768 -30.906218,14.53042 -52.292095,44.374482 -56.536892,78.89742 -0.822782,6.69169 -0.384024,21.89605 0.825232,28.59681 5.952443,32.98376 27.175906,60.91148 57.47711,75.63348 31.71898,15.41081 68.18929,13.23483 98.19039,-5.8585 5.79536,-3.68829 7.52975,-4.01078 10.0709,-1.87253 2.56539,2.15862 2.30199,4.58752 -1.11419,10.27394 -13.48699,22.45003 -32.30776,39.74022 -55.35719,50.85537 -11.56221,5.57564 -22.32393,9.03196 -35.0257,11.24912 -7.16709,1.25105 -30.133523,1.52117 -37.785997,0.44442 z m 47.324617,-114.6067 c -0.98813,-0.98813 -1.55566,-2.10635 -1.55566,-3.0652 0,-0.83026 1.44846,-7.85371 3.21878,-15.60771 1.77033,-7.75399 3.26714,-14.49647 3.32625,-14.98335 0.0684,-0.56521 -3.93243,-4.28191 -11.06871,-10.2821 -6.14686,-5.16831 -11.71499,-9.9922 -12.37358,-10.71978 -2.03997,-2.25364 -1.30026,-6.170725 1.4425,-7.638609 0.54381,-0.291039 7.99622,-1.123736 16.56089,-1.85043 8.56467,-0.726693 15.78219,-1.531327 16.03894,-1.788104 0.25675,-0.256751 3.08214,-6.79019 6.27859,-14.518745 3.49044,-8.439296 6.26753,-14.423923 6.95283,-14.983271 1.35616,-1.106895 5.12207,-1.219999 6.47283,-0.194305 1.08297,0.822256 1.88476,2.589586 8.11619,17.889966 2.56307,6.293221 4.81501,11.614691 5.00434,11.825473 0.18934,0.210794 7.35952,0.988765 15.93375,1.728838 8.57426,0.740072 16.04116,1.587293 16.59316,1.88271 2.70991,1.450302 3.46197,5.213347 1.53224,7.666637 -0.61742,0.78492 -5.94606,5.50285 -11.8414,10.48431 -5.89535,4.98146 -10.91975,9.34165 -11.16535,9.68933 -0.26258,0.37168 0.90537,6.55139 2.83493,14.99985 1.80482,7.90227 3.28703,15.19785 3.29379,16.21239 0.0108,1.40195 -0.38562,2.20019 -1.64588,3.32623 -2.81518,2.51536 -4.08668,2.15033 -13.90952,-3.99341 -4.81454,-3.01128 -10.83361,-6.72999 -13.37572,-8.26383 l -4.62203,-2.78879 -13.35046,8.26383 c -14.91457,9.23197 -15.83689,9.56296 -18.6917,6.70816 z"
       id="path1"
       sodipodi:nodetypes="ssssssssssssssssssssscsssssssssssssssscssscsss" /></g></svg>
