<?xml version="1.0" encoding="UTF-8" standalone="no"?>
<!-- Created with Inkscape (http://www.inkscape.org/) -->

<svg
   width="100"
   height="100"
   viewBox="0 0 357.74719 357.74719"
   version="1.1"
   id="svg1"
   xml:space="preserve"
   inkscape:version="1.3.2 (091e20e, 2023-11-25, custom)"
   sodipodi:docname="DavinciResolve_Logo.svg"
   xmlns:inkscape="http://www.inkscape.org/namespaces/inkscape"
   xmlns:sodipodi="http://sodipodi.sourceforge.net/DTD/sodipodi-0.dtd"
   xmlns="http://www.w3.org/2000/svg"
   xmlns:svg="http://www.w3.org/2000/svg"><sodipodi:namedview
     id="namedview1"
     pagecolor="#ffffff"
     bordercolor="#000000"
     borderopacity="0.25"
     inkscape:showpageshadow="2"
     inkscape:pageopacity="0.0"
     inkscape:pagecheckerboard="0"
     inkscape:deskcolor="#d1d1d1"
     inkscape:document-units="mm"
     inkscape:zoom="8.3597643"
     inkscape:cx="88.220191"
     inkscape:cy="54.427372"
     inkscape:window-width="2558"
     inkscape:window-height="1360"
     inkscape:window-x="1273"
     inkscape:window-y="0"
     inkscape:window-maximized="0"
     inkscape:current-layer="layer1" /><defs
     id="defs1" /><g
     inkscape:label="Layer 1"
     inkscape:groupmode="layer"
     id="layer1"
     transform="translate(30.516531,-12.906742)"><path
       style="fill:#000000"
       d="m 27.975225,369.19705 c -8.565414,-0.8395 -12.768297,-1.59464 -17.884534,-3.21336 -10.97017242,-3.47083 -19.6607701,-9.42164 -27.324112,-18.70992 -5.967362,-7.23269 -10.236644,-16.82551 -11.833426,-26.58898 -1.505272,-9.20394 -1.500701,-8.76197 -1.373824,-132.82503 0.131088,-128.180169 0.01654,-120.051335 1.814293,-128.754797 C -25.090739,41.987839 -13.382546,26.83083 1.8628339,19.634717 8.8144426,16.353424 13.356761,15.000542 21.743545,13.713458 25.452327,13.144287 33.496403,13.09651 144.61057,12.983696 c 85.40954,-0.08672 120.27132,-0.01121 123.77274,0.268077 11.19656,0.89308 17.95362,2.706718 26.80872,7.195622 2.42996,1.231819 6.89832,4.045934 7.77154,4.894418 0.25304,0.245873 0.58416,0.447042 0.73582,0.447042 0.25231,0 7.2075,6.794159 8.19759,8.0078 6.01813,7.37697 10.47743,16.758503 12.34112,25.963438 1.81394,8.959239 1.7671,5.456946 1.7594,131.550197 -0.008,125.83106 0.0415,122.16902 -1.7603,131.07455 -1.30141,6.43231 -6.06131,23.24299 -21.59474,34.79734 -6.67664,4.96634 -14.89299,8.68695 -23.46603,10.45379 -9.02846,1.86069 -4.15101,1.79647 -131.85768,1.73623 C 82.350031,369.3416 28.645443,369.26274 27.975225,369.19705 Z M 273.60578,345.44157 c 13.58727,-2.81906 24.23673,-12.85223 27.94048,-26.32352 l 0.95724,-3.48165 0.10076,-122.90232 C 302.69562,81.31113 302.65289,69.514282 302.14683,66.432775 299.83316,52.344455 290.0616,41.597146 275.69477,37.339323 l -3.13348,-0.928655 -122.72824,-0.100596 c -87.487925,-0.07171 -123.578004,0.009 -125.687642,0.28094 -6.477434,0.835092 -13.243803,3.871395 -18.8004132,8.436394 -5.07932448,4.172887 -9.4255646,11.111976 -11.3926596,18.18921 L -7.015379,66.698268 V 190.99325 315.28823 l 0.8256325,3.13349 c 1.091831,4.14378 3.0082418,8.52734 5.1103936,11.68943 3.3998154,5.11405 9.5137443,10.25697 15.3271299,12.89289 2.028377,0.91971 7.13207,2.44536 9.549465,2.85462 0.478728,0.0811 56.176458,0.16664 123.772738,0.1902 118.73143,0.0414 123.00866,0.0208 126.0358,-0.60729 z M 79.834904,280.80358 c -9.731821,-1.76276 -19.248366,-7.71843 -25.41943,-15.90805 -2.676882,-3.55249 -5.675313,-9.68188 -6.772224,-13.84378 -2.138636,-8.11441 -1.715458,-17.86716 1.099806,-25.34663 4.688071,-12.45506 14.808924,-21.61535 28.012279,-25.35366 2.945072,-0.83385 3.99829,-0.94169 10.582059,-1.08353 7.743319,-0.16682 12.914606,0.19207 26.460556,1.83642 14.9683,1.817 25.22494,3.39493 26.29429,4.04524 1.33523,0.812 2.42637,2.60209 2.42804,3.98333 0.003,2.15716 -9.01363,27.91136 -13.7611,39.30759 -4.93534,11.8472 -7.43699,16.11669 -12.31263,21.01357 -6.00206,6.02823 -14.07145,10.17674 -22.435588,11.53425 -3.007651,0.48815 -11.039002,0.38348 -14.176058,-0.18475 z m 120.133936,-0.12307 c -5.98486,-1.31524 -11.95629,-3.98244 -16.37479,-7.31396 -3.10943,-2.34449 -7.67487,-7.17253 -9.6076,-10.16023 -4.14803,-6.4122 -10.59049,-22.36927 -18.30495,-45.33881 -3.03871,-9.04765 -3.12461,-9.73054 -1.47114,-11.69558 1.1265,-1.33877 1.94936,-1.57712 9.02705,-2.61475 21.34012,-3.12859 31.93381,-4.15817 42.9984,-4.17891 8.97026,-0.0168 9.32146,0.009 12.65136,0.92192 3.89663,1.06857 9.55406,3.65794 12.78313,5.85076 2.96912,2.01629 7.28307,6.19586 9.67877,9.37729 8.51696,11.31027 10.41984,27.07321 4.88791,40.48987 -2.94779,7.14931 -8.17984,13.68228 -14.40319,17.98448 -3.61676,2.50026 -9.20703,5.09975 -13.29479,6.18211 -4.7018,1.24494 -14.02822,1.49395 -18.57016,0.49581 z m -54.13969,-84.2271 c -2.7081,-1.26611 -18.94724,-20.48762 -28.14453,-33.31338 -6.14816,-8.5737 -9.11413,-14.44418 -10.35316,-20.49182 -4.63768,-22.63622 9.43775,-43.989082 32.05663,-48.630884 3.19391,-0.655446 4.42546,-0.728044 9.74863,-0.574666 4.54573,0.130978 6.75596,0.352401 8.70413,0.871991 7.97136,2.126014 13.65132,5.332775 19.19254,10.835629 5.38568,5.34838 8.99199,11.59702 11.00424,19.06698 0.83665,3.10587 0.91856,3.98425 0.91856,9.85098 0,5.87324 -0.0813,6.74298 -0.92238,9.86603 -2.19318,8.14373 -8.38405,17.90166 -21.72855,34.2481 -5.28583,6.47491 -14.61028,17.06613 -15.78404,17.92838 -1.32161,0.97085 -3.0746,1.09887 -4.69207,0.34266 z"
       id="path1"
       sodipodi:nodetypes="ssssssssssssssscssssscscssscscsscccssssscsssssssscssssssssssscsssssssssssssssssss" /></g></svg>
