<?xml version="1.0" encoding="UTF-8" standalone="no"?>
<!-- Created with Inkscape (http://www.inkscape.org/) -->

<svg
   width="100"
   height="100"
   viewBox="0 0 136 136"
   version="1.1"
   id="svg1"
   xml:space="preserve"
   inkscape:version="1.3.2 (091e20e, 2023-11-25, custom)"
   sodipodi:docname="devianart.svg"
   xmlns:inkscape="http://www.inkscape.org/namespaces/inkscape"
   xmlns:sodipodi="http://sodipodi.sourceforge.net/DTD/sodipodi-0.dtd"
   xmlns="http://www.w3.org/2000/svg"
   xmlns:svg="http://www.w3.org/2000/svg"><sodipodi:namedview
     id="namedview1"
     pagecolor="#ffffff"
     bordercolor="#000000"
     borderopacity="0.25"
     inkscape:showpageshadow="2"
     inkscape:pageopacity="0.0"
     inkscape:pagecheckerboard="0"
     inkscape:deskcolor="#d1d1d1"
     inkscape:document-units="mm"
     inkscape:zoom="2.9556229"
     inkscape:cx="41.446424"
     inkscape:cy="144.80873"
     inkscape:window-width="2558"
     inkscape:window-height="1360"
     inkscape:window-x="1273"
     inkscape:window-y="0"
     inkscape:window-maximized="0"
     inkscape:current-layer="layer1" /><defs
     id="defs1" /><g
     inkscape:label="Layer 1"
     inkscape:groupmode="layer"
     id="layer1"
     transform="translate(-37.216797,-80.640068)"><path
       style="fill:#000000"
       d="m 62.616796,203.80913 v -12.2976 l 12.567612,-23.73694 12.567613,-23.73693 -1.021742,-1.20557 -1.021742,-1.20557 -11.547828,-0.0689 -11.547829,-0.0689 0.0681,-16.86441 0.0681,-16.8644 20.978914,-0.0677 20.978916,-0.0677 1.7689,-1.18667 1.76891,-1.18667 5.77358,-10.916422 c 4.83126,-9.134706 5.99678,-11.14314 7.14106,-12.305488 l 1.36747,-1.389062 h 12.37831 12.37831 V 92.913547 105.1869 l -12.57475,23.74054 c -10.6129,20.03667 -12.5242,23.80801 -12.25078,24.173 0.17818,0.23785 0.68096,0.81942 1.11728,1.29236 l 0.7933,0.85989 h 11.45943 11.45943 l -0.0681,16.86719 -0.0681,16.86719 -20.97892,0.0677 -20.97891,0.0677 -1.73553,1.16427 -1.73552,1.16428 -5.812393,10.93882 c -4.820409,9.07192 -6.044849,11.17588 -7.174437,12.32788 l -1.362045,1.38906 H 74.995104 62.616796 Z"
       id="path1" /></g></svg>
