<?xml version="1.0" encoding="UTF-8" standalone="no"?>
<!-- Created with Inkscape (http://www.inkscape.org/) -->

<svg
   width="100"
   height="100"
   viewBox="0 0 212 212"
   version="1.1"
   id="svg1"
   xml:space="preserve"
   inkscape:version="1.3.2 (091e20e, 2023-11-25, custom)"
   sodipodi:docname="displate.svg"
   xmlns:inkscape="http://www.inkscape.org/namespaces/inkscape"
   xmlns:sodipodi="http://sodipodi.sourceforge.net/DTD/sodipodi-0.dtd"
   xmlns="http://www.w3.org/2000/svg"
   xmlns:svg="http://www.w3.org/2000/svg"><sodipodi:namedview
     id="namedview1"
     pagecolor="#ffffff"
     bordercolor="#000000"
     borderopacity="0.25"
     inkscape:showpageshadow="2"
     inkscape:pageopacity="0.0"
     inkscape:pagecheckerboard="0"
     inkscape:deskcolor="#d1d1d1"
     inkscape:document-units="px"
     inkscape:zoom="8.359764"
     inkscape:cx="119.44117"
     inkscape:cy="45.455829"
     inkscape:window-width="2558"
     inkscape:window-height="1360"
     inkscape:window-x="1273"
     inkscape:window-y="0"
     inkscape:window-maximized="0"
     inkscape:current-layer="layer1" /><defs
     id="defs1" /><g
     inkscape:label="Layer 1"
     inkscape:groupmode="layer"
     id="layer1"
     transform="translate(133.23132,9.0382195)"><path
       style="fill:#000000"
       d="m -69.069863,202.47575 c -9.42381,-0.90293 -14.90476,-2.01355 -20.077355,-4.06832 -11.055162,-4.39159 -17.664062,-11.0511 -22.208492,-22.37859 -3.71015,-9.24796 -4.37725,-16.30675 -1.91039,-20.2145 0.71897,-1.13892 3.08168,-2.99563 4.35432,-3.42178 1.10053,-0.36853 2.13672,0.1614 2.14233,1.09564 0.007,1.1779 1.53075,4.93593 2.73678,6.75005 7.161671,10.77269 27.925188,15.49355 53.748224,12.22036 26.698624,-3.38418 53.5877003,-14.59678 72.231251,-30.12005 3.511685,-2.92395 10.003923,-9.55929 12.507894,-12.78358 8.173259,-10.5245 13.688864,-24.15279 15.279961,-37.754669 0.499036,-4.266128 0.500114,-11.667281 0.0023,-15.9089 C 47.571698,57.441513 38.343779,41.097884 23.242756,28.967316 12.343825,20.212265 -0.8593773,15.027773 -17.385215,13.013958 c -5.219536,-0.636046 -16.274164,-0.62684 -21.786731,0.01814 -27.906194,3.265085 -51.03537,15.992555 -63.749054,35.079682 -1.99908,3.00123 -5.18083,9.515238 -6.3614,13.023732 -1.64388,4.88536 -2.27584,8.10705 -2.441,12.444225 -0.22479,5.902646 0.57102,9.647939 2.87354,13.52364 4.59632,7.736765 15.776008,12.279017 31.171965,12.665021 l 2.769052,0.06942 0.986596,-4.7625 c 1.865066,-9.003055 3.47463,-19.496049 4.362945,-28.442709 0.630932,-6.354423 0.633333,-18.278381 0.0043,-21.298959 -1.055617,-5.068923 -0.193302,-6.147034 4.701016,-5.87746 7.588517,0.417969 17.561042,5.65599 19.915811,10.460685 0.707677,1.443952 0.7399,1.686832 0.831143,6.264692 0.155186,7.786007 -1.259324,21.93393 -3.531358,35.320629 -0.355546,2.094857 -0.588701,3.866577 -0.518122,3.937156 0.07058,0.07058 1.52567,-0.323021 3.233535,-0.874668 1.707865,-0.551647 4.533959,-1.455323 6.280209,-2.008168 8.951935,-2.834093 15.093959,-4.824882 15.20134,-4.927148 0.06605,-0.0629 -2.373668,-2.610251 -5.421596,-5.660773 -3.047927,-3.050521 -5.474627,-5.546403 -5.392666,-5.546403 0.589303,0 19.884853,-3.182432 20.099361,-3.315005 0.149899,-0.09264 2.323982,-4.269978 4.8312958,-9.282968 l 4.5587528,-9.114528 4.40790993,8.80573 c 2.42435047,4.843151 4.56848617,9.020677 4.76474607,9.283391 0.2784618,0.37275 1.4593968,0.650024 5.3767634,1.262422 5.65549,0.884116 12.767226,2.015434 14.122148,2.246516 l 0.900138,0.153519 -7.183992,7.201442 c -6.199132,6.21419 -7.182821,7.308738 -7.175449,7.984108 0.0047,0.430466 0.696832,5.098681 1.538074,10.373811 0.841242,5.27513 1.497197,9.59114 1.457677,9.59114 -0.03952,0 -4.068671,-2.08359 -8.9536708,-4.6302 -4.88499983,-2.54662 -9.0409905,-4.63021 -9.2355348,-4.63021 -0.1945444,0 -2.4832288,1.11102 -5.0859654,2.46893 -12.499784,6.52146 -13.066624,6.80007 -13.066624,6.42255 0,-0.20941 0.595003,-4.05183 1.322229,-8.53872 0.727225,-4.486881 1.322538,-8.299704 1.322917,-8.472936 4.61e-4,-0.211159 -0.631532,-0.09534 -1.917541,0.351409 -4.315645,1.499217 -25.259115,8.633107 -25.995314,8.854687 -0.436562,0.13139 -0.940641,0.33359 -1.120175,0.44933 -0.181183,0.11681 -0.913481,3.32442 -1.645807,7.20895 -2.363727,12.53811 -4.053411,20.03614 -6.138349,27.23913 -2.318278,8.00913 -5.213957,14.86441 -6.86588,16.25442 -0.945839,0.79587 -1.648591,0.83806 -4.602706,0.27635 -7.579293,-1.44118 -14.198272,-4.42635 -18.447169,-8.31969 l -1.757148,-1.61011 0.935802,-2.04371 c 3.852994,-8.41463 7.008859,-18.12263 9.953491,-30.61872 l 0.623476,-2.64583 -7.428185,-0.0197 c -9.828424,-0.0261 -16.994611,-0.96787 -23.210131,-3.05027 -14.43594,-4.83648 -22.24808,-13.398048 -24.59538,-26.954852 -3.86246,-22.307621 7.91313,-46.035718 31.64557,-63.76656 6.450135,-4.818986 11.671872,-8.04442 18.653632,-11.5222283 14.017268,-6.9823895 27.71892,-10.9562561 43.920835,-12.7382844 5.015013,-0.551595 18.60425,-0.6284055 23.415625,-0.1323523 15.62382368,1.6108175 28.386017,5.3076537 41.406604,11.9942892 20.122281,10.3336628 36.369377,27.1379608 44.29571,45.8148528 3.643461,8.585122 5.722686,16.398544 6.948536,26.111584 0.64117,5.080312 0.633151,16.998125 -0.01487,22.092709 -0.932852,7.333912 -2.124445,12.674482 -4.242797,19.015702 -4.87232,14.58514 -12.360517,26.20765 -25.000118,38.80294 -10.264195,10.22822 -20.973162,18.16356 -35.347236,26.19231 -2.355887,1.31589 -10.59135,5.35385 -14.17424152,6.94981 -16.18710048,7.21038 -33.31775848,11.90771 -49.45805148,13.56171 -3.828088,0.39228 -16.281793,0.72391 -18.653125,0.4967 z"
       id="path1" /></g></svg>
