<?xml version="1.0" encoding="UTF-8" standalone="no"?>
<!-- Created with Inkscape (http://www.inkscape.org/) -->

<svg
   width="100"
   height="100"
   viewBox="0 0 263.48587 263.48587"
   version="1.1"
   id="svg1"
   xml:space="preserve"
   inkscape:version="1.3.2 (091e20e, 2023-11-25, custom)"
   sodipodi:docname="Frameworks.svg"
   xmlns:inkscape="http://www.inkscape.org/namespaces/inkscape"
   xmlns:sodipodi="http://sodipodi.sourceforge.net/DTD/sodipodi-0.dtd"
   xmlns="http://www.w3.org/2000/svg"
   xmlns:svg="http://www.w3.org/2000/svg"><sodipodi:namedview
     id="namedview1"
     pagecolor="#ffffff"
     bordercolor="#000000"
     borderopacity="0.25"
     inkscape:showpageshadow="2"
     inkscape:pageopacity="0.0"
     inkscape:pagecheckerboard="0"
     inkscape:deskcolor="#d1d1d1"
     inkscape:document-units="mm"
     inkscape:zoom="8.3597643"
     inkscape:cx="68.961274"
     inkscape:cy="54.546992"
     inkscape:window-width="2558"
     inkscape:window-height="1360"
     inkscape:window-x="1273"
     inkscape:window-y="0"
     inkscape:window-maximized="0"
     inkscape:current-layer="layer1" /><defs
     id="defs1" /><g
     inkscape:label="Layer 1"
     inkscape:groupmode="layer"
     id="layer1"
     transform="translate(113.69173,22.034435)"><path
       style="fill:#000000;stroke-width:1.99456"
       d="m 93.137931,206.61219 c -0.267758,-0.18124 -0.934404,-1.59314 -1.481438,-3.13724 -0.960779,-2.71195 -1.072405,-2.82075 -3.281564,-3.19785 -2.25205,-0.38448 -2.318708,-0.35433 -4.369779,1.97655 l -2.082827,2.36697 -3.256785,-1.644 -3.256785,-1.64404 0.346866,-2.61481 c 0.190791,-1.43817 0.391374,-2.82554 0.445769,-3.08307 0.05439,-0.25753 -0.768367,-1.18295 -1.828358,-2.05651 l -1.927259,-1.58822 -2.849889,0.89836 c -2.181917,0.68776 -3.017306,0.75936 -3.564181,0.3055 -0.943084,-0.78268 -3.325731,-4.87019 -3.325731,-5.7054 0,-0.36107 0.850018,-1.52701 1.88893,-2.59094 l 1.888929,-1.93444 -0.757996,-2.44082 c -0.737636,-2.37523 -0.83135,-2.4571 -3.488877,-3.04724 -1.501982,-0.33353 -2.905627,-0.7983 -3.119206,-1.0328 -0.213582,-0.23453 -0.511298,-1.8777 -0.661594,-3.65151 -0.30913,-3.64841 0.02166,-4.07573 4.073327,-5.2617 2.004237,-0.58665 2.152724,-0.76237 2.478141,-2.93239 0.330028,-2.2008 0.248606,-2.40774 -1.747237,-4.44135 -1.151368,-1.17318 -2.093398,-2.42053 -2.093398,-2.7719 0,-1.09716 2.569654,-5.76871 3.334626,-6.06225 0.400369,-0.15354 1.934428,-0.0205 3.409021,0.29567 l 2.681074,0.57496 1.778703,-1.83125 1.778699,-1.83126 -0.812543,-2.91928 c -0.949805,-3.41247 -0.834014,-3.64285 2.90414,-5.77777 l 2.5558,-1.45968 2.426066,2.03121 c 2.40353,2.01234 2.447276,2.02553 4.708982,1.42062 2.258582,-0.60406 2.290499,-0.6438 2.994724,-3.72927 l 0.711832,-3.11869 h 3.804694 3.804695 l 0.965058,2.89515 c 0.953988,2.86199 0.992288,2.89923 3.34363,3.25185 2.29889,0.34473 2.44545,0.2864 4.37445,-1.7409 1.09774,-1.1537 2.20424,-2.09763 2.45892,-2.09763 0.25468,0 1.76195,0.63482 3.34948,1.41073 l 2.88642,1.41072 -0.31702,2.714 c -0.17434,1.49268 -0.3716,2.95496 -0.43832,3.24951 -0.0667,0.29453 0.74593,1.25023 1.80592,2.12376 l 1.92726,1.58828 2.73477,-0.86208 c 1.50413,-0.47413 2.88148,-0.86207 3.06079,-0.86207 0.54643,0 3.94529,5.31949 3.92894,6.14909 -0.008,0.42698 -0.89005,1.7882 -1.95915,3.02491 l -1.94385,2.24857 0.72637,2.20635 c 0.7087,2.15273 0.80307,2.22285 3.88287,2.88473 l 3.15652,0.67838 0.29015,3.3311 c 0.15958,1.83207 0.19597,3.61083 0.0808,3.95277 -0.21571,0.64077 -0.44133,0.73371 -4.03023,1.65986 -1.96787,0.50783 -2.16432,0.72197 -2.73392,2.98023 l -0.61369,2.4331 2.47744,2.16198 2.47742,2.16198 -1.72321,3.3527 c -0.94776,1.84398 -2.02667,3.35269 -2.39758,3.35269 -0.37091,0 -1.85777,-0.27316 -3.30415,-0.60702 l -2.62977,-0.60702 -1.78421,1.78421 -1.78419,1.78419 0.78388,2.22178 c 1.28501,3.64211 1.09019,4.25531 -1.93426,6.08835 -1.49498,0.90603 -2.92903,1.64736 -3.18679,1.64736 -0.25775,0 -1.40176,-0.9158 -2.54223,-2.03507 l -2.07358,-2.03508 -2.30628,0.67641 c -2.21871,0.65073 -2.33215,0.78155 -2.98789,3.44581 -0.37489,1.52316 -0.83658,2.91386 -1.02599,3.09042 -0.50145,0.46749 -6.530841,0.9103 -7.104413,0.52174 z m 9.671349,-18.629 c 3.88631,-1.81426 7.08545,-4.86034 9.20023,-8.7601 1.66297,-3.06659 1.73927,-3.44359 1.73927,-8.59369 0,-4.86407 -0.13963,-5.67086 -1.43992,-8.31909 -1.89182,-3.85306 -5.06791,-7.05171 -8.84179,-8.90466 -2.78903,-1.36939 -3.526827,-1.50052 -8.442526,-1.50052 -5.057434,0 -5.577197,0.0997 -8.509609,1.6327 -6.666333,3.48494 -10.578709,9.80289 -10.583931,17.09157 -0.0058,8.15939 4.29042,14.62282 11.820101,17.78255 4.132524,1.73414 10.833777,1.54331 15.058175,-0.42876 z m -131.770563,6.11562 c -0.643051,-0.70937 -1.594498,-3.42793 -2.468648,-7.05363 -0.782285,-3.24469 -1.58614,-6.21183 -1.786345,-6.59362 -0.200206,-0.38181 -3.342512,-1.46148 -6.982899,-2.3993 l -6.618889,-1.7051 -5.129932,5.35672 c -3.030903,3.16491 -5.529978,5.35357 -6.107632,5.349 -1.648034,-0.0137 -14.743922,-7.82849 -15.35416,-9.16318 -0.437866,-0.95768 -0.18997,-2.61106 1.211395,-8.07988 l 1.76191,-6.8758 -4.863069,-4.90274 c -5.559513,-5.60489 -4.464527,-5.37333 -13.152734,-2.78154 -5.47723,1.63391 -5.781411,1.67056 -7.036544,0.84816 -1.31585,-0.86217 -4.60351,-6.0701 -7.55185,-11.96274 -1.97267,-3.94263 -1.88481,-4.13759 4.46252,-9.90322 l 4.669145,-4.24126 -1.226962,-4.17606 c -0.674826,-2.29686 -1.470952,-5.28775 -1.769162,-6.64647 -0.630731,-2.87372 -0.721299,-2.92653 -7.624651,-4.44681 -5.96315,-1.31322 -7.58937,-1.93047 -8.2275,-3.1228 -0.27136,-0.50705 -0.49338,-4.59487 -0.49338,-9.08402 0,-7.473657 0.0854,-8.239352 1.01224,-9.07817 0.57048,-0.516272 3.96448,-1.615568 7.77706,-2.518952 l 6.764826,-1.602911 1.447917,-5.383688 c 0.796355,-2.961029 1.603221,-6.053621 1.793032,-6.87242 0.319387,-1.377743 -0.0433,-1.855824 -4.864797,-6.412415 -3.340708,-3.157172 -5.209818,-5.304536 -5.209658,-5.985211 3.7e-4,-1.509551 7.336409,-14.134981 8.888431,-15.297123 1.283412,-0.961006 1.349329,-0.953616 8.129955,0.911279 l 6.836055,1.880139 5.107727,-4.932925 5.107729,-4.932928 -1.754925,-6.848545 c -1.360091,-5.307723 -1.643637,-7.159606 -1.260281,-8.231123 0.376228,-1.051591 2.091166,-2.285351 7.163557,-5.153607 3.977427,-2.249096 7.266507,-3.773952 8.149625,-3.778267 1.20649,-0.0061 2.394049,0.937477 6.412413,5.093868 l 4.9317,5.101096 6.656426,-1.71554 6.656426,-1.715541 0.679284,-2.744316 c 1.974069,-7.975261 2.924791,-10.94036 3.783094,-11.798663 0.844503,-0.8445026 1.855529,-0.9490187 9.180227,-0.9490187 10.2622692,0 9.8796348,-0.2704978 11.9733273,8.4643857 0.8115435,3.385755 1.680508,6.415671 1.9310315,6.733143 0.2505248,0.317475 1.3379172,0.71833 2.4164231,0.89079 1.0785101,0.172469 3.98853485,0.901143 6.4667264,1.619295 l 4.5057995,1.305729 4.8546882,-5.146229 c 4.100022,-4.346248 5.099316,-5.146231 6.428382,-5.146231 2.376462,0 15.19898,7.511391 15.608605,9.143476 0.176606,0.703579 -0.412431,4.239311 -1.355483,8.136658 l -1.66778,6.892391 4.802325,4.561162 c 2.641278,2.508638 5.200393,4.572343 5.686924,4.586014 0.486528,0.01385 3.521311,-0.698722 6.743958,-1.583094 3.548569,-0.973806 6.366964,-1.480541 7.146467,-1.284899 0.959884,0.240916 2.065647,1.660437 4.349483,5.583641 3.706077,6.366353 5.240717,9.360997 5.248546,10.241849 0.0031,0.363916 -2.413747,2.970142 -5.371066,5.791608 l -5.376944,5.129932 0.957569,2.868512 c 0.526663,1.57769 1.350257,4.633585 1.830211,6.790876 0.995803,4.475945 -0.0283,3.841121 9.676112,5.998114 7.204002,1.601226 7.002631,1.272405 6.982807,11.402879 -0.0125,6.41894 -0.185192,8.55925 -0.750631,9.30614 -0.508885,0.6722 -2.880739,1.48733 -7.725989,2.6551 -3.845421,0.92684 -7.052621,1.75998 -7.127113,1.85149 -0.07449,0.0915 -0.968381,3.05193 -1.986427,6.57875 l -1.850988,6.4124 4.807874,4.69032 c 2.644333,2.57967 5.074338,5.18818 5.400009,5.79671 0.510671,0.95419 0.190537,1.86156 -2.326981,6.59554 -4.358208,8.19526 -5.36831,9.5662 -7.180292,9.74554 -0.84724,0.0837 -4.418359,-0.64084 -7.935821,-1.61042 l -6.395382,-1.76288 -4.942426,4.88431 -4.942422,4.88431 1.510551,5.44699 c 2.117901,7.63708 2.291123,9.10635 1.213929,10.29665 -1.547475,1.70994 -13.370457,8.23068 -14.952849,8.24695 -1.22505,0.0122 -2.336127,-0.88824 -6.357905,-5.1548 l -4.8734349,-5.17005 -6.66890805,1.67842 c -3.66790115,0.92311 -6.80599115,1.87071 -6.97353195,2.10569 -0.167534,0.23502 -0.9504071,3.24219 -1.7397028,6.68259 -2.0400797,8.89237 -1.5870431,8.56377 -11.8064923,8.56377 -7.940401,0 -8.329128,-0.0479 -9.331855,-1.15425 z M -9.1186512,158.54459 C 2.3287407,156.37307 13.594618,150.14184 21.800782,141.44286 43.070152,118.89622 42.698807,84.728587 20.94459,62.663655 9.8813546,51.442395 -4.2216257,45.459059 -19.607358,45.459059 c -26.499411,0 -48.704585,17.219141 -55.798242,43.26909 -0.982832,3.609257 -1.140177,5.484041 -1.14753,13.673151 -0.008,8.79629 0.09461,9.86067 1.401476,14.55382 5.966592,21.4267 23.526802,37.79348 44.664284,41.62882 5.228603,0.9487 16.267246,0.92838 21.3687188,-0.0393 z M -50.665512,102.65779 V 72.647694 h 30.779587 30.779588 V 102.65779 132.6679 H -19.885925 -50.665512 Z M 71.426854,57.257899 v -4.616938 h 38.474486 38.47448 v 4.616938 4.616945 H 109.90134 71.426854 Z M 71.300736,46.100297 c -0.187299,-0.386051 -0.181016,-2.60228 0.01892,-6.672175 l 0.107253,-2.183485 38.346241,0.131522 38.34623,0.131523 0.14823,4.48869 0.14821,4.488691 h -38.46424 c -21.155299,0 -38.548178,-0.173134 -38.650845,-0.384744 z M 45.905441,34.386387 c -1.879658,-0.822016 -1.834989,-0.731133 -1.191408,-2.423875 0.703443,-1.850199 -1.499032,-4.971209 -3.508147,-4.971209 -1.220731,0 -1.508238,-0.25937 -1.776984,-1.603102 -0.513794,-2.568972 -0.404108,-2.884364 1.19725,-3.442599 2.110608,-0.735764 3.432672,-3.794947 2.32405,-5.377725 -1.039133,-1.483573 -1.008622,-1.580022 0.97954,-3.096467 l 1.743503,-1.329836 1.287123,1.012451 c 1.935299,1.522308 4.91592,1.357055 6.275424,-0.347927 0.829213,-1.039927 1.377529,-1.286856 2.327742,-1.048266 2.335241,0.586365 3.071504,1.483952 2.606926,3.178134 -0.624139,2.276067 1.135872,4.858443 3.317148,4.867084 1.383129,0.0054 1.647097,0.226325 1.923724,1.609452 0.579376,2.896881 0.409753,3.425733 -1.213084,3.782168 -2.081905,0.457261 -3.421944,3.164895 -2.655075,5.364739 0.488814,1.402209 0.395172,1.646066 -1.073441,2.795426 -1.645534,1.287829 -2.585388,1.206241 -3.864924,-0.335505 -0.914452,-1.101847 -4.113165,-0.497825 -5.066181,0.956661 -0.908978,1.387273 -1.298736,1.4313 -3.633186,0.410396 z m 9.233877,-7.401902 c 3.865403,-4.242472 -0.704288,-10.714879 -6.002141,-8.501295 -4.063956,1.698031 -4.237623,7.660337 -0.282025,9.682474 2.341253,1.19687 4.484518,0.794018 6.284166,-1.181179 z M 71.42685,26.789949 v -4.305301 l 8.849129,-0.285164 c 4.867025,-0.156843 22.122831,-0.239368 38.346251,-0.183396 l 29.49709,0.101779 0.14823,4.488688 0.14822,4.488693 H 109.92131 71.42685 Z"
       id="path1" /></g></svg>
