<?xml version="1.0" encoding="UTF-8" standalone="no"?>
<!-- Created with Inkscape (http://www.inkscape.org/) -->

<svg
   width="100"
   height="100"
   viewBox="0 0 263.48587 263.48587"
   version="1.1"
   id="svg1"
   xml:space="preserve"
   inkscape:version="1.3.2 (091e20e, 2023-11-25, custom)"
   sodipodi:docname="GameEngine.svg"
   xmlns:inkscape="http://www.inkscape.org/namespaces/inkscape"
   xmlns:sodipodi="http://sodipodi.sourceforge.net/DTD/sodipodi-0.dtd"
   xmlns="http://www.w3.org/2000/svg"
   xmlns:svg="http://www.w3.org/2000/svg"><sodipodi:namedview
     id="namedview1"
     pagecolor="#ffffff"
     bordercolor="#000000"
     borderopacity="0.25"
     inkscape:showpageshadow="2"
     inkscape:pageopacity="0.0"
     inkscape:pagecheckerboard="0"
     inkscape:deskcolor="#d1d1d1"
     inkscape:document-units="mm"
     inkscape:zoom="5.911246"
     inkscape:cx="108.35279"
     inkscape:cy="69.697658"
     inkscape:window-width="2558"
     inkscape:window-height="1360"
     inkscape:window-x="1273"
     inkscape:window-y="0"
     inkscape:window-maximized="0"
     inkscape:current-layer="layer1" /><defs
     id="defs1" /><g
     inkscape:label="Layer 1"
     inkscape:groupmode="layer"
     id="layer1"
     transform="translate(124.57919,7.6022096)"><path
       style="fill:#000000;stroke-width:1.6013"
       d="m -86.562037,254.94305 c -3.593056,-0.9663 -7.058432,-3.03571 -9.930099,-5.92994 -5.769054,-5.8144 -7.278364,-12.24728 -5.371874,-22.89569 0.44304,-2.47454 2.120532,-12.28269 3.727758,-21.79589 5.072935,-30.02678 8.251096,-48.1007 8.907242,-50.65468 1.499013,-5.83476 5.023325,-11.64369 9.88472,-16.29242 3.592756,-3.43559 5.87148,-4.97973 10.630783,-7.20377 3.792625,-1.7723 3.818695,-1.79475 4.045302,-3.48423 0.32883,-2.4516 1.89779,-4.55167 4.461212,-5.97134 l 2.220654,-1.22987 h 8.854275 8.854273 l 2.358067,1.15797 c 2.480068,1.21785 3.822372,2.70545 4.672277,5.17803 l 0.511725,1.48872 18.364651,0.10712 18.3646529,0.10712 V 95.809282 c 0,-17.762562 -0.1579689,-31.7149 -0.3590753,-31.7149 -0.1974919,0 -7.749364,4.193191 -16.7819396,9.31819 -9.032574,5.125012 -17.300473,9.804394 -18.373106,10.398628 -1.072634,0.594235 -1.952913,1.187916 -1.956177,1.31929 -0.005,0.199361 22.528521,12.994666 28.9214288,16.42262 l 1.9527125,1.04706 0.00344,3.81891 0.00344,3.81888 -0.9266106,-0.57981 C -4.0318918,109.33942 -10.008527,105.9748 -16.803668,102.1814 -38.622782,90.000821 -42.980689,87.464837 -43.591473,86.592801 c -0.510985,-0.72952 -0.598671,-5.459708 -0.598671,-32.294898 0,-20.322897 0.146679,-31.714248 0.414802,-32.215248 0.228141,-0.426284 2.313014,-1.83681 4.63305,-3.134499 2.320037,-1.297689 13.439584,-7.60832 24.710107,-14.0236236 13.5834485,-7.731847 20.8862911,-11.6641875 21.6618348,-11.6641875 0.7666481,0 6.8346682,3.2114016 17.6021132,9.3156377 9.037675,5.1236023 20.154806,11.4237754 24.704738,14.0003854 5.928167,3.357103 8.408269,4.982505 8.751318,5.735414 0.350302,0.768833 0.478714,9.43506 0.478714,32.307155 V 85.87542 l -0.926608,1.034034 c -0.509637,0.568703 -5.003697,3.293422 -9.986799,6.054914 C 39.97828,97.3284 24.22103,106.19644 18.922299,109.24639 l -1.750262,1.00746 0.01009,-3.82675 0.01009,-3.82677 5.446543,-3.027917 C 36.000999,92.143838 48.036602,85.286572 48.04418,85.097702 48.048608,84.984431 41.799275,81.376262 34.156514,77.079516 26.513898,72.78277 18.083197,68.028268 15.421765,66.51397 l -4.838963,-2.75328 v 31.877579 31.877591 h 18.33922 c 17.103143,0 18.354823,-0.0486 18.570806,-0.72071 1.049361,-3.26555 2.617819,-5.10137 5.508132,-6.44708 1.700391,-0.79169 2.583401,-0.86285 10.707494,-0.86285 h 8.854275 l 2.220655,1.22987 c 2.495955,1.38231 3.889819,3.2163 4.588652,6.03752 0.448324,1.80991 0.595821,1.96024 2.721456,2.77368 9.124689,3.49183 17.799231,12.47248 20.930948,21.6696 1.05278,3.09175 0.81149,1.77021 8.83509,48.38965 2.04663,11.89149 4.09459,23.7521 4.55103,26.35689 1.91666,10.93783 0.46172,17.22131 -5.34203,23.07068 -4.41036,4.44502 -9.53162,6.58085 -15.779454,6.58085 -5.625842,0 -10.628257,-1.81971 -14.784261,-5.378 -1.354673,-1.15983 -4.746416,-5.8647 -11.218077,-15.56117 l -9.276321,-13.89867 -2.216074,2.09562 c -6.713605,6.34865 -16.615976,7.79804 -25.178805,3.68538 -5.227342,-2.51067 -8.939117,-6.68421 -10.784219,-12.12583 l -0.907653,-2.67686 -13.5774667,-0.10835 -13.5774668,-0.10848 -0.8948628,2.68907 c -4.9459827,14.86268 -23.9440037,19.52292 -35.9531317,8.81935 -1.249846,-1.11397 -2.35171,-2.0254 -2.448589,-2.0254 -0.09688,0 -4.144263,5.97664 -8.99419,13.28142 -5.00673,7.54095 -9.715124,14.1714 -10.893572,15.34055 -2.421755,2.40262 -6.053611,4.45033 -9.472734,5.34089 -3.003328,0.78227 -8.726386,0.77231 -11.67369,-0.0203 z m 64.05373,-36.20875 c 2.613809,-1.16428 5.036925,-3.53166 6.354127,-6.20797 0.820766,-1.66765 0.996794,-2.64853 0.992042,-5.52792 -0.0049,-2.98725 -0.165774,-3.80245 -1.096943,-5.55966 -1.307268,-2.46694 -3.577919,-4.70917 -6.104247,-6.02783 -1.544695,-0.80628 -2.47027,-0.96733 -5.559661,-0.96733 -4.156835,0 -5.879211,0.64993 -8.860566,3.34341 -3.880177,3.50548 -5.097198,9.77503 -2.82734,14.56515 3.098571,6.53898 10.527149,9.3111 17.102588,6.38215 z m 68.944406,0.58177 c 2.10683,-0.52336 5.100415,-2.6312 6.564695,-4.62231 4.600221,-6.25531 2.339401,-15.48349 -4.685043,-19.1233 -2.918743,-1.51237 -8.093254,-1.59794 -11.170118,-0.18469 -2.600385,1.19438 -4.909075,3.40898 -6.310162,6.05298 -0.933253,1.76113 -1.091165,2.56572 -1.091165,5.55966 0,2.98691 0.159297,3.80265 1.085725,5.55966 3.140651,5.95641 8.861052,8.43356 15.606068,6.758 z M 67.400703,186.2085 c 3.389039,-1.75254 4.786004,-6.87867 2.804445,-10.29083 -2.837992,-4.8869 -9.384061,-5.16499 -12.806842,-0.54405 -1.00588,1.358 -1.386083,5.01468 -0.728556,7.00702 1.313764,3.98074 6.711749,5.90627 10.730953,3.82786 z M -44.41661,183.95882 c 0.607461,-0.67124 0.718629,-1.55489 0.686472,-5.4567 l -0.03837,-4.65577 -2.926324,-2.77983 c -1.609476,-1.5289 -3.114012,-2.77982 -3.34341,-2.77982 -0.229397,0 -1.787251,1.32857 -3.461895,2.95237 l -3.044808,2.95239 v 4.4605 c 0,6.08947 0.0196,6.1078 6.525399,6.1078 4.308969,0 4.96266,-0.0935 5.602938,-0.80094 z m 95.947258,-13.76755 c 3.551281,-1.92005 4.653349,-7.43218 2.143786,-10.72239 -2.233689,-2.92852 -5.842514,-3.85756 -9.115921,-2.34678 -6.559851,3.02755 -5.494255,12.45021 1.588908,14.05005 1.724112,0.38943 3.420428,0.0804 5.383227,-0.98088 z m 32.214804,-0.0763 c 3.099932,-1.79951 4.269245,-5.94837 2.66259,-9.44717 -2.164339,-4.71325 -7.94444,-5.73759 -11.928264,-2.11391 -3.165293,2.87916 -2.905751,8.57198 0.508911,11.16246 2.695837,2.04514 5.685915,2.18125 8.756763,0.39862 z M -57.347245,167.6147 c 1.573788,-1.61533 2.861434,-3.20558 2.861434,-3.53387 0,-0.3283 -1.370165,-1.92546 -3.044808,-3.54928 l -3.044809,-2.95238 h -4.386792 c -4.148395,0 -4.44363,0.0568 -5.432678,1.04588 -1.018117,1.01812 -1.042221,1.17218 -0.90789,5.80281 0.129881,4.47728 0.197627,4.80516 1.15235,5.57746 0.901098,0.7289 1.512736,0.8052 5.478057,0.68345 l 4.463702,-0.13707 z m 27.673993,1.82813 c 0.590118,-0.6842 0.720697,-1.63985 0.720697,-5.27444 0,-6.17088 0.0038,-6.16708 -6.296665,-6.28921 l -4.855272,-0.0942 -2.660565,2.73469 c -1.537795,1.58063 -2.660566,3.09497 -2.660566,3.58843 0,0.47631 1.103157,2.03298 2.495479,3.52139 2.802545,2.99593 2.835894,3.00645 8.829754,2.78547 3.109571,-0.11462 3.822498,-0.27121 4.427138,-0.97223 z m 30.59685211,-1.34334 c 1.29269009,-1.29268 1.34323139,-3.31826 0.11541059,-4.62523 -0.85620811,-0.91139 -1.15727195,-0.95316 -6.8715544,-0.95316 -5.5690183,0 -6.0410433,0.061 -6.9292673,0.89546 -1.060859,0.99661 -1.280946,3.06635 -0.43837,4.12247 1.043348,1.30778 2.212394,1.54637 7.6375142,1.55878 5.27235098,0.0128 5.51291401,-0.025 6.4862706,-0.99832 z m 26.35690889,0 c 0.637195,-0.6372 1.010849,-1.48137 1.010849,-2.28376 0,-0.8024 -0.373654,-1.64658 -1.010849,-2.28378 -0.977731,-0.97773 -1.201222,-1.01085 -6.822213,-1.01085 -3.196252,0 -6.150335,0.18142 -6.56463,0.40314 -1.816493,0.97216 -1.654071,4.61042 0.255378,5.72043 0.435452,0.25315 3.175257,0.44595 6.439282,0.45314 5.49093,0.0128 5.715216,-0.0213 6.692183,-0.99832 z m -73.848991,-11.22997 2.790165,-2.76878 v -4.79958 c 0,-3.96045 -0.118977,-4.89839 -0.680507,-5.36478 -0.491618,-0.40833 -2.022557,-0.56521 -5.515523,-0.56521 -6.568118,0 -6.570598,0.001 -6.570598,6.19134 v 4.6223 l 2.890506,2.72675 c 1.589779,1.49972 3.206695,2.72676 3.593149,2.72676 0.386451,0 1.958217,-1.24596 3.492808,-2.7688 z M 66.71386,154.96366 c 1.813154,-0.75758 3.895734,-3.22822 4.231976,-5.02056 1.383335,-7.37381 -6.987155,-12.31119 -12.319026,-7.26644 -1.723453,1.63066 -2.331488,3.06987 -2.329126,5.51301 0.0052,5.36727 5.39455,8.87216 10.416176,6.77399 z M -24.237741,72.151763 C -17.657449,68.449349 -8.6597942,63.381387 -4.2429528,60.88961 L 3.7876679,56.359103 3.9106914,54.522395 4.0337162,52.685686 -1.2371417,49.677935 C -4.1361144,48.023671 -13.272253,42.877256 -21.539675,38.241454 c -8.267421,-4.635801 -15.263328,-8.6142 -15.546459,-8.840884 -0.410708,-0.328829 -0.514783,4.685765 -0.514783,24.803762 0,23.554919 0.04607,25.198229 0.699504,24.947496 0.384727,-0.147645 6.083379,-3.297664 12.663672,-7.000065 z M 52.177306,54.372551 c 0,-23.401326 -0.04407,-24.942669 -0.705812,-24.688733 -0.750194,0.287878 -15.994769,8.805335 -31.540789,17.622487 l -9.390219,5.325799 0.124118,1.917149 0.124118,1.917148 12.354802,6.934508 c 25.82251,14.493664 28.414022,15.931217 28.719682,15.931217 0.172756,0 0.3141,-11.231813 0.3141,-24.959575 z M 3.8029761,2.4044778 C 3.6940345,2.2955239 0.68086268,3.8704769 -2.8929485,5.9043556 -6.4667598,7.9382367 -14.903676,12.735961 -21.641652,16.565965 c -6.737974,3.830003 -12.245058,7.056303 -12.237962,7.169556 0.007,0.113258 4.196746,2.522439 9.310336,5.353748 5.113589,2.831309 13.585825,7.567907 18.827191,10.525776 L 3.7876679,44.992987 3.8943711,23.797775 C 3.9530603,12.140409 3.9119336,2.5134255 3.8029798,2.4044778 Z M 29.732751,34.240647 C 39.698958,28.643182 47.982728,23.943325 48.14113,23.796523 48.299531,23.649719 46.538973,22.444733 44.228777,21.118774 33.704156,15.078074 11.029726,2.3205308 10.817996,2.3205308 c -0.129354,0 -0.235188,9.6594382 -0.235188,21.4654152 0,17.120051 0.104207,21.381051 0.514784,21.048662 0.283131,-0.229212 8.668952,-4.996495 18.635159,-10.593961 z"
       id="path1" /></g></svg>
