<?xml version="1.0" encoding="UTF-8" standalone="no"?>
<!-- Created with Inkscape (http://www.inkscape.org/) -->

<svg
   width="100"
   height="100"
   viewBox="0 0 147.16097 147.16097"
   version="1.1"
   id="svg1"
   xml:space="preserve"
   inkscape:version="1.3.2 (091e20e, 2023-11-25, custom)"
   sodipodi:docname="github.svg"
   xmlns:inkscape="http://www.inkscape.org/namespaces/inkscape"
   xmlns:sodipodi="http://sodipodi.sourceforge.net/DTD/sodipodi-0.dtd"
   xmlns="http://www.w3.org/2000/svg"
   xmlns:svg="http://www.w3.org/2000/svg"><sodipodi:namedview
     id="namedview1"
     pagecolor="#ffffff"
     bordercolor="#000000"
     borderopacity="0.25"
     inkscape:showpageshadow="2"
     inkscape:pageopacity="0.0"
     inkscape:pagecheckerboard="0"
     inkscape:deskcolor="#d1d1d1"
     inkscape:document-units="mm"
     inkscape:zoom="5.911246"
     inkscape:cx="61.831296"
     inkscape:cy="49.2282"
     inkscape:window-width="2558"
     inkscape:window-height="1360"
     inkscape:window-x="1273"
     inkscape:window-y="0"
     inkscape:window-maximized="0"
     inkscape:current-layer="layer1" /><defs
     id="defs1" /><g
     inkscape:label="Layer 1"
     inkscape:groupmode="layer"
     id="layer1"
     transform="translate(-37.216797,-80.640068)"><path
       style="fill:#000000"
       d="m 84.282467,223.51178 c -10.417423,-3.96682 -20.024944,-10.40631 -27.751771,-18.60074 -2.858973,-3.03199 -4.749206,-5.45076 -7.593838,-9.71718 -15.624499,-23.43382 -15.626388,-54.74664 -0.0047,-78.19788 2.984175,-4.47984 5.375476,-7.37549 9.443168,-11.43483 11.031811,-11.009154 23.967472,-17.680664 39.899599,-20.578034 3.863255,-0.70256 4.745545,-0.75667 12.338845,-0.75667 7.59331,0 8.4756,0.0541 12.33885,0.75667 8.15242,1.48257 15.03815,3.77901 21.72574,7.24566 21.06216,10.918024 35.12724,30.561284 38.72616,54.084844 0.61699,4.03282 0.69852,14.57875 0.14309,18.50827 -2.2512,15.92673 -8.70414,29.40473 -19.41694,40.55544 -4.03965,4.20478 -7.63216,7.2081 -12.46836,10.42348 -5.99284,3.98438 -15.61387,8.43528 -18.9776,8.77944 -1.50579,0.15407 -2.90191,-0.42273 -3.48242,-1.43874 -0.2757,-0.48255 -0.40913,-3.82415 -0.5355,-13.41195 -0.14452,-10.96383 -0.23905,-13.01015 -0.6686,-14.47291 -0.67135,-2.28613 -1.9793,-4.82024 -3.16573,-6.13347 l -0.97283,-1.07681 3.95437,-0.63565 c 7.61213,-1.22362 14.00089,-3.72551 18.43085,-7.21767 5.11877,-4.03516 8.70828,-10.37038 10.13559,-17.88856 0.69022,-3.63563 1.01848,-9.77188 0.69296,-12.95368 -0.33376,-3.26233 -1.35074,-6.95912 -2.5956,-9.4352 -0.98806,-1.9653 -3.42225,-5.60866 -4.24426,-6.35256 -0.50968,-0.46126 -0.50825,-0.53129 0.0463,-2.25602 0.39269,-1.2213 0.61859,-2.91543 0.7197,-5.39756 0.162,-3.97657 -0.11926,-6.19596 -1.23131,-9.71622 -0.64971,-2.05669 -0.77595,-2.2478 -1.59278,-2.41117 -3.10662,-0.62132 -10.52338,2.02341 -17.02326,6.0703 l -2.27409,1.41587 -1.48283,-0.38722 c -2.78727,-0.72786 -8.02663,-1.50608 -12.38209,-1.83917 -6.45204,-0.49342 -15.44724,0.29069 -21.271171,1.85421 l -1.519922,0.40804 -2.231292,-1.38389 c -6.52231,-4.04527 -14.131997,-6.75687 -17.225682,-6.13814 -0.816831,0.16337 -0.943073,0.35448 -1.592782,2.41117 -1.113714,3.52553 -1.3936,5.73852 -1.228847,9.71622 0.105687,2.55163 0.3201,4.11468 0.727672,5.30463 l 0.577835,1.68706 -1.820203,2.38559 c -2.134509,2.79753 -3.53287,5.57987 -4.604526,9.16169 -0.650901,2.17552 -0.794575,3.29041 -0.911585,7.07381 -0.27394,8.85752 1.309115,16.02222 4.855011,21.97315 2.173195,3.64718 6.923533,7.86387 11.38016,10.10171 3.65688,1.83625 10.261357,3.66258 15.202218,4.20383 l 1.809836,0.19826 -0.714509,0.7502 c -1.336516,1.40326 -2.71557,4.07975 -3.361061,6.5232 -0.607359,2.2991 -0.702132,2.46175 -1.6722,2.86977 -3.406471,1.4328 -8.648346,1.7425 -11.756427,0.69458 -3.518162,-1.18618 -5.863572,-3.15697 -8.475669,-7.12188 -2.643309,-4.01229 -6.367239,-6.65546 -10.27597,-7.29368 -1.389982,-0.22696 -2.058222,-0.20497 -2.945635,0.097 -2.153612,0.73272 -1.576781,2.07702 1.901797,4.43213 2.951841,1.9985 4.800155,4.3769 7.204114,9.27021 1.641422,3.34116 2.378525,4.50051 3.859484,6.07041 3.083901,3.2691 7.093618,4.99079 12.42968,5.33705 2.398033,0.15561 6.865002,-0.18897 8.393287,-0.64746 0.468553,-0.14057 0.502162,0.31349 0.502162,6.78418 v 6.93483 l -0.97563,0.97563 c -0.870001,0.87001 -1.141838,0.97467 -2.510812,0.96673 -1.075007,-0.006 -2.417914,-0.34504 -4.480048,-1.13028 z"
       id="path1" /></g></svg>
