<?xml version="1.0" encoding="UTF-8" standalone="no"?>
<!-- Created with Inkscape (http://www.inkscape.org/) -->

<svg
   width="100"
   height="100"
   viewBox="0 0 263.48587 263.48587"
   version="1.1"
   id="svg1"
   xml:space="preserve"
   inkscape:version="1.3.2 (091e20e, 2023-11-25, custom)"
   sodipodi:docname="Image_Post_Production.svg"
   xmlns:inkscape="http://www.inkscape.org/namespaces/inkscape"
   xmlns:sodipodi="http://sodipodi.sourceforge.net/DTD/sodipodi-0.dtd"
   xmlns="http://www.w3.org/2000/svg"
   xmlns:svg="http://www.w3.org/2000/svg"><sodipodi:namedview
     id="namedview1"
     pagecolor="#ffffff"
     bordercolor="#000000"
     borderopacity="0.25"
     inkscape:showpageshadow="2"
     inkscape:pageopacity="0.0"
     inkscape:pagecheckerboard="0"
     inkscape:deskcolor="#d1d1d1"
     inkscape:document-units="mm"
     inkscape:zoom="11.822492"
     inkscape:cx="52.907627"
     inkscape:cy="50.15863"
     inkscape:window-width="2558"
     inkscape:window-height="1360"
     inkscape:window-x="1273"
     inkscape:window-y="0"
     inkscape:window-maximized="0"
     inkscape:current-layer="layer1" /><defs
     id="defs1" /><g
     inkscape:label="Layer 1"
     inkscape:groupmode="layer"
     id="layer1"
     transform="translate(30.516531,-12.906742)"><path
       style="fill:#000000;stroke-width:1.56469"
       d="m 34.181399,230.83502 c -2.27955,-0.99144 -2.541106,-2.08788 -2.541106,-10.65216 v -7.65944 l 1.174221,-1.31417 c 1.038892,-1.16273 1.413719,-1.3142 3.252292,-1.3142 1.838572,0 2.213401,0.15147 3.252293,1.3142 l 1.174221,1.31417 v 7.65944 c 0,8.45568 -0.238694,9.51241 -2.40129,10.63073 -1.437165,0.74318 -2.241033,0.74758 -3.910631,0.0215 z m -57.515148,-6.24397 c -2.663108,-1.07602 -3.393627,-4.70786 -1.39658,-6.94325 l 1.174065,-1.31417 25.3850212,-0.1094 25.3850198,-0.10939 v 4.4353 4.43532 l -24.8488407,-0.0255 c -13.6668633,-0.014 -25.2312723,-0.18004 -25.6986853,-0.3689 z m 68.253584,-4.0547 v -4.44911 l 8.484411,0.12314 8.48441,0.12314 1.173439,1.31417 c 1.286599,1.44092 1.535454,3.28597 0.692684,5.13564 -0.9025,1.98077 -1.984246,2.202 -10.766752,2.202 H 44.919835 Z M 195.22012,209.45631 C 178.707,205.29433 94.713459,184.342 94.541964,184.342 c -0.06915,0 -0.125663,-0.16033 -0.125663,-0.35631 0,-0.2052 10.221479,-0.26507 24.106179,-0.14113 l 24.10615,0.21515 0.27033,-2.57512 c 0.14865,-1.4163 0.21126,-9.94544 0.1391,-18.95365 -0.0721,-9.00821 -0.0165,-16.25161 0.12408,-16.09642 0.14051,0.15521 2.658,4.89979 5.59455,10.54361 2.93655,5.64379 5.37309,10.30789 5.41452,10.36464 0.0854,0.1172 13.22303,-7.84242 21.8241,-13.22244 3.14856,-1.96942 5.81922,-3.58078 5.93483,-3.58078 0.11561,0 5.1266,9.82385 11.13554,21.83077 6.00894,12.00692 10.99015,21.64649 11.06939,21.42126 0.26845,-0.76319 16.96816,-69.59947 17.24391,-71.07952 l 0.27382,-1.4696 -2.15005,-0.60435 c -1.18252,-0.33239 -18.87761,-4.74692 -39.32244,-9.81009 l -37.1724,-9.20575 0.0732,-4.605239 c 0.0404,-2.532871 0.10818,-4.628237 0.15068,-4.656372 0.0426,-0.02817 20.17775,4.983008 44.74489,11.135831 39.59443,9.91638 44.65234,11.2693 44.53356,11.91196 -0.0737,0.39876 -1.76015,7.42514 -3.74767,15.61421 -1.98751,8.18904 -5.15057,21.22714 -7.029,28.97354 -6.40422,26.40999 -12.62599,51.50728 -12.93026,52.15784 -0.26731,0.57153 -1.89455,0.24835 -13.58323,-2.69769 z M 25.728197,208.88518 c -2.008775,-0.80916 -2.286041,-1.95592 -2.405044,-9.94726 -0.08464,-5.68361 0.01915,-7.68765 0.440308,-8.50209 1.218018,-2.35538 3.38127,-3.25047 5.607593,-2.32025 2.549744,1.06535 2.671648,1.5411 2.671648,10.42678 0,4.70713 -0.170091,8.30294 -0.414339,8.75933 -0.876164,1.63712 -3.811344,2.42486 -5.900166,1.58349 z m -49.091484,-6.21889 c -3.057222,-1.32967 -3.35367,-6.30121 -0.462783,-7.76102 0.670329,-0.33849 6.910145,-0.52886 21.7644922,-0.66399 l 20.8247368,-0.18947 v 4.60174 4.60174 l -20.4223266,-0.0159 C -18.14963,203.22688 -22.328276,203.1163 -23.363287,202.66621 Z m 60.234651,-3.93812 -2.62e-4,-4.52713 12.359606,0.13239 c 6.807108,0.0729 12.682611,0.30524 13.0786,0.51717 1.923555,1.02946 2.616402,4.27333 1.331551,6.23426 -1.317934,2.01142 -2.423165,2.17043 -15.086405,2.17043 H 36.871628 Z M -29.928498,120.15755 V 61.606828 l 80.381477,-0.08141 c 44.209807,-0.04478 81.196361,-0.126615 82.192331,-0.181883 0.99596,-0.05527 2.4899,-0.0027 3.31988,0.116773 l 1.50903,0.217253 v 58.515349 58.51535 H 53.772864 -29.928498 Z m 17.404078,30.68378 c 8.3865272,-9.78732 19.9162022,-23.39217 31.630538,-37.32355 4.745645,-5.64382 8.843349,-10.49654 9.106011,-10.78387 0.380383,-0.41605 1.82189,1.05668 7.083597,7.23715 9.742695,11.44388 27.822238,32.30354 28.099342,32.42022 0.132153,0.0557 6.214274,-5.87486 13.515826,-13.17893 7.301541,-7.30406 13.394044,-13.28012 13.538892,-13.28012 0.144835,0 2.039619,2.12775 4.210622,4.72831 8.911062,10.67434 32.417462,38.3296 32.579342,38.3296 0.0957,0 0.17421,-19.64769 0.17421,-43.66153 V 71.667086 H 53.772864 -19.868239 v 43.661524 c 0,24.01384 0.08128,43.66153 0.180649,43.66153 0.09936,0 3.322784,-3.66696 7.16317,-8.14881 z m 73.036016,-36.931 c -8.776686,-2.21159 -13.451574,-11.5497 -9.788103,-19.551773 1.305395,-2.851347 3.386893,-5.022423 6.361876,-6.63566 2.365085,-1.282491 2.760934,-1.367824 6.345344,-1.367824 3.294235,0 4.137199,0.147384 6.095697,1.065556 2.769308,1.298357 5.172577,3.629208 6.666784,6.465885 1.008614,1.914846 1.120082,2.526785 1.120362,6.150516 2.81e-4,3.58292 -0.121956,4.27297 -1.114545,6.29429 -2.748978,5.59774 -9.879268,9.04259 -15.687415,7.57901 z m 99.127944,29.96579 c -5.72861,-1.57165 -9.04726,-5.91742 -9.04726,-11.84747 0,-5.0459 2.19098,-8.59831 6.68947,-10.84623 4.59344,-2.29538 9.87701,-1.51647 13.755,2.02781 3.0465,2.78432 4.00618,5.17045 3.7838,9.4078 -0.13707,2.61092 -0.39713,3.66032 -1.33351,5.38075 -2.61428,4.80327 -8.56162,7.32753 -13.8475,5.87734 z"
       id="path1" /></g></svg>
