<?xml version="1.0" encoding="UTF-8" standalone="no"?>
<!-- Created with Inkscape (http://www.inkscape.org/) -->

<svg
   width="100"
   height="100"
   viewBox="0 0 263.48587 263.48587"
   version="1.1"
   id="svg1"
   xml:space="preserve"
   inkscape:version="1.3.2 (091e20e, 2023-11-25, custom)"
   sodipodi:docname="Image_Restoration.svg"
   xmlns:inkscape="http://www.inkscape.org/namespaces/inkscape"
   xmlns:sodipodi="http://sodipodi.sourceforge.net/DTD/sodipodi-0.dtd"
   xmlns="http://www.w3.org/2000/svg"
   xmlns:svg="http://www.w3.org/2000/svg"><sodipodi:namedview
     id="namedview1"
     pagecolor="#ffffff"
     bordercolor="#000000"
     borderopacity="0.25"
     inkscape:showpageshadow="2"
     inkscape:pageopacity="0.0"
     inkscape:pagecheckerboard="0"
     inkscape:deskcolor="#d1d1d1"
     inkscape:document-units="mm"
     inkscape:zoom="8.3597643"
     inkscape:cx="81.880299"
     inkscape:cy="56.700163"
     inkscape:window-width="2558"
     inkscape:window-height="1360"
     inkscape:window-x="1273"
     inkscape:window-y="0"
     inkscape:window-maximized="0"
     inkscape:current-layer="layer1" /><defs
     id="defs1" /><g
     inkscape:label="Layer 1"
     inkscape:groupmode="layer"
     id="layer1"
     transform="translate(65.077911,-8.6023941)"><path
       style="fill:#000000;stroke-width:1.96306"
       d="m -61.424978,224.91461 c -0.867249,-0.52883 -1.834008,-1.69929 -2.148353,-2.601 -0.415847,-1.19289 -0.571021,-23.61647 -0.569646,-82.31688 0.0019,-79.741807 0.01359,-80.69658 1.011222,-82.332839 0.555133,-0.910501 1.592718,-1.87726 2.305745,-2.148353 1.991221,-0.75706 253.54645,-0.667847 255.21088,0.09051 3.03304,1.381939 2.81339,-4.544851 3.11516,84.061622 0.25811,75.78593 0.21961,81.2189 -0.5876,82.91998 -1.69827,3.57888 9.63853,3.29244 -130.235405,3.29036 -123.463346,-10e-4 -126.563344,-0.0252 -128.102003,-0.9634 z m 44.038383,-14.19956 3.51135,-3.53846 h -15.783156 -15.783157 v -32.48802 -32.48801 l 3.956804,-3.52849 c 2.176241,-1.94068 10.751239,-9.67027 19.055549,-17.17686 19.3500437,-17.49128 19.4709253,-17.59863 20.9518,-18.60891 0.73245286,-0.49966 2.22692653,-0.85262 3.6101656,-0.85262 2.6774574,0 0.927181,-1.35804 17.8872614,13.87855 8.861948,7.96139 20.102773,18.32204 27.682066,25.51454 l 2.407322,2.28447 2.394878,-2.41474 2.39488,-2.41471 -1.516487,-1.30337 c -0.834066,-0.71688 -2.731374,-2.4434 -4.216242,-3.83676 l -2.699759,-2.53339 1.688769,-1.62124 c 15.015221,-14.41501 15.517501,-14.8566 17.272562,-15.18588 2.432865,-0.45638 4.876078,0.44539 6.919962,2.55413 0.938062,0.96784 1.945284,1.74819 2.238273,1.73412 0.29299,-0.0138 12.361291,-11.72365 26.818454,-26.02125 l 26.28573,-25.995669 -89.851714,-0.01199 -89.851707,-0.01198 v 73.802269 73.80225 h 15.557524 15.557522 z M -35.129613,103.66878 c -0.759235,-0.50695 -1.718532,-2.40156 -1.718532,-3.39408 0,-1.163548 2.289316,-3.295991 3.538463,-3.295991 1.460638,0 3.538464,2.212749 3.538464,3.768241 0,2.40951 -3.371992,4.24819 -5.358395,2.92183 z M 35.068938,96.491516 C 31.126554,94.701874 29.629266,89.698107 31.914525,85.9498 c 1.319024,-2.163455 4.964931,-3.851781 7.351175,-3.404135 3.270007,0.613476 6.281812,4.281333 6.281812,7.650195 0,2.242321 -2.001267,5.166146 -4.296612,6.277321 -2.576053,1.247043 -3.469395,1.24968 -6.181962,0.01771 z M -36.06124,86.756347 c -1.705721,-2.435274 -0.184114,-5.447978 2.751558,-5.447978 2.935674,0 4.45728,3.012704 2.751557,5.447978 -0.583645,0.833271 -1.29438,1.123451 -2.751557,1.123451 -1.457178,0 -2.167911,-0.29018 -2.751558,-1.123451 z m 24.263752,0 c -1.073326,-1.532404 -0.987842,-3.22507 0.224083,-4.436974 2.0876059,-2.087612 6.0659394,-0.59574 6.0659394,2.27473 0,2.974463 -4.6109124,4.559503 -6.2900224,2.162244 z M 185.56958,140.45127 V 66.649019 H 163.46382 141.35809 L 124.16161,83.712005 C 114.70354,93.096623 101.61952,106.00824 95.086003,112.40446 66.153827,140.72859 -7.0239495,213.39762 -7.0239495,213.80448 c 0,0.26014 40.5077415,0.44905 96.2967625,0.44905 H 185.56958 Z M 16.987053,198.68676 c 4.726377,-4.66094 18.594712,-18.30381 30.818521,-30.31746 l 22.225112,-21.84302 1.785887,1.68106 c 0.982242,0.92458 2.866396,2.54224 4.187006,3.59481 1.320598,1.05257 2.401094,2.20195 2.401094,2.55415 0,0.35223 -4.894302,5.36099 -10.876225,11.13061 -6.266254,6.04387 -11.007837,11.01457 -11.18673,11.72733 -0.41282,1.64482 1.25699,3.87784 3.060018,4.09215 1.519276,0.18061 1.442346,0.25269 34.420539,-32.26006 33.953885,-33.4747 35.868115,-35.3054 37.283555,-35.65697 3.00784,-0.74703 4.44502,0.073 11.24396,6.4157 3.61427,3.37176 11.91703,11.06349 18.45055,17.09275 6.53352,6.02926 13.30084,12.31536 15.03847,13.96913 l 3.15934,3.00688 v 26.65137 26.6514 l -85.30225,-0.008 -85.3022589,-0.008 z m -48.037166,-1.60332 c 1.950467,-2.15524 0.462895,-5.57719 -2.424484,-5.57719 -0.83859,0 -1.9407,0.37647 -2.449129,0.83658 -1.151839,1.04241 -1.198236,3.58344 -0.08782,4.81044 1.119962,1.23754 3.812586,1.19963 4.961444,-0.0699 z m 13.294442,-7.25697 c 1.037059,-0.64587 2.302531,-1.3284 2.812161,-1.51674 0.882795,-0.32626 0.876586,-0.40814 -0.131369,-1.73229 -3.397353,-4.46317 -5.627577,-7.91147 -5.436683,-8.40601 0.12021,-0.31146 1.734591,-2.44295 3.587492,-4.73661 l 3.368909,-4.17033 h 6.8040658 6.80406855 v -3.28574 -3.28569 H -6.7130188 -13.479013 l -0.848748,-2.59491 c -0.466813,-1.42721 -1.305494,-3.81566 -1.863737,-5.30769 l -1.014989,-2.71281 -2.870274,0.008 c -4.52806,0.0119 -4.5239,-0.004 -1.819119,7.06672 2.736009,7.15231 2.921756,6.12509 -2.240652,12.39139 l -3.211473,3.8982 -4.623696,-0.18198 -4.623697,-0.18198 -0.149467,3.4121 -0.149466,3.41208 h 4.961802 4.961802 l 3.407684,4.54946 c 1.874225,2.50218 3.523365,4.54944 3.664751,4.54944 0.14138,0 1.105569,-0.52843 2.142627,-1.17428 z m 16.79765954,-5.90264 c 1.22814256,-1.22815 1.30917143,-3.38213 0.17439709,-4.63602 -1.11996253,-1.23756 -3.81258603,-1.19967 -4.96144533,0.0699 -2.8442993,3.14291 1.789908,7.56334 4.78704423,4.56621 z m -31.13687954,-17.762 c 0.6943,-0.31636 1.479424,-1.19784 1.744721,-1.95886 1.032728,-2.96251 -2.126605,-5.54953 -4.889527,-4.00383 -2.166487,1.21205 -2.152016,4.86757 0.02343,5.91601 1.498747,0.7223 1.634131,0.72432 3.121385,0.0468 z m 46.265036,-4.8007 c 0.576222,-0.73255 1.047676,-1.7665 1.047676,-2.29769 0,-1.28829 -2.216115,-3.44733 -3.538463,-3.44733 -1.452745,0 -3.5384637,2.20956 -3.5384637,3.74856 0,3.04202 4.1308507,4.4099 6.0292507,1.99646 z m 18.321073,-10.62557 c 0.508429,-0.46012 0.924418,-1.5227 0.924418,-2.36129 0,-4.13677 -5.324877,-4.67601 -6.745531,-0.68308 -0.338822,0.95228 0.411691,2.8428 1.387136,3.49411 0.991061,0.66174 3.485361,0.40876 4.433977,-0.44974 z M -8.432907,137.03919 c 1.2050472,-1.04259 3.3679871,-2.7593 4.8065365,-3.81488 l 2.6155426,-1.91927 4.3373403,3.30938 c 2.9292336,2.235 4.7918857,3.30938 5.7374498,3.30938 0.9623738,0 3.1577948,-1.30385 7.0220978,-4.17033 3.092093,-2.29368 5.630067,-4.28406 5.639939,-4.42309 0.0098,-0.13899 -0.956526,-1.33961 -2.147553,-2.66799 l -2.165506,-2.41527 -3.864501,3.04714 c -2.125477,1.67591 -4.1167098,3.04711 -4.4249601,3.04711 -0.308249,0 -2.3835477,-1.41033 -4.6117724,-3.13406 -5.466694,-4.22899 -6.0061164,-4.20611 -11.9143748,0.50549 -2.5101698,2.00176 -4.7598147,3.63672 -4.9992087,3.63326 -0.239394,-0.004 -1.41461,-0.91586 -2.611586,-2.02752 l -2.176324,-2.02122 -1.291625,1.53502 c -3.44666,4.09612 -3.529915,3.3441 0.76561,6.91542 4.718398,3.92288 6.030413,4.1054 9.282895,1.29143 z"
       id="path1" /></g></svg>
