<?xml version="1.0" encoding="UTF-8" standalone="no"?>
<!-- Created with Inkscape (http://www.inkscape.org/) -->

<svg
   width="100"
   height="100"
   viewBox="0 0 357.74719 357.74719"
   version="1.1"
   id="svg1"
   xml:space="preserve"
   inkscape:version="1.3.2 (091e20e, 2023-11-25, custom)"
   sodipodi:docname="Image_Retouching.svg"
   xmlns:inkscape="http://www.inkscape.org/namespaces/inkscape"
   xmlns:sodipodi="http://sodipodi.sourceforge.net/DTD/sodipodi-0.dtd"
   xmlns="http://www.w3.org/2000/svg"
   xmlns:svg="http://www.w3.org/2000/svg"><sodipodi:namedview
     id="namedview1"
     pagecolor="#ffffff"
     bordercolor="#000000"
     borderopacity="0.25"
     inkscape:showpageshadow="2"
     inkscape:pageopacity="0.0"
     inkscape:pagecheckerboard="0"
     inkscape:deskcolor="#d1d1d1"
     inkscape:document-units="mm"
     inkscape:zoom="8.3597643"
     inkscape:cx="87.382846"
     inkscape:cy="61.724228"
     inkscape:window-width="2558"
     inkscape:window-height="1360"
     inkscape:window-x="1273"
     inkscape:window-y="0"
     inkscape:window-maximized="0"
     inkscape:current-layer="layer1" /><defs
     id="defs1" /><g
     inkscape:label="Layer 1"
     inkscape:groupmode="layer"
     id="layer1"
     transform="translate(30.516531,-12.906742)"><path
       style="fill:#000000;stroke-width:1.58287"
       d="m 288.15628,278.21414 c -9.94102,-16.04764 -11.55749,-17.73831 -22.03317,-23.04444 -13.41917,-6.79707 -17.83423,-10.66666 -26.10151,-22.87666 -5.40593,-7.98407 -6.34969,-9.01584 -15.89258,-17.37445 -12.17792,-10.66669 -17.53173,-15.80356 -18.4185,-17.67227 -2.13919,-4.50804 -0.24619,-9.36991 4.32849,-11.11699 4.60407,-1.75831 6.42588,-0.89069 22.84864,10.88166 12.20762,8.75083 16.63564,10.59974 22.19276,9.2666 5.36435,-1.28688 8.41176,-5.45261 8.46711,-11.57432 0.0178,-1.97254 -0.14864,-4.2296 -0.36979,-5.01568 -0.39744,-1.41227 -0.25,-1.49311 12.41463,-6.80642 7.04924,-2.95744 13.32819,-5.49992 13.95319,-5.64995 1.05778,-0.25391 1.47243,0.94149 5.99726,17.28988 6.24531,22.56449 9.67181,33.13049 12.71642,39.21238 1.71544,3.42674 4.83938,7.86574 10.47108,14.87894 4.41445,5.49735 8.02627,10.41115 8.02627,10.91959 0,1.27039 -28.57488,30.30909 -30.02246,30.50977 -0.95941,0.13296 -2.39366,-1.84463 -8.57784,-11.82764 z m -313.818275,-3.34068 c -0.672445,-0.13011 -1.851836,-0.98442 -2.620865,-1.89834 l -1.398237,-1.66171 V 183.70628 96.099168 l 1.319465,-1.423733 c 0.725706,-0.783044 2.153388,-1.572911 3.172627,-1.755256 1.019238,-0.182357 54.077037,-0.260749 117.906227,-0.1742 l 116.053048,0.157348 1.61001,1.801936 1.60999,1.801912 v 28.642935 28.64293 l -5.83204,3.62639 c -3.20762,1.99453 -5.93657,3.6264 -6.06432,3.6264 -0.12774,0 -0.29662,-12.53946 -0.37527,-27.86543 l -0.14293,-27.86544 -108.559003,-0.13645 -108.559005,-0.13645 5e-6,78.7639 5e-6,78.76392 H 91.154658 199.85159 V 245.1894 227.80893 h 1.93116 c 1.88776,0 1.93118,0.05 1.93118,2.22476 0,4.18645 2.7911,8.10975 6.75165,9.49038 l 1.52476,0.53156 v 15.5968 c 0,14.87693 -0.0521,15.66303 -1.12862,17.03161 -0.62074,0.78915 -2.04842,1.69027 -3.17263,2.00249 -1.98532,0.55139 -230.522212,0.73444 -233.351021,0.18692 z m 19.2860905,-43.28429 0.144659,-20.49723 8.0005358,-4.93756 C 26.021149,191.18726 41.467616,182.01277 42.414901,182.01277 c 0.588816,0 11.795665,6.2073 24.904107,13.79402 13.108429,7.58672 24.033588,13.79404 24.278133,13.79404 0.410783,0 25.219359,-25.79948 29.313929,-30.48481 2.34915,-2.68807 4.23478,-2.7496 7.072,-0.23078 1.58159,1.40414 17.75251,14.35511 18.83036,15.08089 0.39264,0.26437 -6.6665,8.1901 -8.65477,9.71724 -2.23306,1.71515 -8.08694,3.71041 -10.8859,3.71041 -5.823,0 -6.69518,2.85366 -2.49588,8.16618 4.30317,5.44391 13.29721,10.95328 21.55382,13.20294 5.61615,1.53022 17.2753,1.37571 22.34633,-0.29616 4.77921,-1.57568 9.36978,-4.61418 11.57122,-7.65905 0.91907,-1.27118 1.86108,-2.32643 2.09336,-2.34497 0.23226,-0.0185 1.78409,0.87045 3.4485,1.97556 l 3.02619,2.00928 v 14.81942 14.81945 H 91.14787 -6.5205611 Z m 219.4697045,3.003 c -1.53902,-0.56261 -3.25146,-2.49928 -3.59569,-4.06649 -0.47951,-2.18327 1.18267,-5.54612 4.95587,-10.02646 l 3.13561,-3.72325 4.64128,3.95204 c 3.93859,3.35368 4.54086,4.08448 3.97795,4.82679 -5.76894,7.60755 -9.67095,10.29636 -13.11502,9.03737 z M 149.29107,223.6745 c -6.56587,-1.42795 -13.08732,-4.77989 -17.85792,-9.17872 l -1.93116,-1.78068 3.58644,-0.89611 c 6.46565,-1.61549 8.77311,-3.22289 15.13322,-10.54197 3.87904,-4.46397 5.29252,-5.67791 8.3821,-7.19891 3.20183,-1.57625 4.29469,-1.83144 7.89476,-1.84339 3.36961,-0.011 4.77229,0.26455 7.24571,1.4244 2.95944,1.38779 3.0911,1.54284 3.74769,4.41387 0.37429,1.63655 1.50915,5.15937 2.52189,7.8285 l 1.84139,4.85298 -1.40911,2.82768 c -1.68661,3.38461 -4.84088,6.57529 -8.00738,8.09982 -5.72267,2.75523 -14.03811,3.53871 -21.14763,1.99253 z m 49.11934,-1.92394 c -1.79476,-0.72516 -3.52606,-3.2828 -3.51262,-5.18919 0.006,-0.94536 0.47801,-2.74478 1.04743,-3.99875 1.02965,-2.26749 1.06399,-2.28684 6.30717,-3.55084 l 5.27187,-1.27091 2.72862,2.44731 c 1.50075,1.34602 2.75391,2.72436 2.78478,3.06295 0.0947,1.03737 -5.64445,6.62258 -8.08368,7.867 -2.39778,1.22325 -4.56333,1.43255 -6.54357,0.63243 z M 183.4133,204.49702 c -1.32899,-3.60397 -2.76064,-8.10459 -2.98195,-9.37439 -0.1309,-0.7511 1.99423,-1.9933 9.76437,-5.70752 13.71381,-6.55535 12.62061,-6.30149 10.64567,-2.47216 -2.30136,4.46226 -2.31187,8.83097 -0.0318,13.25184 l 1.62013,3.14138 -8.32403,2.04054 c -4.5782,1.12228 -8.61655,2.03525 -8.97408,2.02879 -0.35754,-0.006 -1.13076,-1.31525 -1.71828,-2.90848 z m 44.85394,-17.8229 c -7.21199,-5.23181 -10.56499,-6.82134 -14.58388,-6.9136 l -1.96897,-0.0453 2.8101,-1.28547 c 5.31655,-2.43202 29.21074,-11.20127 41.21172,-15.12482 22.37654,-7.31571 61.9819,-18.26025 66.07892,-18.26025 2.30507,0 3.65873,0.81176 4.69486,2.81544 1.06143,2.05259 0.65745,4.3309 -1.0529,5.93767 -2.24447,2.10856 -40.19551,19.23504 -61.08568,27.56662 -6.44268,2.56952 -25.40006,9.52004 -27.82777,10.20276 -0.80046,0.2251 -3.07341,-1.11871 -8.2764,-4.89314 z m -35.92958,-7.21498 c -1.12547,-2.69364 -0.39262,-5.36669 2.11972,-7.73167 1.69267,-1.59342 13.50845,-9.13229 29.85736,-19.05005 3.89549,-2.36312 7.99231,-4.54924 9.10405,-4.85803 4.49849,-1.24946 8.05175,-0.4948 20.17326,4.28453 l 8.19794,3.23232 -11.79554,3.88986 c -17.6572,5.82287 -41.34057,15.07677 -51.24644,20.02372 -5.17,2.58189 -5.41568,2.58989 -6.41035,0.20932 z m -58.81233,-8.81488 c -0.1537,-0.27189 -0.96657,-2.76413 -1.80625,-5.5383 l -1.52667,-5.04395 -5.40617,-1.56125 c -2.97339,-0.85867 -5.30364,-1.72711 -5.17834,-1.92988 0.12537,-0.20274 0.913,-0.53637 1.7504,-0.74135 0.83739,-0.205 3.17444,-0.87008 5.19341,-1.478 l 3.67083,-1.10531 1.5709,-5.47805 c 0.86397,-3.01292 1.69813,-5.47899 1.85364,-5.48012 0.1556,-0.001 0.7503,1.6739 1.32173,3.7223 2.02751,7.26814 1.86294,7.07198 7.32086,8.72549 2.67778,0.81123 5.09485,1.60902 5.37131,1.77289 0.27645,0.16385 -1.80644,0.98826 -4.62862,1.83198 -2.82218,0.84374 -5.37378,1.7766 -5.67022,2.07305 -0.29644,0.29643 -1.21809,2.83081 -2.04812,5.63192 -0.83002,2.80112 -1.63494,4.87048 -1.78869,4.59858 z m 39.30746,-7.71916 c -0.72427,-2.5822 -1.58317,-5.0352 -1.90867,-5.45112 -0.3255,-0.4159 -2.95059,-1.47643 -5.83353,-2.35673 l -5.24174,-1.60054 5.58686,-1.74777 5.58687,-1.74776 1.54193,-5.52101 c 0.84806,-3.03657 1.63251,-5.43044 1.7432,-5.31974 0.11068,0.11068 0.99958,2.64094 1.97527,5.62276 l 1.77399,5.42147 5.47878,1.66558 5.47876,1.66558 -5.47876,1.68226 -5.47878,1.68226 -1.65529,5.05795 c -0.91041,2.78188 -1.78954,5.1893 -1.95365,5.34982 -0.1641,0.16054 -0.89097,-1.82082 -1.61524,-4.40301 z M 33.893808,160.23491 c -4.081305,-1.27446 -8.059642,-4.83279 -10.505745,-9.39665 -1.321188,-2.46503 -1.478644,-3.34635 -1.478644,-8.2764 0,-4.91863 0.159635,-5.81712 1.470467,-8.27643 1.770347,-3.32143 5.354594,-6.86311 8.736264,-8.63253 2.125679,-1.11225 3.276804,-1.29917 8.000536,-1.29917 4.714865,0 5.866757,0.18632 7.917448,1.28067 3.654374,1.95013 7.066338,5.39589 8.762035,8.84882 1.327547,2.7033 1.528273,3.76599 1.525851,8.07864 -0.0037,5.88114 -1.052317,8.6778 -4.775955,12.73264 -3.549353,3.86507 -7.911888,5.76019 -13.153498,5.714 -2.276016,-0.0201 -5.200457,-0.36817 -6.498759,-0.77359 z M 154.71392,141.74429 c -1.36255,-5.90295 -1.65327,-6.23388 -6.78495,-7.72339 l -4.63296,-1.34474 4.60286,-1.42387 c 2.53156,-0.78313 4.79377,-1.78665 5.02714,-2.23006 0.23335,-0.44339 0.86904,-2.48571 1.41262,-4.53849 0.54358,-2.05278 1.13673,-3.58942 1.31811,-3.41476 0.18138,0.17462 0.95051,2.21815 1.70918,4.54113 l 1.37941,4.2236 4.32448,1.30388 c 2.37847,0.71715 4.20671,1.42169 4.06277,1.56563 -0.14388,0.14389 -2.08997,0.81274 -4.3245,1.48619 l -4.06275,1.22447 -1.44339,4.28168 c -0.79385,2.35494 -1.55842,4.39672 -1.69898,4.53729 -0.14056,0.14057 -0.54065,-0.97927 -0.88904,-2.48856 z"
       id="path1" /></g></svg>
