<?xml version="1.0" encoding="UTF-8" standalone="no"?>
<!-- Created with Inkscape (http://www.inkscape.org/) -->

<svg
   width="100"
   height="100"
   viewBox="0 0 263.48587 263.48587"
   version="1.1"
   id="svg1"
   xml:space="preserve"
   inkscape:version="1.3.2 (091e20e, 2023-11-25, custom)"
   sodipodi:docname="Image_Cropping.svg"
   xmlns:inkscape="http://www.inkscape.org/namespaces/inkscape"
   xmlns:sodipodi="http://sodipodi.sourceforge.net/DTD/sodipodi-0.dtd"
   xmlns="http://www.w3.org/2000/svg"
   xmlns:svg="http://www.w3.org/2000/svg"><sodipodi:namedview
     id="namedview1"
     pagecolor="#ffffff"
     bordercolor="#000000"
     borderopacity="0.25"
     inkscape:showpageshadow="2"
     inkscape:pageopacity="0.0"
     inkscape:pagecheckerboard="0"
     inkscape:deskcolor="#d1d1d1"
     inkscape:document-units="mm"
     inkscape:zoom="8.3597643"
     inkscape:cx="57.238456"
     inkscape:cy="52.274201"
     inkscape:window-width="2558"
     inkscape:window-height="1360"
     inkscape:window-x="1273"
     inkscape:window-y="0"
     inkscape:window-maximized="0"
     inkscape:current-layer="layer1" /><defs
     id="defs1" /><g
     inkscape:label="Layer 1"
     inkscape:groupmode="layer"
     id="layer1"
     transform="translate(44.568962,44.062569)"><path
       style="fill:#000000;stroke-width:1.90694"
       d="M 6.9191515,193.94749 C 6.1802432,188.60511 5.4560607,183.51761 5.3098538,182.64196 L 5.044025,181.04988 h 5.394638 5.394636 l 0.611522,5.15997 c 0.336337,2.83798 0.771602,5.25889 0.967256,5.37983 0.195652,0.12096 15.538481,-1.88138 34.095175,-4.44955 18.556692,-2.56816 36.171268,-4.9906 39.14349,-5.38318 4.379187,-0.57842 11.904308,-0.68993 39.679418,-0.58796 30.87939,0.1133 33.83853,0.19115 29.86654,0.78504 -2.42486,0.36258 -14.21847,2.06297 -26.20801,3.77868 -11.98954,1.71568 -32.6008,4.68535 -45.802776,6.59927 -13.201984,1.91389 -28.632866,4.1139 -34.290856,4.88887 -20.960011,2.8709 -42.663681,5.90494 -44.1255349,6.16846 l -1.5069039,0.27165 z M -12.972103,89.432624 V 2.7374591 L 92.717202,2.7361717 C 150.84632,2.7354644 202.87104,2.5902334 208.32772,2.4134403 l 9.92121,-0.3214466 -0.12381,86.8917013 -0.12381,86.891705 -115.48668,0.12627 -115.486691,0.12628 z M 16.909923,124.02194 C 45.93781,97.120314 63.064599,81.365695 63.65322,81.023651 c 0.555621,-0.322875 22.753472,19.515049 38.86139,34.729909 3.83936,3.62651 7.16202,6.52017 7.38368,6.43035 0.22168,-0.0898 6.9932,-6.99694 15.04784,-15.34922 8.05463,-8.352274 17.09194,-17.68815 20.08292,-20.746388 l 5.43811,-5.56043 8.78372,7.999717 c 8.00203,7.287792 43.32219,39.690621 47.116,43.224361 l 1.59207,1.48293 V 73.129808 13.024713 H 102.63705 -2.6848482 v 64.468566 64.468551 l 1.83700938,-1.59265 C 0.16251645,139.49323 8.1535107,132.13698 16.909923,124.02194 Z M 112.1895,76.022488 C 102.99776,73.115519 97.815348,65.577702 98.325545,55.857335 c 0.172099,-3.278739 0.504955,-4.634457 1.767615,-7.199298 1.87869,-3.816145 5.41167,-7.271948 9.29525,-9.092177 2.50605,-1.174589 3.36868,-1.312877 8.18967,-1.312877 4.82875,0 5.6813,0.137204 8.2066,1.320633 1.54991,0.726347 3.99242,2.431316 5.42778,3.788818 10.70345,10.122873 6.22809,28.416278 -7.96734,32.56725 -3.14383,0.919311 -8.30523,0.962631 -11.05562,0.09279 z M 8.5821451,40.947264 V 24.291708 H 25.482638 42.383129 v 5.143629 5.143627 H 30.8712 19.359269 V 46.090893 57.602822 H 13.970709 8.5821451 Z M 185.91483,46.107466 V 34.578964 H 174.4029 162.89099 v -5.143627 -5.143629 h 16.65554 16.65557 l 0.0509,6.000898 c 0.028,3.300496 0.0832,10.740387 0.12238,16.533089 l 0.0718,10.532191 -5.26609,0.139034 -5.26609,0.139036 z M -25.708706,170.53252 c 0,-0.396 -1.755953,-16.65355 -3.902116,-36.12787 -2.146165,-19.47434 -5.0079,-45.548164 -6.359412,-57.941863 -1.351513,-12.393691 -3.329702,-30.359648 -4.395973,-39.924346 -3.119987,-27.9869462 -3.648966,-33.293101 -3.348962,-33.5931082 0.155873,-0.1558729 4.987525,-0.8049474 10.737009,-1.4423912 5.749482,-0.63744378 11.397906,-1.27857588 12.552049,-1.4247348 l 2.098445,-0.26574575 -0.138958,5.25898565 -0.138959,5.2589853 -6.980637,0.690814 c -5.979427,0.591731 -6.980638,0.810529 -6.980638,1.525503 0,0.459081 3.116373,28.805571 6.925272,62.992198 l 6.925271,62.157513 0.229716,16.45871 0.229717,16.45872 -2.623697,0.31503 c -3.957307,0.47521 -4.828108,0.40371 -4.828108,-0.3964 z M 9.5618843,-2.946666 c 0.8705077,-0.2155073 44.2336007,-5.3612795 80.0936397,-9.504481 4.580266,-0.529197 17.696516,-2.073146 29.147226,-3.430999 28.53943,-3.384282 61.45493,-7.179984 61.59033,-7.102387 0.18668,0.107041 2.09267,17.2858933 2.09267,18.8623416 v 1.4710864 h -5.10057 -5.10056 l -0.263,-1.8370107 c -0.14474,-1.0103552 -0.39546,-3.0654077 -0.55732,-4.5667844 l -0.29429,-2.7297769 -3.03732,0.374345 c -5.44011,0.670489 -27.64639,3.3127597 -44.67619,5.3159126 -9.16055,1.077522 -19.17661,2.2930724 -22.25791,2.7012239 -4.67464,0.619206 -12.786537,0.7326803 -48.98693,0.6852658 C 28.350143,-2.7391803 9.1577417,-2.8466147 9.5618843,-2.946666 Z"
       id="path1" /></g></svg>
