<?xml version="1.0" encoding="UTF-8" standalone="no"?>
<!-- Created with Inkscape (http://www.inkscape.org/) -->

<svg
   width="100"
   height="100"
   viewBox="0 0 557.01618 557.01618"
   version="1.1"
   id="svg1"
   xml:space="preserve"
   inkscape:version="1.3.2 (091e20e, 2023-11-25, custom)"
   sodipodi:docname="Inkscape_logo.svg"
   xmlns:inkscape="http://www.inkscape.org/namespaces/inkscape"
   xmlns:sodipodi="http://sodipodi.sourceforge.net/DTD/sodipodi-0.dtd"
   xmlns="http://www.w3.org/2000/svg"
   xmlns:svg="http://www.w3.org/2000/svg"><sodipodi:namedview
     id="namedview1"
     pagecolor="#ffffff"
     bordercolor="#000000"
     borderopacity="0.25"
     inkscape:showpageshadow="2"
     inkscape:pageopacity="0.0"
     inkscape:pagecheckerboard="0"
     inkscape:deskcolor="#d1d1d1"
     inkscape:document-units="mm"
     inkscape:zoom="8.3597643"
     inkscape:cx="77.932819"
     inkscape:cy="58.853334"
     inkscape:window-width="2558"
     inkscape:window-height="1360"
     inkscape:window-x="1273"
     inkscape:window-y="0"
     inkscape:window-maximized="0"
     inkscape:current-layer="layer1" /><defs
     id="defs1" /><g
     inkscape:label="Layer 1"
     inkscape:groupmode="layer"
     id="layer1"
     transform="translate(99.2658,157.24789)"><path
       style="fill:#000000;stroke-width:1.06547"
       d="m 166.60301,394.85241 c -6.25643,-0.88721 -9.12828,-1.68584 -12.73942,-3.54267 -1.88608,-0.96983 -3.17334,-1.90137 -4.66064,-3.37276 -2.71273,-2.68372 -3.85088,-5.03043 -5.05814,-10.42932 -3.66943,-16.40971 -11.81637,-24.55433 -28.78903,-28.7808 -1.27394,-0.31723 -5.83408,-1.23978 -10.13363,-2.05011 -12.923601,-2.43568 -17.379381,-3.76151 -22.265929,-6.62539 -3.254251,-1.90722 -6.586835,-5.11481 -7.732942,-7.44287 -2.394905,-4.86473 -0.910511,-10.00085 4.888887,-16.916 1.268721,-1.5128 4.619216,-5.16091 7.445551,-8.1069 9.647756,-10.05621 12.311479,-14.21538 12.33949,-19.26697 0.03303,-5.95503 -4.396623,-10.41034 -16.100457,-16.19379 -10.011465,-4.94717 -20.752533,-8.91452 -49.799575,-18.39415 -24.4684422,-7.98538 -35.4443508,-11.89274 -44.87752,-15.97615 -8.897087,-3.85134 -14.746594,-7.28852 -18.14448,-10.66175 -1.591699,-1.58017 -2.014926,-2.20651 -2.410589,-3.56755 -0.724158,-2.49101 -0.06969,-4.53434 2.262711,-7.06504 3.506384,-3.80439 9.455375,-7.21814 26.1097279,-14.98265 13.7902581,-6.42923 20.3583721,-10.22739 23.6330481,-13.66634 3.401307,-3.57193 3.886832,-6.32489 1.680931,-9.53105 -0.94973,-1.38039 -2.368939,-2.13383 -8.665869,-4.60063 -8.1855546,-3.20664 -17.7266024,-5.93515 -34.454346,-9.85314 -5.812364,-1.36138 -13.108579,-3.07143 -16.213824,-3.80013 -29.623207,-6.95161 -44.165806,-12.99829 -52.550124,-21.84987 -5.010628,-5.28985 -7.087457,-10.43932 -7.091517,-17.58324 -0.0032,-6.17934 1.729762,-12.4984 5.492233,-20.02322 C -86.816977,91.7391 -79.488106,81.1153 -73.569918,74.966644 -60.453955,61.339902 129.4016,-132.83351 131.23731,-134.49849 c 7.8868,-7.15326 17.62007,-12.18563 28.27217,-14.61747 5.6384,-1.28725 8.93876,-1.64322 15.36378,-1.6571 6.36712,-0.0138 11.10875,0.5297 16.78765,1.92411 7.60528,1.86743 14.72237,4.93939 21.03543,9.07953 5.08558,3.33516 7.07572,5.06324 14.74912,12.80695 15.63293,15.77618 209.40659,213.980418 211.66428,216.503914 5.76884,6.448035 9.76249,12.131926 12.69768,18.071736 3.22638,6.52908 4.47276,11.39629 4.47276,17.46642 0,5.39544 -0.91447,9.23402 -3.36146,14.11018 -7.64845,15.24112 -27.79703,28.45175 -64.53389,42.31234 -10.43622,3.93753 -16.71827,6.08965 -48.20714,16.51495 -26.77653,8.86515 -37.71582,13.02264 -46.90425,17.82601 -3.80732,1.99033 -4.64055,2.68463 -5.64797,4.70628 -2.00246,4.01839 -0.0435,8.13888 6.01847,12.65943 3.32457,2.47922 6.62217,4.45584 16.27761,9.75709 9.82517,5.39442 11.8353,6.57439 15.92429,9.34766 6.49666,4.40622 9.90795,8.10445 11.15177,12.08983 0.81557,2.6132 0.72755,4.02855 -0.46918,7.54431 -2.89004,8.49035 -7.74405,15.5229 -13.85835,20.07814 -2.81199,2.09498 -8.73964,5.01876 -13.03806,6.43095 -1.75168,0.57549 -5.8558,1.69426 -9.12028,2.48616 -3.26446,0.79189 -8.67149,2.1054 -12.01558,2.91889 -16.0551,3.90562 -26.96817,8.6555 -38.28833,16.66488 -6.3754,4.51079 -15.58124,13.16191 -16.8681,15.85165 -1.47724,3.08767 -1.0264,5.46015 1.49666,7.87611 1.73163,1.65814 3.62688,2.80462 9.48023,5.73489 6.1742,3.09088 8.25387,4.38516 9.9362,6.1837 2.13629,2.28386 2.48222,4.59106 1.10257,7.35356 -1.13113,2.26486 -2.84062,3.92479 -6.62583,6.43375 -18.15632,12.03461 -43.26003,21.49396 -64.60984,24.34569 -3.41619,0.45632 -15.49499,0.83306 -17.51671,0.54636 z m 14.20771,-169.76284 c 3.74888,-1.65833 8.59971,-5.73459 9.93202,-8.34616 0.72654,-1.42411 0.76686,-2.12293 0.18717,-3.24393 -0.59068,-1.14226 -1.88935,-1.55982 -8.54738,-2.74831 -33.85687,-6.04362 -95.044011,-19.31039 -101.498163,-22.0071 -1.88091,-0.78589 -4.852288,-0.36601 -5.201753,0.73506 -1.708708,5.38365 50.837766,27.06614 82.292756,33.95682 8.52977,1.86857 13.48639,2.51114 18.2285,2.36305 2.49385,-0.0778 3.54504,-0.23975 4.60685,-0.70943 z M 185.62346,6.7185468 c 13.90291,-8.7863499 25.67221,-16.2102733 26.154,-16.4976083 l 0.87598,-0.5224255 16.64072,8.7896102 c 9.15241,4.8342859 16.69509,8.738511 16.76154,8.6760563 0.0665,-0.062458 1.8905,-10.7323048 4.05345,-23.7107765 l 3.93265,-23.597221 19.93044,15.94613 c 12.66401,10.132336 20.08487,15.8868635 20.35404,15.7835775 0.6083,-0.233427 1.79278,-2.9765775 2.28174,-5.2843325 0.83562,-3.943864 0.3601,-9.690684 -1.16243,-14.048525 -1.39211,-3.984522 -2.5085,-5.541129 -7.95581,-11.09296 -37.63635,-38.358508 -79.67217,-80.849182 -81.11993,-81.997702 -17.27109,-13.70119 -42.98957,-13.54472 -59.5998,0.36261 -2.58656,2.16566 -58.377176,58.060526 -67.907672,68.034563 -11.999828,12.558291 -17.314457,18.355292 -19.044454,20.772981 -2.339829,3.269933 -4.668792,8.136644 -5.573761,11.647153 -0.870577,3.377148 -1.064247,8.242662 -0.432178,10.8574645 1.279121,5.2915439 4.432514,8.78478344 9.438284,10.4554821 l 2.016406,0.6729825 23.468096,0.098506 23.468109,0.098506 13.43137,-23.2518301 c 16.47167,-28.515046 15.37907,-26.644043 15.49275,-26.530366 0.0519,0.05194 4.0226,15.924458 8.82367,35.27225 4.80109,19.3477899 8.78694,35.354778 8.85743,35.571082 0.10463,0.320951 0.25779,0.308377 0.83278,-0.06837 0.38751,-0.253909 12.07968,-7.650485 25.98258,-16.4368355 z M 29.325665,330.89492 c -4.134277,-0.89913 -7.511888,-2.75264 -11.002972,-6.03802 -5.438703,-5.11825 -7.278017,-10.22241 -5.612908,-15.57601 2.594382,-8.34133 15.03832,-15.85618 29.865752,-18.03583 4.004523,-0.58866 11.24364,-0.59177 14.618684,-0.006 4.671509,0.8104 8.763008,2.36145 11.872301,4.5007 1.553331,1.06872 4.45296,3.95099 4.449167,4.42252 -0.0064,0.78421 -3.262572,6.95181 -5.142267,9.73985 -7.348306,10.89934 -18.169222,18.77054 -28.832765,20.97316 -2.647263,0.5468 -7.746591,0.55675 -10.214992,0.0199 z m 331.987895,-6.22049 c -7.28077,-0.91239 -13.83009,-5.48338 -15.78158,-11.01446 -2.21078,-6.26604 0.0463,-13.32448 6.31091,-19.7352 l 1.89063,-1.93476 1.83567,0.42764 c 11.89301,2.77049 20.94925,9.35821 24.52187,17.83778 0.67162,1.59406 0.76593,2.21006 0.76593,5.00276 0,4.32461 -0.38128,4.95692 -4.03051,6.6841 -4.77636,2.26064 -10.80405,3.32225 -15.51292,2.73214 z m 33.15145,-44.31006 c -17.15278,-1.46261 -30.03244,-5.2368 -30.9979,-9.08348 -0.17526,-0.6983 0.7558,-3.41866 2.0458,-5.97728 2.10591,-4.17701 6.16044,-8.7267 10.48081,-11.76076 11.05106,-7.76087 27.85013,-9.94619 41.79754,-5.43729 9.96201,3.22049 17.5969,9.75864 21.15234,18.11384 0.84767,1.99195 0.87922,2.19605 0.56003,3.62234 -1.12187,5.01305 -7.77887,8.37942 -19.99406,10.11074 -3.86072,0.54719 -20.28912,0.81739 -25.04456,0.41189 z"
       id="path1" /></g></svg>
