<?xml version="1.0" encoding="UTF-8" standalone="no"?>
<!-- Created with Inkscape (http://www.inkscape.org/) -->

<svg
   width="100"
   height="100"
   viewBox="0 0 263.48587 263.48587"
   version="1.1"
   id="svg1"
   xml:space="preserve"
   inkscape:version="1.3.2 (091e20e, 2023-11-25, custom)"
   sodipodi:docname="Innovation.svg"
   xmlns:inkscape="http://www.inkscape.org/namespaces/inkscape"
   xmlns:sodipodi="http://sodipodi.sourceforge.net/DTD/sodipodi-0.dtd"
   xmlns="http://www.w3.org/2000/svg"
   xmlns:svg="http://www.w3.org/2000/svg"><sodipodi:namedview
     id="namedview1"
     pagecolor="#ffffff"
     bordercolor="#000000"
     borderopacity="0.25"
     inkscape:showpageshadow="2"
     inkscape:pageopacity="0.0"
     inkscape:pagecheckerboard="0"
     inkscape:deskcolor="#d1d1d1"
     inkscape:document-units="mm"
     inkscape:zoom="5.911246"
     inkscape:cx="124.42385"
     inkscape:cy="85.430381"
     inkscape:window-width="2558"
     inkscape:window-height="1360"
     inkscape:window-x="1273"
     inkscape:window-y="0"
     inkscape:window-maximized="0"
     inkscape:current-layer="layer1" /><defs
     id="defs1" /><g
     inkscape:label="Layer 1"
     inkscape:groupmode="layer"
     id="layer1"
     transform="translate(105.33623,46.088142)"><path
       style="fill:#000000;stroke-width:2.17238"
       d="m 14.830164,216.33404 c -3.918259,-1.06194 -6.9471031,-2.67629 -9.7073732,-5.17398 -2.1405265,-1.93689 -5.44020471,-6.48479 -5.44020471,-7.49814 0,-0.24745 10.25563011,-0.44993 22.79028991,-0.44993 18.366962,0 22.790293,0.14164 22.790293,0.72966 0,1.20636 -3.021797,5.61902 -4.988547,7.28463 -2.507668,2.12372 -6.581795,4.13539 -10.405072,5.13769 -3.946287,1.03452 -11.164802,1.02015 -15.039386,-0.03 z m -100.370035,-0.50557 c -2.769917,-0.99427 -4.197866,-2.32125 -5.449144,-5.06377 -1.278844,-2.80296 -1.30072,-6.10409 -0.05808,-8.76641 0.597015,-1.27908 19.762596,-21.06419 50.846971,-52.4906 L 9.6886665,99.069964 16.992901,102.80816 24.297138,106.54635 56.597692,74.0268 88.89824,41.507245 79.170682,32.060759 c -6.791004,-6.594777 -9.47586,-9.540792 -8.893774,-9.758883 0.458586,-0.171812 6.837089,-1.568056 14.17445,-3.102748 13.23771,-2.768821 41.324812,-8.905993 52.528832,-11.4778132 3.21009,-0.7368585 5.94889,-1.2280294 6.08622,-1.0914901 0.13731,0.1365311 -0.80358,6.8486893 -2.09088,14.9158843 -1.28731,8.067197 -3.83748,24.612022 -5.66704,36.766278 -1.82958,12.154254 -3.39005,22.446266 -3.46773,22.871144 -0.0789,0.431725 -4.30455,-3.21309 -9.57905,-8.262439 l -9.43782,-9.034924 -38.702116,38.949692 -38.702119,38.94973 -13.697377,-5.65148 c -7.533557,-3.10829 -13.8649004,-5.65146 -14.0696505,-5.65146 -0.2047459,0 -19.1536435,19.04408 -42.1086515,42.32019 -25.144179,25.49587 -42.44747,42.62157 -43.525072,43.07836 -2.238873,0.94905 -4.818826,0.93119 -7.55877,-0.0523 z m 74.857373,-20.96716 c -3.455062,-2.1204 -3.646233,-7.50025 -0.359,-10.10274 1.3909873,-1.10123 2.1824308,-1.12765 33.763272,-1.12765 h 32.338893 l 1.538223,1.61594 c 2.978384,3.12889 2.071402,8.72468 -1.644602,10.14665 -0.864934,0.33098 -13.708008,0.5447 -32.656563,0.54341 -29.8105003,-10e-4 -31.3105427,-0.0508 -32.980223,-1.07561 z m -0.618211,-20.3216 c -3.105824,-3.33698 -2.582409,-8.35717 1.069505,-10.25787 2.3496441,-1.22292 63.160519,-1.16982 65.51806,0.0571 3.048732,1.58677 4.239486,5.94711 2.369722,8.67754 -1.95184,2.85028 -0.612863,2.74521 -35.225772,2.76412 l -32.559926,0.0174 z m 5.3284918,-20.40679 c 0.9273144,-1.16132 4.67644,-5.09978 8.331388,-8.75214 l 6.6453611,-6.64069 7.9848571,3.34392 c 14.725262,6.16669 17.365012,7.05053 19.726065,6.60473 1.848649,-0.34906 4.157479,-2.42421 17.354828,-15.59847 8.372373,-8.35772 15.075369,-14.69233 14.895545,-14.07692 -1.454725,4.97845 -2.621616,11.81881 -3.101724,18.18241 -0.313398,4.15399 -0.826738,8.46218 -1.140753,9.57371 -0.903762,3.19913 -3.528343,6.36944 -6.486472,7.83518 l -2.690287,1.33303 -31.602417,0.15336 -31.6024181,0.15338 z M -23.902822,118.3011 c -3.076151,-9.95494 -6.399623,-16.0994 -16.106756,-29.778297 -9.935181,-14.000264 -13.148755,-20.062182 -16.163795,-30.490547 -2.464856,-8.525398 -3.198709,-15.063089 -2.888759,-25.735134 0.314218,-10.819002 1.587866,-17.487251 5.077249,-26.5821885 9.646643,-25.1435945 32.925952,-44.3490235 60.4696198,-49.8874295 8.3962652,-1.688299 23.0082422,-1.804743 31.2743092,-0.249228 9.990542,1.88003 21.578898,6.383636 29.406058,11.428139 8.759884,5.645632 19.124542,15.716624 24.422534,23.7305738 2.890272,4.3719396 8.679662,15.6593745 8.697752,16.957825 0.004,0.3153528 -7.433596,2.1795644 -16.528865,4.1426942 -9.095272,1.963127 -17.287271,3.873238 -18.204441,4.244687 -2.477788,1.003492 -3.710275,2.716 -4.033796,5.604846 l -0.289227,2.582621 8.700971,8.757302 8.700971,8.757304 -15.408214,15.515384 c -8.474518,8.533475 -15.479015,15.444134 -15.565552,15.357044 -0.08653,-0.0871 1.976528,-8.059224 4.58458,-17.71583 4.741787,-17.556995 4.741888,-17.557515 3.689647,-18.98169 -0.578747,-0.783318 -1.609703,-1.507267 -2.291012,-1.608771 -0.769858,-0.114701 -4.466683,1.632361 -9.766611,4.61554 -4.690326,2.640053 -8.770566,4.800098 -9.0672,4.800098 -0.296632,0 -2.478014,-2.454629 -4.847511,-5.454731 -5.074677,-6.425216 -5.548082,-6.853379 -7.577535,-6.853379 -1.288016,0 -2.399707,1.028211 -6.653695,6.154054 -2.809019,3.384731 -5.307811,6.154056 -5.552867,6.154056 -0.2450561,0 -4.2694653,-2.138684 -8.9431319,-4.752627 -4.6736653,-2.613946 -8.9076043,-4.753879 -9.4087511,-4.755406 -1.4842884,-0.0045 -3.398311,1.915713 -3.376813,3.387785 0.01096,0.750663 2.1832472,9.29518 4.8273008,18.987815 2.6440523,9.692639 6.04910551,22.255486 7.56678923,27.917438 L 3.599848,94.845512 -6.5868619,105.25105 c -5.6026901,5.72305 -11.1741491,11.41432 -12.3810201,12.64725 -3.931095,4.01602 -3.821201,4.00705 -4.93494,0.4028 z M 16.358407,94.330422 C 13.148313,92.625214 10.337721,90.80973 10.112651,90.296009 9.8875809,89.782302 7.169133,79.921112 4.0716548,68.382255 0.97417793,56.843412 -1.6842821,46.964309 -1.8360317,46.428708 c -0.1942743,-0.685682 1.63509173,0.120343 6.182688,2.72417 7.8907687,4.518005 7.7641807,4.544758 13.6793337,-2.890797 2.292927,-2.882288 4.294026,-5.236108 4.446886,-5.230709 0.15287,0.0055 2.240641,2.401672 4.63951,5.325057 2.39887,2.923388 4.939452,5.580248 5.645738,5.904138 1.106224,0.507292 2.157831,0.08257 7.589428,-3.065197 3.467897,-2.009749 6.372811,-3.471939 6.455364,-3.24931 0.156562,0.422237 -5.92438,23.081612 -8.798623,32.786194 l -1.656973,5.594598 -6.511638,6.573652 c -3.5814,3.615506 -6.765685,6.563888 -7.076185,6.551973 -0.310503,-0.01233 -3.190993,-1.416848 -6.40109,-3.122055 z"
       id="path1" /></g></svg>
