<?xml version="1.0" encoding="UTF-8" standalone="no"?>
<!-- Created with Inkscape (http://www.inkscape.org/) -->

<svg
   width="100"
   height="100"
   viewBox="0 0 182 182"
   version="1.1"
   id="svg1"
   xml:space="preserve"
   inkscape:version="1.3.2 (091e20e, 2023-11-25, custom)"
   sodipodi:docname="instagram.svg"
   xmlns:inkscape="http://www.inkscape.org/namespaces/inkscape"
   xmlns:sodipodi="http://sodipodi.sourceforge.net/DTD/sodipodi-0.dtd"
   xmlns="http://www.w3.org/2000/svg"
   xmlns:svg="http://www.w3.org/2000/svg"><sodipodi:namedview
     id="namedview1"
     pagecolor="#ffffff"
     bordercolor="#000000"
     borderopacity="0.25"
     inkscape:showpageshadow="2"
     inkscape:pageopacity="0.0"
     inkscape:pagecheckerboard="0"
     inkscape:deskcolor="#d1d1d1"
     inkscape:document-units="mm"
     inkscape:zoom="2.089941"
     inkscape:cx="156.22451"
     inkscape:cy="213.40315"
     inkscape:window-width="2558"
     inkscape:window-height="1360"
     inkscape:window-x="1273"
     inkscape:window-y="0"
     inkscape:window-maximized="0"
     inkscape:current-layer="layer1" /><defs
     id="defs1" /><g
     inkscape:label="Layer 1"
     inkscape:groupmode="layer"
     id="layer1"
     transform="translate(-14.639016,-58.06229)"><path
       style="fill:#000000"
       d="M 72.392941,238.33254 C 68.553502,238.17731 63.791002,237.86462 61.809607,237.63768 36.805452,234.77378 20.730148,219.97206 16.58758,195.9984 15.496493,189.68412 15.286016,183.98575 15.100499,155.73782 14.807257,111.08705 15.413824,101.54696 19.236023,90.694235 21.584809,84.02511 24.905195,78.711767 29.901918,73.626472 37.85126,65.53622 47.521306,60.996298 60.452024,59.283718 c 7.190124,-0.95228 23.920307,-1.310662 52.082826,-1.115683 33.48865,0.231854 38.84382,0.602408 47.80139,3.307642 7.9876,2.412297 13.7952,5.809055 19.61799,11.474197 8.44004,8.211525 12.89659,17.945384 14.66548,32.031856 0.3605,2.87085 0.46436,12.63264 0.46168,43.39167 -0.003,35.71239 -0.0648,40.13358 -0.61567,44.14111 -1.89807,13.80751 -6.42321,23.46567 -14.78361,31.55318 -8.65181,8.3694 -19.15456,12.60853 -34.51532,13.93113 -5.41794,0.4665 -62.962762,0.73038 -72.773849,0.33372 z M 137.5606,222.09557 c 9.13342,-0.39404 13.80614,-0.99145 18.17286,-2.32338 5.72133,-1.74511 9.81762,-4.27376 13.79596,-8.51626 5.5823,-5.95297 8.12506,-12.588 9.1595,-23.90058 0.58024,-6.34543 0.85791,-55.77293 0.38448,-68.43889 -0.44062,-11.78837 -0.99563,-16.3809 -2.57826,-21.334612 -1.84087,-5.761987 -4.07528,-9.423933 -8.10332,-13.280423 -6.25475,-5.98836 -13.60965,-8.532008 -26.83424,-9.280466 -18.05202,-1.02167 -69.586253,-0.699171 -78.635778,0.4921 -17.13977,2.256264 -27.04066,11.257452 -30.095371,27.360581 -1.158771,6.10854 -1.403265,14.02464 -1.405292,45.49976 -0.0024,37.8334 0.311526,43.46406 2.862077,51.32917 1.812067,5.58785 3.975276,8.97866 8.400188,13.1672 2.474204,2.34204 3.765812,3.24568 6.659079,4.65884 6.01731,2.93905 11.818525,4.10156 22.744583,4.55781 9.507327,0.39701 56.331794,0.40356 65.473534,0.009 z m -36.13825,-27.5824 c -8.192419,-0.55404 -16.844537,-3.81349 -23.931898,-9.01569 -2.569185,-1.88581 -7.316655,-6.65018 -9.380788,-9.41417 -2.23267,-2.98968 -4.372872,-6.84931 -5.858677,-10.56551 -2.332431,-5.83373 -3.204396,-10.56125 -3.193033,-17.31165 0.02159,-12.82837 4.836389,-24.11962 14.114836,-33.10092 6.932389,-6.71037 15.067339,-10.82789 24.60439,-12.45354 5.01634,-0.85506 13.85005,-0.5352 18.46184,0.6685 9.28899,2.42448 16.20207,6.47837 22.71057,13.3177 8.28824,8.70951 12.56437,19.51031 12.56437,31.73551 0,13.00541 -4.75582,24.24169 -14.08094,33.26817 -5.27331,5.10443 -10.63747,8.38419 -17.42934,10.65665 -6.05394,2.02556 -11.60226,2.68694 -18.58133,2.21495 z m 10.00461,-16.68379 c 5.75065,-1.18783 10.6857,-3.86727 14.88683,-8.08266 6.07818,-6.09882 8.95488,-12.91829 8.9691,-21.26206 0.0107,-6.2754 -1.58833,-11.59196 -5.05216,-16.79777 -5.63643,-8.47104 -14.75282,-13.31101 -25.03908,-13.29347 -8.01172,0.0136 -14.795924,2.76103 -20.79688,8.42202 -9.059338,8.54613 -11.727991,22.69221 -6.44,34.13737 3.907699,8.4577 11.898416,14.91312 20.821746,16.82115 3.249604,0.69485 9.423824,0.7219 12.650444,0.0554 z m 38.50233,-67.45094 c -2.63954,-0.89762 -5.8326,-4.2133 -6.67939,-6.9359 -2.11363,-6.795705 2.44831,-13.442371 9.54429,-13.905879 3.63009,-0.237117 5.75856,0.552364 8.27583,3.069629 2.51726,2.517265 3.30674,4.645735 3.06963,8.27583 -0.26614,4.07437 -2.28935,7.18752 -5.78147,8.89605 -2.48358,1.2151 -5.90451,1.45873 -8.42889,0.60027 z"
       id="path1" /></g></svg>
