<?xml version="1.0" encoding="UTF-8" standalone="no"?>
<!-- Created with Inkscape (http://www.inkscape.org/) -->

<svg
   width="100"
   height="100"
   viewBox="0 0 263.48587 263.48587"
   version="1.1"
   id="svg1"
   xml:space="preserve"
   inkscape:version="1.3.2 (091e20e, 2023-11-25, custom)"
   sodipodi:docname="Languages.svg"
   xmlns:inkscape="http://www.inkscape.org/namespaces/inkscape"
   xmlns:sodipodi="http://sodipodi.sourceforge.net/DTD/sodipodi-0.dtd"
   xmlns="http://www.w3.org/2000/svg"
   xmlns:svg="http://www.w3.org/2000/svg"><sodipodi:namedview
     id="namedview1"
     pagecolor="#ffffff"
     bordercolor="#000000"
     borderopacity="0.25"
     inkscape:showpageshadow="2"
     inkscape:pageopacity="0.0"
     inkscape:pagecheckerboard="0"
     inkscape:deskcolor="#d1d1d1"
     inkscape:document-units="mm"
     inkscape:zoom="8.3597643"
     inkscape:cx="71.951789"
     inkscape:cy="56.939404"
     inkscape:window-width="2558"
     inkscape:window-height="1360"
     inkscape:window-x="1273"
     inkscape:window-y="0"
     inkscape:window-maximized="0"
     inkscape:current-layer="layer1" /><defs
     id="defs1" /><g
     inkscape:label="Layer 1"
     inkscape:groupmode="layer"
     id="layer1"
     transform="translate(67.609879,26.59198)"><path
       style="fill:#000000;stroke-width:1.89654"
       d="m 10.58927,207.08414 c -1.4110853,-0.98836 -11.7727165,-21.82852 -11.7727165,-23.67826 0,-2.31497 1.39416854,-3.15101 10.4914453,-6.29133 4.8301892,-1.66735 9.8379802,-3.44772 11.1284212,-3.95635 3.04689,-1.20099 3.928537,-1.16616 5.538644,0.21879 1.61357,1.38795 1.79736,3.82028 0.39351,5.20786 -0.51482,0.50887 -3.792982,2.01864 -7.284804,3.35511 l -6.348766,2.42991 3.906932,1.79636 c 13.912142,6.39667 30.665573,9.37451 45.74568,8.13111 14.133626,-1.16537 27.559046,-5.53583 38.126344,-12.41154 4.9867,-3.24461 5.35959,-3.38659 7.20492,-2.74333 1.72126,0.60005 2.44528,1.71 2.44528,3.74877 0,2.02001 -1.04104,3.04465 -6.34877,6.24869 -20.336047,12.27599 -43.53504,16.12594 -68.371335,11.34649 -5.71135,-1.09908 -16.061007,-4.36991 -21.157252,-6.68636 l -3.331868,-1.51449 2.72141,5.09619 c 3.062167,5.7343 3.347666,7.4787 1.52269,9.30366 -1.391878,1.39189 -2.993997,1.53046 -4.609765,0.39872 z M 169.50071,180.6947 c -9.72711,-1.492 -20.63018,-6.43399 -27.90328,-12.64759 l -2.52068,-2.15348 -4.81105,0.72516 c -6.30398,0.95019 -18.43519,0.93501 -25.0156,-0.0313 -30.099457,-4.41996 -52.896971,-22.65791 -59.773132,-47.81835 -0.928888,-3.39889 -1.067493,-5.11769 -1.044601,-12.95365 0.0223,-7.636919 0.18622,-9.614741 1.059431,-12.783218 6.529754,-23.693518 26.925586,-41.254992 55.056142,-47.405127 4.24907,-0.928965 6.40671,-1.069917 16.60448,-1.084695 10.30578,-0.01498 12.38278,0.117202 17.20405,1.094508 15.08155,3.057135 28.12472,9.748528 38.52112,19.762056 23.79315,22.916913 24.18948,56.516826 0.94057,79.740396 -2.42577,2.42315 -5.48058,5.17021 -6.78848,6.10458 l -2.37796,1.69888 0.24018,4.63949 c 0.28663,5.53641 1.70406,9.68701 5.00262,14.64875 2.39715,3.60582 2.75755,5.55957 1.34451,7.28849 -0.89621,1.09654 -3.18918,1.5661 -5.73832,1.17509 z m -5.61621,-9.67195 c 0,-0.1286 -0.59486,-1.94172 -1.32192,-4.02903 -1.15697,-3.32151 -1.32457,-4.55695 -1.34302,-9.89972 -0.0118,-3.35752 0.14072,-6.67997 0.33834,-7.38321 0.22203,-0.78989 2.00313,-2.59119 4.65963,-4.71247 17.92123,-14.31052 24.82152,-33.53717 18.8423,-52.501197 -6.17138,-19.573385 -24.51673,-34.339203 -48.78577,-39.266688 -6.74609,-1.369699 -23.56594,-1.243583 -30.33318,0.22744 -21.335925,4.637882 -37.964654,16.670638 -45.61713,33.009113 -2.954626,6.30829 -3.939073,10.420631 -4.232161,17.678992 -0.402704,9.9731 1.710283,17.95843 6.996005,26.43902 2.91331,4.67422 9.735548,11.81536 14.666759,15.35238 15.197123,10.90041 36.510177,15.81726 55.607237,12.82834 2.68601,-0.42038 5.68241,-0.88416 6.65866,-1.03059 1.66208,-0.24931 2.0126,-0.046 5.5094,3.19633 4.21365,3.90696 8.82334,6.82033 14.06069,8.88649 3.63083,1.43238 4.29416,1.61849 4.29416,1.2048 z m -70.97654,-35.47739 -1.695974,-2.85739 2.028501,-0.51125 c 6.365595,-1.60433 15.813243,-5.63734 21.043243,-8.98293 l 2.84687,-1.82114 -1.68966,-1.79607 c -4.14351,-4.40451 -7.55732,-10.12442 -10.69052,-17.91218 l -1.76833,-4.395317 -5.199569,-0.138639 -5.199558,-0.138626 v -2.913632 -2.913684 h 17.263827 17.26383 l 2.68896,-5.738308 c 1.47892,-3.156064 3.28887,-7.412557 4.02209,-9.458881 l 1.33313,-3.720558 2.98675,0.929576 c 1.64271,0.511263 3.08042,1.02326 3.19491,1.137751 0.38301,0.382996 -2.84676,7.805951 -5.30248,12.186652 -1.33552,2.382425 -2.42821,4.406408 -2.42821,4.49772 0,0.09127 3.84588,0.166048 8.54642,0.166048 h 8.54641 v 2.930197 2.930211 h -5.32446 -5.32448 l -1.06851,3.54064 c -2.02469,6.70911 -6.50889,14.64529 -10.89562,19.28317 -0.82188,0.86893 -1.39946,1.65745 -1.28352,1.75223 4.85041,3.96584 15.21061,8.41705 23.99216,10.30816 l 1.3165,0.28349 -2.01189,2.91554 c -2.29527,3.3262 -1.5604,3.25637 -9.16751,0.87111 -6.31442,-1.97995 -11.08079,-4.2389 -15.54638,-7.36802 l -3.75118,-2.62853 -3.17085,2.15736 c -5.72465,3.89488 -12.16736,6.83029 -20.107842,9.16144 l -3.751084,1.10122 z M 124.01961,114.831 c 2.83137,-3.38722 6.02402,-8.82731 7.6405,-13.01898 0.80151,-2.078379 1.45728,-4.005719 1.45728,-4.282997 0,-0.332579 -3.98609,-0.504113 -11.71366,-0.504113 h -11.71368 l 1.00582,2.563911 c 1.73535,4.423599 4.89737,9.952409 7.87856,13.775679 1.57969,2.02589 3.03413,3.68343 3.23211,3.68343 0.19797,0 1.19386,-0.99762 2.21307,-2.21693 z M 109.33736,87.175098 c -0.72691,-1.700557 -2.36267,-5.087712 -3.63504,-7.527022 l -2.31341,-4.435112 2.17977,-1.05901 c 1.19887,-0.582462 2.39809,-1.059023 2.66493,-1.059023 1.03067,0 8.27932,12.698753 8.27932,14.504373 0,0.223156 -1.15377,0.838028 -2.56393,1.366368 -1.41015,0.528352 -2.7273,1.037298 -2.92697,1.130994 -0.19968,0.09363 -0.95779,-1.221011 -1.68467,-2.921568 z M -45.981363,174.76972 c -1.354334,-0.19884 -3.062022,-2.30042 -3.062022,-3.76833 0,-0.60513 0.744924,-2.18318 1.655386,-3.50677 3.836983,-5.57798 5.649349,-10.89943 5.662896,-16.62729 0.0081,-3.4177 0.181,-3.1636 -5.061336,-7.4377 -8.472742,-6.90784 -15.392471,-17.82436 -18.1847,-28.68808 -9.623417,-37.441786 25.044869,-73.390451 70.77652,-73.390451 19.358557,0 38.600989,6.607059 50.561767,17.360823 l 2.506181,2.253275 -2.501826,2.842218 -2.501827,2.842224 -2.741951,-2.235978 C 42.810106,57.630898 33.083875,53.133145 21.088056,50.522252 16.902379,49.611241 14.634321,49.448263 6.1420536,49.448263 c -8.5767828,0 -10.7463829,0.158874 -15.139369,1.108563 -14.0550986,3.0385 -25.0980996,8.703369 -34.3482946,17.620081 -6.854905,6.607778 -11.725058,14.667566 -14.088456,23.315499 -1.484344,5.431382 -1.471243,15.819564 0.02699,21.404424 1.238139,4.6153 4.063701,10.71128 6.950685,14.99565 2.444989,3.62845 8.332708,9.63627 12.264379,12.51457 1.536329,1.12471 3.074685,2.53738 3.418566,3.13926 0.426037,0.74568 0.619422,3.19488 0.606975,7.68728 -0.0163,5.89455 -0.156976,6.9783 -1.3277,10.23032 -0.720188,2.00056 -1.234424,3.71239 -1.142743,3.80407 0.319396,0.31939 6.88168,-2.36476 9.87785,-4.04032 3.14859,-1.76078 6.833086,-4.48659 10.243846,-7.57843 l 2.00525,-1.81776 4.343516,0.91542 c 9.39171616,1.97935 22.117947,2.06154 30.959502,0.19992 10.274387,-2.16327 20.123919,-6.42177 27.009542,-11.67768 l 2.181057,-1.66483 2.253352,3.13232 c 1.239342,1.72281 2.25335,3.22653 2.25335,3.34165 0,0.11511 -1.996811,1.54496 -4.437363,3.17742 -16.256067,10.87352 -37.30722,15.24338 -57.612135,11.95928 l -4.371261,-0.70698 -4.156301,3.17124 c -7.057221,5.38466 -17.525629,9.80196 -25.724024,10.8547 -1.694847,0.2176 -3.571631,0.32371 -4.170634,0.23579 z m 30.024822,-45.41106 c -2.081663,-0.0786 -3.784842,-0.31359 -3.784842,-0.52255 0,-0.20896 3.163159,-9.59468 7.029238,-20.85715 3.8660819,-11.262469 8.0673646,-23.718738 9.3361819,-27.680615 l 2.3069413,-7.203414 h 4.8417825 c 3.4350924,0 4.903203,0.177362 5.053193,0.61046 6.7986393,19.631253 18.8042353,55.057659 18.8042353,55.488009 0,0.4269 -1.178113,0.55107 -4.260134,0.44899 l -4.260131,-0.1411 -2.699095,-8.41616 c -1.4845,-4.62888 -2.863917,-8.41981 -3.065367,-8.42432 -0.20145,-0.004 -4.718968,-0.008 -10.0389261,-0.008 H -6.366113 l -2.6251,8.32814 c -1.443806,4.58051 -2.750062,8.37145 -2.902793,8.42434 -0.152728,0.0529 -1.980872,0.0321 -4.062535,-0.0465 z m 27.470627,-23.74168 c 0,-0.10922 -1.295882,-4.22981 -2.8797428,-9.15688 C 7.0504867,91.533001 5.380554,86.07328 4.9233858,84.327374 4.4662176,82.581456 3.9859599,80.823332 3.8561458,80.420431 c -0.1298128,-0.4029 -0.7796391,1.355224 -1.4440586,3.906943 -0.6644183,2.551707 -2.4045164,8.281032 -3.8668834,12.731819 -1.4623697,4.450797 -2.6588529,8.241747 -2.6588529,8.424347 0,0.18262 3.51624082,0.33196 7.8138689,0.33196 4.2976268,0 7.8138662,-0.0893 7.8138662,-0.19852 z M 95.667174,37.440758 c -2.133865,-0.859753 -2.868677,-4.528371 -1.208047,-6.031229 0.494698,-0.447688 3.605033,-1.797334 6.911863,-2.99921 3.30681,-1.201877 6.10908,-2.281915 6.22726,-2.400084 0.64765,-0.647651 -10.935814,-5.208765 -18.049735,-7.107281 -7.90313,-2.109133 -14.572455,-2.929031 -23.825723,-2.929031 -17.987147,0 -32.79784,4.175653 -46.931988,13.231766 -4.188668,2.683789 -5.788531,2.933926 -7.543099,1.179359 C 8.8874029,28.024745 9.862564,25.781383 14.590358,22.695264 25.748355,15.411756 38.024257,10.871694 52.048523,8.84191 60.045384,7.684495 76.468403,8.0627947 83.996408,9.5778189 90.624064,10.91165 98.86048,13.387039 104.28893,15.676582 c 2.27496,0.959502 4.301,1.744548 4.50232,1.744548 0.20132,0 -0.72602,-2.233108 -2.06073,-4.962463 -3.17302,-6.488504 -3.15884,-8.508926 0.0677,-9.6336828 2.98642,-1.0410732 3.59632,-0.3117813 9.55193,11.4217618 5.76111,11.350334 6.4088,13.464545 4.62061,15.082829 -0.87725,0.793901 -22.542461,8.635705 -23.682596,8.572002 -0.304712,-0.01708 -1.034129,-0.224396 -1.620925,-0.460819 z"
       id="path1" /></g></svg>
