<?xml version="1.0" encoding="UTF-8" standalone="no"?>
<!-- Created with Inkscape (http://www.inkscape.org/) -->

<svg
   width="100"
   height="100"
   viewBox="0 0 263.48587 263.48587"
   version="1.1"
   id="svg1"
   xml:space="preserve"
   inkscape:version="1.3.2 (091e20e, 2023-11-25, custom)"
   sodipodi:docname="language_code.svg"
   xmlns:inkscape="http://www.inkscape.org/namespaces/inkscape"
   xmlns:sodipodi="http://sodipodi.sourceforge.net/DTD/sodipodi-0.dtd"
   xmlns="http://www.w3.org/2000/svg"
   xmlns:svg="http://www.w3.org/2000/svg"><sodipodi:namedview
     id="namedview1"
     pagecolor="#ffffff"
     bordercolor="#000000"
     borderopacity="0.25"
     inkscape:showpageshadow="2"
     inkscape:pageopacity="0.0"
     inkscape:pagecheckerboard="0"
     inkscape:deskcolor="#d1d1d1"
     inkscape:document-units="mm"
     inkscape:zoom="8.3597643"
     inkscape:cx="81.880299"
     inkscape:cy="39.474797"
     inkscape:window-width="2558"
     inkscape:window-height="1360"
     inkscape:window-x="1273"
     inkscape:window-y="0"
     inkscape:window-maximized="0"
     inkscape:current-layer="layer1" /><defs
     id="defs1" /><g
     inkscape:label="Layer 1"
     inkscape:groupmode="layer"
     id="layer1"
     transform="translate(30.516531,-12.906742)"><path
       style="fill:#000000;stroke-width:2.72193"
       d="m -22.03081,257.48837 c -3.326818,-1.52768 -4.817653,-3.08702 -6.266422,-6.55441 -0.946807,-2.26603 -1.075516,-12.24162 -1.075516,-83.35786 V 86.792334 h 16.08234 16.0823403 v 66.323656 66.32365 l 1.5872085,2.37591 c 3.4701942,5.19456 -4.02107298,4.82093 96.6815692,4.82211 l 90.22758,10e-4 3.11989,-1.57327 c 5.96934,-3.01016 5.56491,2.24839 5.56614,-72.37054 l 0.001,-65.902618 h 16.09091 16.09087 l -0.18345,81.686578 -0.18347,81.68659 -1.86049,2.81121 c -3.76486,5.68875 -1.65174,5.45274 -50.73823,5.66731 L 23.87057,258.7868 c -40.327962,-0.0137 -43.284867,-0.0981 -45.901622,-1.29972 z m 177.23685,-43.47036 c -0.42181,-0.78818 -0.66889,-2.27493 -0.54904,-3.30391 0.18319,-1.5734 1.42108,-2.5554 7.78523,-6.17621 l 7.56732,-4.30536 -7.74212,-4.3939 c -7.28219,-4.1329 -7.74211,-4.52445 -7.74211,-6.59137 0,-1.20859 0.42772,-2.78238 0.95049,-3.49732 0.897,-1.22675 1.60454,-0.92936 12.57434,5.28541 l 11.62382,6.58528 0.0106,2.53446 0.0106,2.53445 -11.18502,6.38077 c -6.15174,3.50941 -11.4898,6.38074 -11.86236,6.38074 -0.3725,0 -1.02243,-0.64487 -1.44424,-1.43304 z M 23.768895,205.3122 v -3.84579 H 53.486268 83.20363 v 3.84579 3.84575 H 53.486268 23.768895 Z m 12.35706,-31.37689 c -12.063674,-3.39078 -18.258203,-17.00637 -13.099434,-28.79262 3.799842,-8.68148 13.598927,-13.5505 23.242075,-11.54857 4.158276,0.86323 9.66498,3.9727 9.66498,5.45752 0,0.4966 -1.049047,2.0476 -2.331232,3.44667 l -2.331219,2.5438 -2.168929,-1.60354 c -2.281463,-1.68674 -7.807518,-2.62001 -10.907233,-1.84204 -2.353306,0.59064 -5.84083,3.62662 -7.222174,6.28708 -0.646257,1.24472 -1.136661,3.84846 -1.136661,6.03502 0,6.22178 3.446983,10.91042 9.313212,12.668 3.254769,0.97512 8.296293,-0.14043 10.214897,-2.2606 1.714601,-1.89459 2.697633,-1.64946 5.106979,1.27349 l 2.135617,2.59086 -1.474198,1.56923 c -3.769447,4.0124 -12.647937,5.96296 -19.00668,4.1757 z m 38.05191,-0.11489 c -5.707336,-1.58563 -9.798851,-4.88007 -12.475618,-10.04519 -1.996671,-3.85282 -2.272512,-5.04924 -2.272512,-9.85673 0,-4.809 0.275841,-6.00453 2.277496,-9.87119 7.793806,-15.05564 29.233748,-14.38788 36.306107,1.13077 2.159502,4.73851 2.221612,12.61326 0.135404,17.16672 -4.293407,9.37109 -14.30114,14.16212 -23.970908,11.47562 z m 11.530106,-8.74948 c 6.693696,-4.13693 7.743672,-14.84246 2.017355,-20.56878 -4.583457,-4.58345 -11.080002,-4.82176 -15.77657,-0.57868 -3.276578,2.96019 -4.374286,6.12018 -3.986808,11.47696 0.331203,4.57878 1.706834,6.98657 5.445323,9.53095 3.09593,2.10707 9.008653,2.17417 12.3007,0.13965 z m 21.615439,8.31888 c -0.20307,-0.52885 -0.28509,-9.61005 -0.18264,-20.18049 l 0.18645,-19.21895 9.43963,0.0245 c 11.7682,0.0314 15.55144,1.12539 20.29483,5.86876 9.5445,9.54454 6.73499,26.02353 -5.45416,31.99073 -3.70301,1.81281 -4.74769,1.9788 -13.95881,2.21786 -7.98108,0.20714 -10.02943,0.0677 -10.32523,-0.70309 z m 18.56439,-7.58144 c 2.81149,-0.78107 6.51394,-4.28811 7.61765,-7.21559 1.61199,-4.27565 0.6365,-9.82843 -2.27617,-12.95672 -2.48002,-2.6636 -4.79981,-3.49212 -10.27464,-3.6697 l -5.16982,-0.16768 -0.24443,7.28356 c -0.1345,4.00594 -0.0441,9.5648 0.20089,12.35297 l 0.44541,5.06945 3.61132,-0.003 c 1.98621,-10e-4 4.72655,-0.31373 6.08963,-0.69239 z m 24.44211,-11.90467 v -20.29253 l 13.80985,0.18972 13.80983,0.18945 v 3.84576 3.84579 l -9.64875,0.19488 -9.64874,0.19489 0.20905,4.00062 0.20905,4.00064 7.69157,0.14284 c 4.23035,0.0787 8.08487,0.15733 8.56559,0.17476 0.57846,0.0217 0.87403,1.21412 0.87403,3.52795 v 3.49614 h -8.74039 -8.7404 v 4.54501 4.54501 h 9.78925 9.78925 v 3.84579 3.84577 H 164.31445 150.3298 Z M 34.606994,116.61116 c -10.892366,-6.27952 -11.193256,-6.51509 -11.397599,-8.92464 l -0.20989,-2.47486 11.236888,-6.412733 c 6.180291,-3.526993 11.492027,-6.412719 11.803869,-6.412719 0.977409,0 2.337189,3.212203 2.089251,4.93542 -0.181361,1.260453 -1.877877,2.589399 -7.213621,5.650782 -3.83708,2.20153 -7.063158,4.26273 -7.169062,4.58044 -0.105908,0.31771 3.033528,2.34828 6.976508,4.51237 6.348313,3.48429 7.193113,4.17022 7.379139,5.9915 0.125376,1.22774 -0.297313,2.6507 -1.048834,3.53045 l -1.258935,1.47374 z m 120.599046,4.40899 c -0.42181,-0.78819 -0.66889,-2.2584 -0.54904,-3.26718 0.18236,-1.536 1.44915,-2.51385 7.79369,-6.01679 l 7.57579,-4.18271 -7.75058,-4.5099 c -6.93317,-4.034256 -7.75058,-4.715279 -7.75058,-6.457325 0,-1.071068 0.55064,-2.585904 1.22363,-3.366285 1.21262,-1.40601 1.32479,-1.359385 12.41138,5.158406 l 11.18773,6.577244 v 2.57494 2.57492 l -10.8381,6.17072 c -5.96097,3.3939 -11.22038,6.17212 -11.68753,6.17385 -0.4672,0.001 -1.19458,-0.64173 -1.61639,-1.42989 z M -29.357392,63.193264 c 0.01337,-13.290798 0.178668,-15.567885 1.310621,-18.060191 1.513417,-3.332213 4.141331,-5.595957 7.683908,-6.619018 1.724705,-0.498127 40.853015,-0.664564 123.196143,-0.524144 l 120.66869,0.205782 2.97548,1.96915 c 5.15282,3.410067 5.62943,5.353519 5.64725,23.028421 l 0.0165,15.208295 H 101.38367 -29.372748 Z m 28.67238566,1.430539 C 2.0134362,62.763995 2.7457031,61.482555 2.7696946,58.578319 2.7873839,56.432808 2.3092851,55.403623 0.41454135,53.508893 -3.3501615,49.744189 -8.871829,50.850757 -10.932618,55.782925 c -2.633466,6.302753 4.7224731,12.64894 10.24761166,8.840878 z M 25.216224,64.229456 c 4.448113,-2.99759 4.274502,-8.963973 -0.34276,-11.779566 -3.281483,-2.001048 -5.765224,-1.692199 -8.516429,1.059003 -2.866856,2.866866 -3.188441,6.192165 -0.882348,9.123907 2.721084,3.459291 6.144844,4.020439 9.741537,1.596656 z m 25.575831,0.238973 c 4.588564,-2.797918 4.381551,-9.78835 -0.362524,-12.24163 -2.656479,-1.373702 -4.495816,-1.383853 -7.096126,-0.03921 -6.416899,3.318308 -3.787051,13.507873 3.510154,13.600392 0.961438,0.01064 2.73827,-0.581588 3.948496,-1.319569 z"
       id="path1"
       sodipodi:nodetypes="csscccccsscsscccccscccccsscsssscccsscccccccccccssssscssssssscsssssssssssssssssccccssscccssscssccccccccccccccccsccccccccccccsscsssssssscsscscsssscccssscssscscccccssssssssssssscs" /></g></svg>
