<?xml version="1.0" encoding="UTF-8" standalone="no"?>
<!-- Created with Inkscape (http://www.inkscape.org/) -->

<svg
   width="100"
   height="100"
   viewBox="0 0 181 181"
   version="1.1"
   id="svg1"
   xml:space="preserve"
   inkscape:version="1.3.2 (091e20e, 2023-11-25, custom)"
   sodipodi:docname="linkedin.svg"
   xmlns:inkscape="http://www.inkscape.org/namespaces/inkscape"
   xmlns:sodipodi="http://sodipodi.sourceforge.net/DTD/sodipodi-0.dtd"
   xmlns="http://www.w3.org/2000/svg"
   xmlns:svg="http://www.w3.org/2000/svg"><sodipodi:namedview
     id="namedview1"
     pagecolor="#ffffff"
     bordercolor="#000000"
     borderopacity="0.25"
     inkscape:showpageshadow="2"
     inkscape:pageopacity="0.0"
     inkscape:pagecheckerboard="0"
     inkscape:deskcolor="#d1d1d1"
     inkscape:document-units="mm"
     inkscape:zoom="8.359764"
     inkscape:cx="99.584151"
     inkscape:cy="57.059027"
     inkscape:window-width="2558"
     inkscape:window-height="1360"
     inkscape:window-x="1273"
     inkscape:window-y="0"
     inkscape:window-maximized="0"
     inkscape:current-layer="layer1" /><defs
     id="defs1" /><g
     inkscape:label="Layer 1"
     inkscape:groupmode="layer"
     id="layer1"
     transform="translate(106.26567,-12.610287)"><path
       style="fill:#000000"
       d="m -24.244837,192.86059 c -18.331942,-1.89026 -35.145301,-8.82584 -48.957889,-20.19534 -17.274884,-14.2194 -28.764024,-34.46568 -32.027634,-56.43947 -3.57743,-24.086645 2.57513,-48.088247 17.424276,-67.973386 3.232315,-4.328533 12.853987,-13.950206 17.182521,-17.18252 24.67864,-18.428672 55.697223,-23.3180155 84.655115,-13.343869 2.037292,0.701717 6.244167,2.520916 9.348611,4.042663 10.230418,5.014784 16.134096,9.249342 24.351381,17.466627 8.072569,8.072568 12.704934,14.503123 17.456726,24.233066 4.181408,8.562006 6.960466,17.662766 8.331043,27.282204 0.875191,6.142558 0.883864,18.296795 0.01737,24.341665 -2.204345,15.37804 -8.227679,29.89511 -17.625002,42.47868 -3.251001,4.35328 -12.863448,13.96573 -17.21673,17.21673 -12.423385,9.2777 -26.391531,15.16327 -41.345126,17.42104 -5.3999968,0.81532 -16.70121,1.15649 -21.594662,0.65191 z m -17.901664,-76.79822 -0.09,-33.072916 h -10.936111 -10.936111 l -0.09,33.072916 -0.09,33.07292 h 11.116117 11.116117 z m 34.3833139,12.17083 0.098906,-20.90208 1.043598,-1.88404 c 1.4122282,-2.54954 3.5006397,-4.57028 5.83556868,-5.646492 1.54846591,-0.713715 2.51520382,-0.898531 4.78734902,-0.915221 2.4938574,-0.01832 3.1047067,0.11084 4.9237352,1.041084 2.5441682,1.301079 4.0938812,3.231249 5.1781472,6.449389 0.785238,2.33061 0.798961,2.67174 0.907678,22.56292 l 0.110387,20.19653 h 10.919963 10.919963 v -21.47324 c 0,-23.44865 -0.08967,-24.77439 -2.050305,-30.314927 C 31.098125,86.570116 22.038535,80.80172 10.053949,81.519702 3.5317123,81.910441 -1.9727181,84.623188 -5.8400514,89.352738 l -1.8242301,2.230939 -0.1763889,-4.297112 -0.1763889,-4.297111 -11.0243057,-0.09322 -11.024305,-0.09322 v 33.166136 33.16614 h 11.101788 11.1017893 z M -49.76921,73.513666 c 5.435928,-1.279471 8.802082,-5.30577 8.889253,-10.632546 0.05944,-3.632374 -0.827549,-5.877446 -3.298194,-8.348092 -1.70549,-1.70549 -2.388691,-2.121585 -4.572732,-2.784967 -6.568421,-1.995096 -13.242344,0.580999 -15.701478,6.060679 -0.875497,1.950866 -0.958257,2.472191 -0.826713,5.207634 0.121076,2.517752 0.321738,3.361963 1.168522,4.916119 2.632811,4.832167 8.244751,7.016147 14.341342,5.581173 z"
       id="path1" /></g></svg>
