<?xml version="1.0" encoding="UTF-8" standalone="no"?>
<!-- Created with Inkscape (http://www.inkscape.org/) -->

<svg
   width="100"
   height="100"
   viewBox="0 0 263.48587 263.48587"
   version="1.1"
   id="svg1"
   xml:space="preserve"
   inkscape:version="1.3.2 (091e20e, 2023-11-25, custom)"
   sodipodi:docname="Link.svg"
   xmlns:inkscape="http://www.inkscape.org/namespaces/inkscape"
   xmlns:sodipodi="http://sodipodi.sourceforge.net/DTD/sodipodi-0.dtd"
   xmlns="http://www.w3.org/2000/svg"
   xmlns:svg="http://www.w3.org/2000/svg"><sodipodi:namedview
     id="namedview1"
     pagecolor="#ffffff"
     bordercolor="#000000"
     borderopacity="0.25"
     inkscape:showpageshadow="2"
     inkscape:pageopacity="0.0"
     inkscape:pagecheckerboard="0"
     inkscape:deskcolor="#d1d1d1"
     inkscape:document-units="mm"
     inkscape:zoom="8.3597643"
     inkscape:cx="77.573957"
     inkscape:cy="59.331816"
     inkscape:window-width="2558"
     inkscape:window-height="1360"
     inkscape:window-x="1273"
     inkscape:window-y="0"
     inkscape:window-maximized="0"
     inkscape:current-layer="layer1" /><defs
     id="defs1" /><g
     inkscape:label="Layer 1"
     inkscape:groupmode="layer"
     id="layer1"
     transform="translate(30.516531,-12.906742)"><path
       style="fill:#000000;stroke-width:2.63881"
       d="m 22.497282,275.56492 c -22.35553192,-2.7311 -40.870712,-18.66305 -47.649377,-41.00132 -1.663111,-5.48061 -1.851348,-7.13477 -1.851348,-16.2691 0,-9.09488 0.191868,-10.7976 1.817607,-16.13118 1.901717,-6.23897 4.490876,-11.78087 7.699493,-16.48016 2.556444,-3.74412 50.100862,-51.97149 54.602529,-55.38685 7.692886,-5.83653 17.137332,-9.08113 28.318954,-9.72882 l 7.131396,-0.41308 -0.265466,-7.17124 c -0.441898,-11.93782 2.252775,-22.253456 8.219373,-31.465107 3.546339,-5.475101 49.869587,-52.927172 55.739337,-57.097594 21.37833,-15.1892788 49.11409,-14.363114 69.01963,2.055901 8.67831,7.158283 15.74904,18.331294 18.8619,29.805195 2.09994,7.740294 2.09938,22.090278 -0.001,29.826648 -1.65356,6.090076 -5.0463,13.642121 -8.29683,18.468197 -3.48546,5.17493 -50.44416,52.01518 -55.51887,55.37886 -8.6043,5.70317 -17.85795,8.50251 -28.13195,8.51028 l -6.10093,0.006 v 9.99886 c 0,8.59689 -0.22271,10.70832 -1.58895,15.05903 -1.89271,6.02756 -4.79342,11.98725 -8.09509,16.63192 -3.50869,4.93585 -48.509586,50.70904 -53.697577,54.61909 -11.247358,8.47682 -26.226444,12.49453 -40.212681,10.78587 z m 14.76407,-24.07553 c 8.726137,-2.27286 10.351388,-3.61653 36.195262,-29.92478 14.420553,-14.67968 24.904226,-25.90287 25.999612,-27.83369 2.774634,-4.89063 4.160714,-11.15874 3.730264,-16.86856 l -0.36386,-4.82672 12.99023,-13.31808 c 11.4189,-11.70705 13.24554,-13.31667 15.10083,-13.30651 3.92727,0.0211 9.39422,-1.34205 13.56981,-3.38441 3.55581,-1.73921 7.55556,-5.45 27.67751,-25.67781 12.93654,-13.00467 24.32371,-24.823814 25.30475,-26.264843 2.6565,-3.901895 4.86301,-10.603432 5.33683,-16.208747 0.83344,-9.8594 -2.3941,-18.9563 -9.37226,-26.415972 -10.9815,-11.73925 -28.28002,-13.82586 -41.94172,-5.059167 -3.48687,2.237502 -48.18107,47.084565 -51.608454,51.78494 -2.982589,4.090378 -4.632031,10.354509 -4.632031,17.591169 v 6.20568 l -12.710221,12.63013 -12.710222,12.63015 -5.302082,0.75434 c -10.07717,1.43378 -10.290431,1.59795 -37.840105,29.13427 -21.2300282,21.21967 -25.1482048,25.44551 -26.96409233,29.08128 -3.22825647,6.4636 -4.36239087,11.72884 -3.90222047,18.11608 0.6654983,9.23722 3.84408377,16.37837 10.0284716,22.53044 8.1811392,8.13836 20.4076072,11.49753 31.4136982,8.63081 z m 27.796983,-64.93727 c -6.4653,-2.50018 -9.512439,-9.34687 -7.046447,-15.83291 0.613686,-1.61415 62.278072,-64.48404 65.945982,-67.23521 1.9866,-1.49007 5.94676,-2.13846 8.65454,-1.41693 3.39836,0.9055 5.965,3.09708 7.44598,6.35786 1.58934,3.49942 1.59433,6.7695 0.0158,10.22146 -0.84046,1.83763 -11.59503,13.10931 -33.37061,34.97511 -27.625538,27.74 -32.521717,32.37339 -34.920669,33.04658 -3.330882,0.93469 -4.038978,0.92246 -6.724337,-0.11584 z"
       id="path1" /></g></svg>
