<?xml version="1.0" encoding="UTF-8" standalone="no"?>
<!-- Created with Inkscape (http://www.inkscape.org/) -->

<svg
   width="100"
   height="100"
   viewBox="0 0 357.74719 357.74719"
   version="1.1"
   id="svg1"
   xml:space="preserve"
   inkscape:version="1.3.2 (091e20e, 2023-11-25, custom)"
   sodipodi:docname="Luminar_Neo_logo.svg"
   xmlns:inkscape="http://www.inkscape.org/namespaces/inkscape"
   xmlns:sodipodi="http://sodipodi.sourceforge.net/DTD/sodipodi-0.dtd"
   xmlns="http://www.w3.org/2000/svg"
   xmlns:svg="http://www.w3.org/2000/svg"><sodipodi:namedview
     id="namedview1"
     pagecolor="#ffffff"
     bordercolor="#000000"
     borderopacity="0.25"
     inkscape:showpageshadow="2"
     inkscape:pageopacity="0.0"
     inkscape:pagecheckerboard="0"
     inkscape:deskcolor="#d1d1d1"
     inkscape:document-units="mm"
     inkscape:zoom="5.911246"
     inkscape:cx="82.469922"
     inkscape:cy="71.727686"
     inkscape:window-width="2558"
     inkscape:window-height="1360"
     inkscape:window-x="1273"
     inkscape:window-y="0"
     inkscape:window-maximized="0"
     inkscape:current-layer="layer1" /><defs
     id="defs1" /><g
     inkscape:label="Layer 1"
     inkscape:groupmode="layer"
     id="layer1"
     transform="translate(30.516531,-12.906742)"><path
       style="fill:#000000;stroke-width:1.12251"
       d="m 31.264277,369.34167 c -21.795932,-2.80329 -40.5214269,-15.2719 -51.163949,-34.06814 -3.944817,-6.96712 -6.889805,-15.62782 -8.091351,-23.79525 -0.759415,-5.16209 -0.739324,-233.924462 0.02097,-238.744735 1.356775,-8.601996 4.026659,-16.356721 8.122818,-23.592869 3.198841,-5.650972 6.397269,-9.780096 11.4822721,-14.82344 C 2.7667108,23.276754 16.757831,16.728992 32.635811,15.129116 35.713974,14.818958 69.772291,14.729378 151.76335,14.815788 l 114.81701,0.121005 4.39105,0.881536 c 9.43958,1.895063 19.35663,6.101351 26.76236,11.351167 4.80527,3.406383 12.83207,11.434478 16.07807,16.080669 5.52949,7.914678 9.45916,17.244092 11.42843,27.132178 l 0.89749,4.50647 0.12233,113.837337 c 0.0869,80.85379 -0.003,115.31336 -0.31138,118.9316 -0.78101,9.17337 -2.79582,16.38481 -6.89751,24.68762 -9.89554,20.031 -29.33342,33.85861 -51.80003,36.84923 -3.55917,0.47377 -21.63149,0.55236 -118.81869,0.51672 C 85.390894,369.6882 32.665201,369.52185 31.264277,369.34167 Z M 155.48609,254.2668 v -45.74953 l 31.34881,31.34696 31.34881,31.34698 4.79944,-4.79945 4.79946,-4.79945 -31.34698,-31.3488 -31.34697,-31.34882 h 45.74955 45.74955 v -6.66174 -6.66174 h -45.74955 -45.74955 l 31.34697,-31.34881 31.34698,-31.34882 -4.79946,-4.79944 -4.79944,-4.79946 -31.34881,31.34698 -31.34881,31.34697 V 130.23909 84.489552 h -6.66175 -6.66173 v 45.749538 45.74954 l -31.34881,-31.34697 -31.348812,-31.34698 -4.799452,4.79946 -4.799451,4.79944 31.346985,31.34882 31.34696,31.34881 H 86.810493 41.06095 v 6.66174 6.66174 h 45.749543 45.749537 l -31.33169,31.33354 -31.331698,31.33353 4.776891,4.81619 4.776891,4.81619 31.356096,-31.34844 31.35609,-31.34843 v 45.74953 45.74955 h 6.66173 6.66175 z"
       id="path1" /></g></svg>
