<?xml version="1.0" encoding="UTF-8" standalone="no"?>
<!-- Created with Inkscape (http://www.inkscape.org/) -->

<svg
   width="100"
   height="100"
   viewBox="0 0 263.48587 263.48587"
   version="1.1"
   id="svg1"
   xml:space="preserve"
   inkscape:version="1.3.2 (091e20e, 2023-11-25, custom)"
   sodipodi:docname="Play_Button.svg"
   xmlns:inkscape="http://www.inkscape.org/namespaces/inkscape"
   xmlns:sodipodi="http://sodipodi.sourceforge.net/DTD/sodipodi-0.dtd"
   xmlns="http://www.w3.org/2000/svg"
   xmlns:svg="http://www.w3.org/2000/svg"><sodipodi:namedview
     id="namedview1"
     pagecolor="#ffffff"
     bordercolor="#000000"
     borderopacity="0.25"
     inkscape:showpageshadow="2"
     inkscape:pageopacity="0.0"
     inkscape:pagecheckerboard="0"
     inkscape:deskcolor="#d1d1d1"
     inkscape:document-units="mm"
     inkscape:zoom="8.3597643"
     inkscape:cx="72.191031"
     inkscape:cy="56.700163"
     inkscape:window-width="2558"
     inkscape:window-height="1360"
     inkscape:window-x="1273"
     inkscape:window-y="0"
     inkscape:window-maximized="0"
     inkscape:current-layer="layer1" /><defs
     id="defs1" /><g
     inkscape:label="Layer 1"
     inkscape:groupmode="layer"
     id="layer1"
     transform="translate(84.574074,24.819601)"><path
       style="fill:#000000;stroke-width:2.6023"
       d="m -51.652565,237.06641 c -2.152447,-0.68764 -4.342879,-2.12926 -6.475357,-4.26175 -5.779026,-5.77904 -5.331188,4.82254 -5.331188,-126.2041 0,-129.730766 -0.35309,-120.45605 4.781252,-125.590395 1.48477,-1.484767 3.952959,-3.268676 5.484867,-3.964234 3.342186,-1.517517 10.196335,-1.71114 13.386601,-0.378162 1.205619,0.503738 9.553863,5.367739 18.551655,10.808888 15.9388062,9.6385266 120.453812,73.396724 142.523205,86.944669 6.07392,3.728653 15.51605,9.470417 20.98251,12.759475 10.92053,6.570646 14.46847,9.874817 15.83176,14.744039 1.82141,6.50543 -0.60134,15.0287 -5.1923,18.2667 -1.81756,1.28189 -21.01105,13.00595 -69.772231,42.61926 -13.804375,8.38358 -30.520215,18.56653 -37.146311,22.62875 -11.620564,7.1242 -37.6051898,22.90184 -66.93028,40.63951 -7.730446,4.67585 -15.388895,9.18041 -17.01877,10.01013 -3.793374,1.93109 -9.429096,2.3338 -13.675413,0.97722 z"
       id="path1" /></g></svg>
