<?xml version="1.0" encoding="UTF-8" standalone="no"?>
<!-- Created with Inkscape (http://www.inkscape.org/) -->

<svg
   width="100"
   height="100"
   viewBox="0 0 128.28276 128.28276"
   version="1.1"
   id="svg1"
   xml:space="preserve"
   inkscape:version="1.3.2 (091e20e, 2023-11-25, custom)"
   sodipodi:docname="SubstancePainter_Logo.svg"
   xmlns:inkscape="http://www.inkscape.org/namespaces/inkscape"
   xmlns:sodipodi="http://sodipodi.sourceforge.net/DTD/sodipodi-0.dtd"
   xmlns="http://www.w3.org/2000/svg"
   xmlns:svg="http://www.w3.org/2000/svg"><sodipodi:namedview
     id="namedview1"
     pagecolor="#ffffff"
     bordercolor="#000000"
     borderopacity="0.25"
     inkscape:showpageshadow="2"
     inkscape:pageopacity="0.0"
     inkscape:pagecheckerboard="0"
     inkscape:deskcolor="#d1d1d1"
     inkscape:document-units="mm"
     inkscape:zoom="5.911246"
     inkscape:cx="87.037487"
     inkscape:cy="73.588546"
     inkscape:window-width="2558"
     inkscape:window-height="1360"
     inkscape:window-x="1273"
     inkscape:window-y="0"
     inkscape:window-maximized="0"
     inkscape:current-layer="layer1" /><defs
     id="defs1" /><g
     inkscape:label="Layer 1"
     inkscape:groupmode="layer"
     id="layer1"
     transform="translate(-37.216797,-80.640068)"><path
       style="fill:#000000"
       d="m 57.765673,207.18534 c -4.767112,-0.49291 -8.849647,-2.21409 -12.543862,-5.28845 -3.262534,-2.71511 -6.172045,-7.38435 -7.319424,-11.74635 l -0.560292,-2.13007 v -43.22781 -43.22782 l 0.560292,-2.130068 c 2.500438,-9.505944 10.414333,-16.162083 20.269542,-17.048105 2.016677,-0.181307 16.636303,-0.239678 45.327521,-0.180976 46.71254,0.09557 43.24315,-0.02639 47.65558,1.675225 6.58538,2.539595 11.82492,8.496242 13.68135,15.553856 l 0.56029,2.130068 v 43.22782 43.22781 l -0.56562,2.12217 c -1.89231,7.09983 -7.08032,13.01818 -13.62369,15.54157 -4.46013,1.72001 -0.80544,1.59572 -48.4597,1.64809 -23.706383,0.0261 -43.948279,-0.0401 -44.981987,-0.14696 z M 135.0146,170.82473 c 1.54533,-0.36201 2.27076,-0.65508 2.44986,-0.98975 0.14976,-0.27982 0.22598,-2.04958 0.18525,-4.30127 l -0.0692,-3.82582 -2.89381,-0.1253 c -3.21612,-0.13925 -3.91108,-0.40931 -4.6815,-1.81918 -0.40113,-0.73407 -0.45099,-1.82909 -0.519,-11.39976 l -0.0752,-10.58768 h 4.27272 4.27272 v -4.85982 c 0,-4.20034 -0.0538,-4.88045 -0.39639,-5.01192 -0.21802,-0.0837 -2.12852,-0.15211 -4.24555,-0.15211 h -3.84917 l 0.1053,-1.69152 c 0.0579,-0.93034 0.16135,-3.69316 0.22986,-6.1396 l 0.12457,-4.44808 -0.68299,0.001 c -1.81578,0.003 -10.17216,1.23612 -10.48237,1.54634 -0.34913,0.34913 -1.10154,5.81683 -1.10154,8.00482 0,0.6383 -0.0705,1.51294 -0.15662,1.94365 l -0.15663,0.78311 -2.28669,0.003 c -1.25768,0.002 -2.5428,0.072 -2.85583,0.15591 l -0.56915,0.15249 0.068,4.79336 0.0679,4.79336 2.81921,0.0709 2.8192,0.0709 0.004,11.83246 c 0.005,13.10003 0.0907,14.03848 1.53225,16.74309 2.41615,4.53317 8.51934,6.22576 16.07047,4.4568 z m -58.263069,-9.01995 0.06586,-8.67397 4.946064,-0.14241 c 5.472256,-0.15755 8.235807,-0.61072 11.974655,-1.96359 5.577397,-2.01814 9.79659,-6.54956 11.28597,-12.12116 0.60777,-2.27356 0.75366,-7.35433 0.27733,-9.65764 -1.36657,-6.608 -5.465387,-11.20346 -12.045065,-13.50451 -3.900894,-1.36422 -5.700461,-1.52793 -16.736729,-1.52259 -5.466619,0.003 -10.287461,0.0744 -10.712981,0.15954 l -0.773674,0.15473 v 28.04005 28.04006 l 5.826358,-0.0673 5.826358,-0.0673 z m 0.05944,-28.13086 v -8.86337 l 0.939735,-0.15533 c 1.470197,-0.24301 6.28779,-0.18384 8.028249,0.0986 2.705748,0.43908 4.290717,1.18038 5.82802,2.72581 1.84164,1.85138 2.345118,3.36577 2.200352,6.61838 -0.08705,1.95589 -0.212071,2.50063 -0.836284,3.64393 -1.867525,3.42053 -5.465156,4.79535 -12.548474,4.79535 h -3.611598 z"
       id="path1" /></g></svg>
