<?xml version="1.0" encoding="UTF-8" standalone="no"?>
<!-- Created with Inkscape (http://www.inkscape.org/) -->

<svg
   width="100"
   height="100"
   viewBox="0 0 1257.4188 1257.4188"
   version="1.1"
   id="svg1"
   xml:space="preserve"
   inkscape:version="1.3.2 (091e20e, 2023-11-25, custom)"
   sodipodi:docname="Unity_Logo.svg"
   xmlns:inkscape="http://www.inkscape.org/namespaces/inkscape"
   xmlns:sodipodi="http://sodipodi.sourceforge.net/DTD/sodipodi-0.dtd"
   xmlns="http://www.w3.org/2000/svg"
   xmlns:svg="http://www.w3.org/2000/svg"><sodipodi:namedview
     id="namedview1"
     pagecolor="#ffffff"
     bordercolor="#000000"
     borderopacity="0.25"
     inkscape:showpageshadow="2"
     inkscape:pageopacity="0.0"
     inkscape:pagecheckerboard="0"
     inkscape:deskcolor="#d1d1d1"
     inkscape:document-units="mm"
     inkscape:zoom="5.911246"
     inkscape:cx="91.774221"
     inkscape:cy="57.179146"
     inkscape:window-width="2558"
     inkscape:window-height="1360"
     inkscape:window-x="1273"
     inkscape:window-y="0"
     inkscape:window-maximized="0"
     inkscape:current-layer="layer1" /><defs
     id="defs1" /><g
     inkscape:label="Layer 1"
     inkscape:groupmode="layer"
     id="layer1"
     transform="translate(403.04987,137.3766)"><path
       style="fill:#000000;stroke-width:1.85722"
       d="M 192.75244,1104.3288 C 178.71583,1096.2092 93.129013,1046.8254 2.5595067,994.58701 -88.01002,942.34864 -190.34506,883.32348 -224.8517,863.41995 c -34.50665,-19.90352 -62.73513,-36.34077 -62.72995,-36.52722 0.006,-0.18643 9.50722,-5.78757 21.11566,-12.44697 20.6425,-11.84197 46.60461,-26.75868 97.36573,-55.94216 62.05711,-35.67776 73.70795,-42.34682 75.04066,-42.95404 1.52245,-0.69367 -1.72549,-2.48182 58.945093,32.45186 10.694554,6.15786 28.8783387,16.62743 40.4084017,23.26574 11.5300823,6.63832 29.7138483,17.10912 40.4084033,23.26845 66.350692,38.21342 62.732922,36.23481 66.162742,36.18524 5.24874,-0.0758 9.37972,-3.19739 10.69485,-8.08142 0.42856,-1.59153 0.57944,-46.72171 0.47172,-141.09797 l -0.15842,-138.758 -1.46602,-3.64138 c -2.54179,-6.31344 -5.93928,-8.99154 -25.892871,-20.41009 C 85.830538,513.19037 31.969476,482.155 -24.176954,449.76445 l -102.084376,-58.89187 -3.69025,-2.1e-4 c -4.67201,-2.4e-4 -8.00485,1.99251 -9.90815,5.92419 l -1.28891,2.66253 -0.0219,115.71647 -0.0219,115.71646 -81.47968,46.78867 c -44.81383,25.73378 -88.69115,50.93551 -97.50514,56.00387 l -16.02547,9.21518 0.0195,-292.68165 0.0195,-292.68165 83.90847,-48.30779 c 46.14971,-26.569284 92.0106,-52.971073 101.91312,-58.670643 9.90253,-5.69957 26.34451,-15.169168 36.53777,-21.043551 39.70074,-22.8795963 55.57295,-32.0259035 70.48684,-40.6178 8.522216,-4.90966 60.173463,-34.674431 114.780533,-66.143937 54.607057,-31.469499 99.426807,-57.076049 99.599437,-56.903419 0.62483,0.62485 0.44096,222.878282 -0.18516,223.708041 -0.33421,0.44296 -9.08429,5.68586 -19.44464,11.650889 -95.586956,55.0347 -172.233869,99.23768 -176.330159,101.69123 -5.238704,3.13782 -7.082759,5.28783 -7.784789,9.07638 -0.5406,2.91738 0.597952,6.87739 2.610791,9.08062 0.902647,0.98804 13.672554,8.72198 28.3775757,17.18652 39.0663183,22.48747 50.2868573,28.95242 63.4989133,36.58624 27.923207,16.1338 134.758158,77.68966 144.130238,83.04455 2.90583,1.66028 6.57237,3.40665 8.14787,3.88081 3.83374,1.15378 8.98664,1.05721 12.69756,-0.23796 1.67103,-0.58323 18.07744,-9.70328 36.45872,-20.26681 18.38126,-10.56351 41.48696,-23.83568 51.34601,-29.49373 72.76745,-41.76069 116.52099,-66.8896 138.13696,-79.33601 19.34867,-11.14091 20.13435,-11.84598 20.13435,-18.06881 0,-5.58772 -1.62351,-7.43273 -11.64181,-13.23015 -4.61455,-2.6704 -41.33971,-23.91635 -81.6114,-47.21321 -40.27182,-23.29686 -81.7664,-47.3073 -92.2103,-53.35653 L 268.40426,89.552774 V -22.442139 c 0,-61.597209 0.20509,-111.992881 0.45574,-111.990391 0.25065,0.002 2.50653,1.18416 5.01307,2.62596 2.50653,1.4418 12.62382,7.27021 22.48287,12.95201 9.85904,5.6818 23.53106,13.5594 30.38226,17.50577 6.8512,3.946357 17.7888,10.255675 24.3058,14.020692 10.81609,6.248717 209.56989,120.769746 240.93132,138.823521 7.3525,4.232602 21.43468,12.34536 31.29373,18.028347 36.47469,21.024883 80.68282,46.49625 108.46466,62.49399 9.35772,5.38851 23.37154,13.4583 31.14181,17.93286 l 14.12774,8.13557 v 292.15436 c 0,214.03562 -0.18071,292.15434 -0.6759,292.15434 -0.37176,0 -3.44795,-1.5997 -6.83601,-3.55489 -6.92214,-3.99464 -28.75634,-16.58005 -83.93868,-48.38296 -20.7207,-11.94183 -52.49809,-30.22925 -70.6164,-40.63872 l -32.94241,-18.9263 -0.17421,-116.4085 -0.1742,-116.4085 -1.63094,-2.46443 c -1.86514,-2.81831 -5.87653,-5.04913 -9.0428,-5.02889 -1.14774,0.007 -3.18059,0.51129 -4.5174,1.11989 -6.43765,2.93081 -241.47892,138.96298 -243.54771,140.95535 -1.27192,1.22493 -3.18599,3.99875 -4.2535,6.16405 l -1.94095,3.93688 v 140.07501 c 0,132.22678 0.0596,140.18388 1.06274,142.01845 2.78195,5.08737 9.26821,7.0713 14.45975,4.42277 1.46864,-0.74924 13.20593,-7.43615 26.08289,-14.85982 12.87696,-7.42367 29.83849,-17.19391 37.69231,-21.71162 40.99107,-23.57916 83.44468,-48.02825 92.05824,-53.01643 32.04953,-18.56017 42.79365,-24.63537 43.56818,-24.63537 0.479,0 10.55982,5.56115 22.40182,12.35809 25.96168,14.90122 65.59263,37.6754 99.00566,56.89427 13.5353,7.78539 35.61701,20.47248 49.07047,28.19353 13.45346,7.72107 24.39108,14.24562 24.3058,14.499 -0.0852,0.2534 -28.18266,16.62639 -62.43864,36.38445 -34.256,19.75806 -144.31574,83.23547 -244.5772,141.0609 -100.26144,57.8255 -186.0053,107.2874 -190.5419,109.9155 -4.5366,2.6281 -8.77493,4.7686 -9.4185,4.7567 -0.64358,-0.011 -12.65463,-6.6649 -26.69124,-14.7845 z"
       id="path1" /></g></svg>
