<?xml version="1.0" encoding="UTF-8" standalone="no"?>
<!-- Created with Inkscape (http://www.inkscape.org/) -->

<svg
   width="100"
   height="100"
   viewBox="0 0 78.153819 78.153819"
   version="1.1"
   id="svg1"
   xml:space="preserve"
   inkscape:version="1.3.2 (091e20e, 2023-11-25, custom)"
   sodipodi:docname="UnrealEngine_Logo.svg"
   xmlns:inkscape="http://www.inkscape.org/namespaces/inkscape"
   xmlns:sodipodi="http://sodipodi.sourceforge.net/DTD/sodipodi-0.dtd"
   xmlns="http://www.w3.org/2000/svg"
   xmlns:svg="http://www.w3.org/2000/svg"><sodipodi:namedview
     id="namedview1"
     pagecolor="#ffffff"
     bordercolor="#000000"
     borderopacity="0.25"
     inkscape:showpageshadow="2"
     inkscape:pageopacity="0.0"
     inkscape:pagecheckerboard="0"
     inkscape:deskcolor="#d1d1d1"
     inkscape:document-units="mm"
     inkscape:zoom="5.911246"
     inkscape:cx="65.722184"
     inkscape:cy="85.092043"
     inkscape:window-width="2558"
     inkscape:window-height="1360"
     inkscape:window-x="1273"
     inkscape:window-y="0"
     inkscape:window-maximized="0"
     inkscape:current-layer="layer1" /><defs
     id="defs1" /><g
     inkscape:label="Layer 1"
     inkscape:groupmode="layer"
     id="layer1"
     transform="translate(-65.262627,-108.6859)"><path
       style="fill:#000000"
       d="m 98.070004,182.93714 c -8.557487,-1.43408 -17.308295,-6.87903 -22.584984,-14.05289 -3.127356,-4.25176 -5.617149,-10.15166 -6.46453,-15.31857 -0.581727,-3.54708 -0.390041,-10.77844 0.365505,-13.78872 3.441956,-13.7136 13.254093,-23.52574 26.967695,-26.96769 3.010281,-0.75555 10.24163,-0.94724 13.78872,-0.36551 12.98733,2.12994 23.85878,11.48022 28.10414,24.17172 1.17961,3.52645 1.68457,6.8528 1.68457,11.09686 0,5.88038 -1.16453,10.94653 -3.65464,15.89913 -5.16399,10.27067 -14.95204,17.55143 -26.00336,19.34237 -3.05602,0.49525 -9.19832,0.48684 -12.203116,-0.0167 z m 11.234056,-17.53282 c 0.10607,0 1.36081,0.77764 2.78832,1.72808 l 2.59547,1.72807 1.20036,-0.45843 c 3.31982,-1.26785 9.48135,-7.48848 11.65396,-11.76575 0.6814,-1.3415 0.50247,-1.43512 -0.8651,-0.45261 -1.84513,1.32559 -3.90342,1.97847 -6.38716,2.02598 l -2.08141,0.0398 -0.068,-10.62186 -0.068,-10.62186 1.10153,-2.11728 c 1.11415,-2.14154 3.53138,-5.62243 4.93747,-7.11011 0.98496,-1.04212 0.54211,-1.26582 -1.46896,-0.742 -4.01782,1.04651 -9.87373,5.13078 -12.51474,8.72855 l -0.88953,1.21179 -0.068,10.63638 -0.068,10.63639 -1.55457,0.74032 c -2.77063,1.31946 -4.81176,1.18728 -6.57594,-0.42585 l -0.5854,-0.53527 v -16.47584 c 0,-11.9433 -0.0798,-16.47584 -0.29009,-16.47584 -0.159557,0 -1.48109,0.57447 -2.936744,1.2766 -6.416386,3.0949 -12.077529,8.82252 -16.224888,16.41539 -1.193502,2.18503 -3.757742,8.53484 -3.646128,9.02889 0.03974,0.1759 0.950348,-0.86924 2.023575,-2.32252 1.073227,-1.45329 2.887956,-3.5997 4.032732,-4.76979 2.459682,-2.51409 3.659264,-3.05021 6.544032,-2.92471 l 1.781608,0.0775 v 9.8867 9.8867 l -2.601762,0.13009 -2.601763,0.13008 1.416682,1.50978 c 3.216142,3.42748 9.292001,6.37939 14.240366,6.91856 l 1.77476,0.19337 2.60621,-2.55466 c 1.43341,-1.40507 2.69298,-2.55467 2.79905,-2.55467 z"
       id="path1" /></g></svg>
