<?xml version="1.0" encoding="UTF-8" standalone="no"?>
<!-- Created with Inkscape (http://www.inkscape.org/) -->

<svg
   width="100"
   height="100"
   viewBox="0 0 263.48587 263.48587"
   version="1.1"
   id="svg1"
   xml:space="preserve"
   inkscape:version="1.3.2 (091e20e, 2023-11-25, custom)"
   sodipodi:docname="Video_Color_Grading.svg"
   xmlns:inkscape="http://www.inkscape.org/namespaces/inkscape"
   xmlns:sodipodi="http://sodipodi.sourceforge.net/DTD/sodipodi-0.dtd"
   xmlns="http://www.w3.org/2000/svg"
   xmlns:svg="http://www.w3.org/2000/svg"><sodipodi:namedview
     id="namedview1"
     pagecolor="#ffffff"
     bordercolor="#000000"
     borderopacity="0.25"
     inkscape:showpageshadow="2"
     inkscape:pageopacity="0.0"
     inkscape:pagecheckerboard="0"
     inkscape:deskcolor="#d1d1d1"
     inkscape:document-units="mm"
     inkscape:zoom="8.3597643"
     inkscape:cx="81.880299"
     inkscape:cy="59.092575"
     inkscape:window-width="2558"
     inkscape:window-height="1360"
     inkscape:window-x="1273"
     inkscape:window-y="0"
     inkscape:window-maximized="0"
     inkscape:current-layer="layer1" /><defs
     id="defs1" /><g
     inkscape:label="Layer 1"
     inkscape:groupmode="layer"
     id="layer1"
     transform="translate(30.516531,-12.906742)"><path
       style="fill:#000000;stroke-width:2.02872"
       d="m 169.72008,260.89504 c -5.10798,-0.6641 -10.931,-2.43753 -16.04461,-4.88644 -5.13922,-2.46115 -12.26186,-7.25924 -12.26186,-8.26004 0,-0.3471 2.84953,-3.48749 6.33229,-6.97863 l 6.33231,-6.34754 2.45202,1.7616 c 3.697,2.65603 8.83894,4.87736 13.54037,5.84954 l 4.21523,0.87159 v 9.27315 c 0,7.10593 -0.15236,9.25766 -0.65221,9.20694 -0.35872,-0.0363 -2.11982,-0.25696 -3.91354,-0.49017 z m 10.82714,-8.73937 v -9.30803 l 3.46886,-0.63918 c 4.42998,-0.81625 8.92587,-2.64774 12.97405,-5.28524 1.75816,-1.14549 3.41508,-2.0495 3.68204,-2.00898 0.26698,0.0406 3.26956,2.95235 6.67241,6.47064 l 6.187,6.3969 -3.05631,2.40973 c -1.68098,1.32534 -5.28693,3.54935 -8.01323,4.94219 -6.75878,3.45302 -11.43187,4.88214 -19.69725,6.02372 l -2.21757,0.30629 z m -47.07661,-12.72959 c -3.53348,-4.68807 -5.72238,-8.55885 -7.49232,-13.24923 -1.60964,-4.26548 -3.32166,-11.67125 -3.33752,-14.4372 l -0.0121,-1.96872 9.21632,0.14242 9.21629,0.14242 0.67948,3.39158 c 0.95735,4.77869 3.03255,9.84583 5.43931,13.28159 1.13269,1.61698 2.05944,3.08031 2.05944,3.25184 0,0.33619 -12.00283,12.8481 -12.56471,13.09762 -0.18624,0.0828 -1.62854,-1.56088 -3.20501,-3.65246 z m 77.94249,-2.67834 -6.42586,-6.44133 2.36994,-3.66353 c 2.8318,-4.37752 4.06732,-7.38217 5.27585,-12.83031 l 0.90285,-4.07006 9.2034,0.18097 c 5.37143,0.10569 9.19954,0.38808 9.19412,0.67846 -0.1061,5.68641 -2.64637,14.79609 -5.85286,20.98879 -1.83042,3.53511 -7.36931,11.5911 -7.97288,11.59608 -0.1479,0.001 -3.16036,-2.89635 -6.69456,-6.43906 z m -38.18498,-0.35457 c -12.63815,-1.93914 -22.69666,-11.37654 -25.28996,-23.72835 -0.98128,-4.67381 -0.97464,-6.69147 0.0382,-11.59436 2.82933,-13.69761 14.98967,-23.67041 28.91852,-23.71631 8.65543,-0.0285 15.10778,2.66205 21.44691,8.94315 9.01037,8.92789 11.34723,21.28459 6.18994,32.73089 -5.37259,11.92419 -18.67387,19.30281 -31.30347,17.36498 z m -200.529926,-20.7692 c -0.778601,-0.86034 -0.863542,-3.44857 -0.863542,-26.31269 0,-22.35746 0.09703,-25.45551 0.819941,-26.17843 0.680226,-0.68021 2.311301,-0.81994 9.572088,-0.81994 7.8162767,0 8.8444822,0.10208 9.6156852,0.9542 0.7786006,0.86034 0.8635416,3.44857 0.8635416,26.3127 0,22.35746 -0.097031,25.45551 -0.8199411,26.17843 -0.6802256,0.68021 -2.3113007,0.81993 -9.5720877,0.81993 -7.816277,0 -8.844482,-0.10208 -9.615685,-0.9542 z m 40.748524,0.39064 c -0.836886,-0.48744 -0.913118,-1.81318 -0.913118,-15.88012 0,-14.64037 0.04657,-15.37318 1.00926,-15.88839 0.572237,-0.30626 4.541018,-0.54015 9.165479,-0.54015 4.624461,0 8.593242,0.23389 9.165477,0.54015 0.962728,0.51523 1.009261,1.24813 1.009261,15.89595 0,14.64785 -0.04654,15.38075 -1.009261,15.89599 -1.313067,0.70274 -17.215066,0.68251 -18.427098,-0.0233 z m 40.423713,-0.24869 -1.159662,-0.81226 v -33.03965 c 0,-26.3536 0.13631,-33.15276 0.673575,-33.59865 1.015742,-0.843 18.410624,-0.92411 19.415019,-0.0904 0.680612,0.56485 0.782667,4.95653 0.782667,33.68152 0,29.33333 -0.09177,33.12377 -0.81995,33.8519 -1.201512,1.20151 -17.177939,1.20801 -18.891649,0.008 z m 68.953949,-15.01947 c 0.54253,-5.29538 2.27993,-11.14734 4.98177,-16.77961 2.37242,-4.94555 7.96114,-13.30542 8.89492,-13.30542 0.52717,0 12.53925,12.4761 12.53925,13.02361 0,0.21338 -1.03153,1.95853 -2.2923,3.8781 -2.60061,3.95949 -4.19939,7.90821 -5.19868,12.83982 l -0.68725,3.39159 -9.28963,0.14283 -9.28961,0.14282 z m 90.3174,1.36423 c -0.95144,-5.68537 -3.39764,-11.623 -6.6783,-16.21012 l -1.60241,-2.24052 6.56348,-6.56349 6.56349,-6.56349 2.65995,3.32531 c 5.50449,6.88139 10.61529,19.46929 11.10063,27.34094 l 0.16008,2.59523 -9.21873,0.14241 -9.21871,0.14242 z M 96.127627,194.27203 c -3.151932,-2.74057 -4.857529,-17.81011 -3.009914,-26.59341 2.944954,-13.99979 11.531447,-24.91323 24.554837,-31.20922 7.25413,-3.5069 10.15107,-4.11714 19.65157,-4.13959 9.14942,-0.0217 8.84882,0.21323 4.74596,-3.70826 -3.32155,-3.17471 -3.00144,-6.50524 0.62189,-6.47059 1.35793,0.0121 2.39528,0.89836 7.07014,6.03438 3.01329,3.31052 5.68401,6.45854 5.93495,6.99558 1.0297,2.20375 0.0121,3.28648 -7.22881,7.69563 -7.53846,4.59 -9.65663,5.22398 -10.73311,3.21254 -1.06365,-1.98741 -0.20064,-3.28218 3.62306,-5.43598 1.99684,-1.12476 3.51675,-2.22927 3.37757,-2.45448 -0.42457,-0.68695 -12.23274,-0.43808 -15.87787,0.33464 -11.34252,2.40447 -21.71186,10.46021 -26.74751,20.77956 -1.29532,2.65447 -2.726285,6.36754 -3.179892,8.25123 -1.226202,5.09202 -1.096255,13.91759 0.280591,19.05867 1.746031,6.51948 1.758291,6.75948 0.393685,7.7153 -1.53865,1.0777 -2.175684,1.0656 -3.477147,-0.0659 z M 147.4621,172.79665 c -4.06797,-4.07857 -6.09534,-6.47835 -5.90096,-6.9849 0.43224,-1.12641 8.47824,-6.34337 13.01849,-8.4411 4.54932,-2.10192 12.45583,-4.2608 16.57553,-4.52598 l 2.86978,-0.18461 0.14201,9.14027 0.14201,9.14031 -4.2268,0.87399 c -4.4996,0.93042 -9.5405,3.05438 -13.3483,5.62423 -1.28042,0.86413 -2.49601,1.57116 -2.70134,1.57116 -0.20534,0 -3.16201,-2.79597 -6.5704,-6.21326 z m 48.99945,3.85757 c -3.69254,-2.35409 -9.63044,-4.63552 -13.69676,-5.26248 l -2.21757,-0.34192 v -9.29257 -9.29257 l 1.95667,0.25584 c 11.7101,1.53118 20.43435,4.98422 28.2985,11.20045 l 2.74063,2.16636 -6.44578,6.4613 c -3.54518,3.5537 -6.5667,6.45519 -6.71451,6.44772 -0.14789,-0.008 -1.91232,-1.06143 -3.92118,-2.34213 z M -27.382676,122.02731 c -2.372748,-1.36077 -2.313983,-0.38698 -2.331421,-38.633835 l -0.01664,-36.39426 23.6106093,-0.05881 c 12.9858351,-0.03242 48.0299787,-0.0911 77.8758827,-0.130483 l 54.265255,-0.07154 v 36.700426 36.700422 l -1.46399,1.25918 -1.46399,1.25915 -74.716098,-0.0162 c -55.2143978,-0.0121 -74.988472,-0.17204 -75.759652,-0.61434 z M 48.19617,97.163903 c 5.209337,-3.11627 11.186367,-6.655965 13.282287,-7.865997 4.261677,-2.4604 5.350831,-4.070842 4.072544,-6.021731 -1.149077,-1.753718 -26.765829,-16.971056 -28.568949,-16.971056 -0.819538,0 -1.959673,0.469617 -2.53363,1.043579 -0.998354,0.998339 -1.043565,1.739277 -1.043565,17.102678 0,18.108594 0.05099,18.378464 3.472155,18.378464 1.420732,0 4.036073,-1.30914 11.319158,-5.665937 z M -29.730693,34.704758 c 0,-3.781932 0.487432,-5.105894 2.22953,-6.055851 0.891847,-0.486321 18.4230308,-0.673013 75.395371,-0.802902 82.699702,-0.18855 76.748912,-0.446205 77.885712,3.372364 0.31989,1.074504 0.50501,3.010248 0.41138,4.301657 l -0.17021,2.348017 -77.875868,0.132157 -77.875873,0.132144 z"
       id="path1" /></g></svg>
