<?xml version="1.0" encoding="UTF-8" standalone="no"?>
<!-- Created with Inkscape (http://www.inkscape.org/) -->

<svg
   width="100"
   height="100"
   viewBox="0 0 263.48587 263.48587"
   version="1.1"
   id="svg1"
   xml:space="preserve"
   inkscape:version="1.3.2 (091e20e, 2023-11-25, custom)"
   sodipodi:docname="Video_Post_Production.svg"
   xmlns:inkscape="http://www.inkscape.org/namespaces/inkscape"
   xmlns:sodipodi="http://sodipodi.sourceforge.net/DTD/sodipodi-0.dtd"
   xmlns="http://www.w3.org/2000/svg"
   xmlns:svg="http://www.w3.org/2000/svg"><sodipodi:namedview
     id="namedview1"
     pagecolor="#ffffff"
     bordercolor="#000000"
     borderopacity="0.25"
     inkscape:showpageshadow="2"
     inkscape:pageopacity="0.0"
     inkscape:pagecheckerboard="0"
     inkscape:deskcolor="#d1d1d1"
     inkscape:document-units="mm"
     inkscape:zoom="7.4190236"
     inkscape:cx="76.08818"
     inkscape:cy="55.532914"
     inkscape:window-width="2558"
     inkscape:window-height="1360"
     inkscape:window-x="1273"
     inkscape:window-y="0"
     inkscape:window-maximized="0"
     inkscape:current-layer="layer1" /><defs
     id="defs1" /><g
     inkscape:label="Layer 1"
     inkscape:groupmode="layer"
     id="layer1"
     transform="translate(109.21882,-33.147175)"><path
       style="fill:#000000;stroke-width:1.72086"
       d="m -101.365,221.97987 c -1.75707,-0.87801 -3.17608,-1.99052 -4.04368,-3.17028 -2.85178,-3.87783 -2.71628,-1.00451 -2.58603,-54.83593 l 0.11831,-48.90062 0.99253,-1.85688 c 1.43949,-2.69306 3.87117,-4.85717 6.60853,-5.88135 2.382393,-0.89137 3.012729,-0.89597 122.735182,-0.89597 134.172408,0 122.523228,-0.28719 126.389508,3.11603 1.12584,0.99102 2.40417,2.71441 3.01331,4.06246 l 1.05796,2.34127 0.1184,48.23378 c 0.10258,41.77868 0.0296,48.53913 -0.54489,50.51545 -0.85893,2.95462 -3.71711,6.21572 -6.64113,7.57732 l -2.23076,1.03878 -121.140116,0.005 -121.140119,0.005 z m 19.060049,-6.72801 c 0.975804,-0.74631 1.287586,-11.35606 0.366331,-12.46611 -0.486424,-0.58611 -1.656649,-0.70657 -6.863926,-0.70657 -4.292152,0 -6.445574,0.16796 -6.808864,0.53134 -0.356456,0.35645 -0.531335,2.34882 -0.531335,6.05334 0,7.39509 -0.258878,7.14148 7.289855,7.14148 3.97827,0 6.053635,-0.17542 6.547939,-0.55348 z m 27.973225,-0.14231 c 0.559656,-0.55966 0.695795,-1.79853 0.695795,-6.33175 0,-3.79314 -0.173733,-5.80968 -0.531334,-6.16728 -0.363018,-0.36301 -2.509084,-0.53134 -6.774524,-0.53134 -4.265441,0 -6.411507,0.1683 -6.774524,0.53134 -0.356454,0.35645 -0.531336,2.34882 -0.531336,6.05334 0,7.40096 -0.266796,7.14148 7.342858,7.14148 4.752599,0 6.010415,-0.13319 6.573065,-0.69579 z m 27.781165,-0.0369 c 0.698114,-0.63179 0.809727,-1.45974 0.809727,-6.00663 0,-2.90061 -0.206261,-5.65923 -0.458357,-6.1303 -0.420607,-0.78589 -0.9838,-0.85644 -6.837972,-0.85644 -8.044255,0 -7.710364,-0.32381 -7.426789,7.2028 0.159886,4.2439 0.356134,5.53623 0.906533,5.96989 0.480099,0.37828 2.521763,0.55347 6.449796,0.55347 4.72659,0 5.891143,-0.1301 6.557062,-0.73279 z m 27.40559657,0.27444 c 0.78066683,-0.41781 0.85644823,-0.97808 0.85644823,-6.33175 0,-3.97782 -0.1714842,-6.04487 -0.5313345,-6.40472 -0.36359575,-0.36361 -2.5252993,-0.53134 -6.8474997,-0.53134 -5.7914436,0 -6.3542446,0.0711 -6.7745236,0.85644 -0.252098,0.47107 -0.458359,3.16095 -0.458359,5.97753 0,6.96304 -0.0754,6.89219 7.3349684,6.89219 3.0601174,0 5.94925278,-0.20626 6.42030017,-0.45835 z M 28.796855,215.07261 c 0.703127,-0.63633 0.809728,-1.4699 0.809728,-6.33175 0,-3.76436 -0.1741,-5.77305 -0.531335,-6.13028 -0.363018,-0.36301 -2.509083,-0.53134 -6.774524,-0.53134 -4.265442,0 -6.411507,0.1683 -6.774524,0.53134 -0.356454,0.35645 -0.531335,2.34882 -0.531335,6.05335 0,7.38824 -0.249777,7.14147 7.228924,7.14147 4.741482,0 5.906904,-0.12992 6.573066,-0.73279 z m 27.720745,0.0435 c 0.924026,-0.64722 0.984079,-1.01378 0.984079,-6.00664 0,-2.92454 -0.206261,-5.70275 -0.458357,-6.1738 -0.420279,-0.7853 -0.98308,-0.85644 -6.774524,-0.85644 -4.322199,0 -6.483904,0.16778 -6.847501,0.53133 -0.357601,0.3576 -0.531336,2.37415 -0.531336,6.16728 0,4.53322 0.136138,5.77209 0.695797,6.33175 1.007628,1.00762 11.495014,1.01292 12.931842,0.006 z m 27.993618,-0.19628 c 0.786574,-0.78657 0.885558,-1.47594 0.885558,-6.16728 0,-4.21121 -0.141024,-5.42277 -0.695794,-5.97752 -0.565664,-0.56567 -1.844549,-0.6958 -6.837972,-0.6958 -7.725362,0 -7.520729,-0.18942 -7.520729,6.9616 0,6.8405 -0.08451,6.76456 7.527248,6.76456 5.165759,0 5.846957,-0.0908 6.641689,-0.88556 z m 27.481432,0.4272 c 0.78067,-0.41781 0.85645,-0.97807 0.85645,-6.33174 0,-3.97782 -0.17149,-6.04488 -0.53134,-6.40473 -0.36359,-0.3636 -2.5253,-0.53133 -6.8475,-0.53133 -5.79144,0 -6.35425,0.0711 -6.774527,0.85644 -0.25209,0.47105 -0.458351,3.19507 -0.458351,6.05336 0,7.00996 -0.203997,6.81636 7.182208,6.81636 3.14413,0 6.10201,-0.20627 6.57306,-0.45836 z m 28.05575,-0.23744 c 0.55966,-0.55966 0.69579,-1.79853 0.69579,-6.33175 0,-3.79313 -0.17373,-5.80968 -0.53133,-6.16728 -0.36302,-0.36301 -2.50908,-0.53133 -6.77452,-0.53133 -4.26545,0 -6.41151,0.1683 -6.77453,0.53133 -0.35979,0.3598 -0.53134,2.42548 -0.53134,6.39829 0,5.12048 0.0985,5.9244 0.77486,6.31829 0.42619,0.24822 3.40071,0.45737 6.61008,0.46477 4.7271,0.0101 5.96732,-0.11878 6.53099,-0.68232 z M -76.61524,182.47742 c 2.904006,-1.94001 3.778417,-5.35729 2.175375,-8.50156 -0.483374,-0.94811 -0.832064,-1.76457 -0.774864,-1.81436 0.429764,-0.37407 9.108336,-5.06185 9.371092,-5.06185 0.184359,0 5.415158,2.01461 11.623998,4.47688 10.829652,4.2948 11.40236,4.46966 14.080811,4.2991 2.148156,-0.13681 3.203621,-0.46303 4.576932,-1.41474 1.559896,-1.081 2.576627,-2.35544 2.188659,-2.74341 -0.0693,-0.0693 -5.680576,-1.72878 -12.469503,-3.68772 -6.788926,-1.95895 -12.430336,-3.64854 -12.536467,-3.75467 -0.106129,-0.10613 0.967505,-0.52903 2.385852,-0.93978 6.381045,-1.84791 22.450493,-6.88277 22.67095,-7.10323 0.464138,-0.46414 -0.703387,-1.75591 -2.722174,-3.01185 -3.538913,-2.20168 -4.863544,-1.98171 -16.041623,2.6636 -5.357631,2.22649 -10.741175,4.39618 -11.963436,4.82152 l -2.222287,0.77336 -3.533842,-1.90176 c -5.810786,-3.12711 -5.628363,-2.97427 -4.908107,-4.11207 1.721586,-2.71964 1.195785,-6.05501 -1.299979,-8.24633 -2.82051,-2.47643 -6.510309,-2.21541 -9.015437,0.63777 -3.351761,3.81744 -1.53879,9.02601 3.628911,10.42566 3.177764,0.86067 4.019232,1.25742 7.817836,3.68601 l 3.686114,2.35668 -2.38576,1.74308 c -3.724327,2.72106 -5.31203,3.57946 -7.699112,4.16263 -4.236956,1.03506 -6.046086,2.61568 -6.644437,5.80517 -0.41344,2.20383 1.014369,5.36085 2.961387,6.54791 2.033813,1.23998 5.103357,1.1938 7.049111,-0.106 z m -6.042863,-3.18122 c -1.477095,-1.47709 -1.390452,-3.10544 0.25266,-4.74856 1.083047,-1.08305 1.570459,-1.28217 2.545981,-1.04008 2.951434,0.73247 4.044367,3.46745 2.28131,5.70881 -1.232554,1.56694 -3.556328,1.60345 -5.079951,0.0798 z m 16.052657,-13.80139 c -0.511051,-0.51105 -0.358617,-1.79182 0.275938,-2.31846 0.815771,-0.67702 2.215789,0.38518 1.999802,1.51729 -0.163464,0.85685 -1.684559,1.39235 -2.27574,0.80117 z m -15.226149,-10.43376 c -1.453552,-0.70274 -2.146859,-2.71147 -1.486283,-4.30625 1.094523,-2.64241 4.988185,-2.77433 6.157205,-0.20861 0.759609,1.66716 0.618134,2.33472 -0.79406,3.74692 -1.358954,1.35895 -2.277882,1.54098 -3.876862,0.76794 z m 108.77833,19.95055 c 8.055239,-4.65897 14.83908,-8.83185 15.075205,-9.27305 0.709886,-1.32645 -0.326963,-2.78855 -3.038993,-4.28539 -1.382305,-0.76295 -7.989876,-4.58661 -14.683488,-8.49705 -6.693611,-3.91043 -12.422069,-7.10987 -12.729905,-7.10987 -0.307837,0 -0.958205,0.39851 -1.445262,0.88556 -0.8550255,0.85503 -0.8855586,1.47594 -0.8855586,18.00839 0,15.31163 0.077503,17.20849 0.7327952,17.93256 0.4030364,0.44536 1.0920114,0.80974 1.5310564,0.80974 0.439045,0 7.388913,-3.8119 15.44415,-8.47089 z m 81.503675,6.24142 c 0.82291,-0.44041 0.85645,-1.09595 0.85645,-16.73706 0,-16.99061 -0.0384,-17.34138 -1.90113,-17.34138 -0.46114,0 -3.47175,1.99251 -6.69023,4.4278 l -5.85179,4.42779 h -4.052047 c -5.83847,0 -5.857665,0.0278 -5.857665,8.51642 0,6.39402 0.03046,6.60877 1.086828,7.66514 0.99652,0.99654 1.425525,1.08683 5.163727,1.08683 h 4.076929 l 4.203321,3.15941 c 7.420227,5.57741 7.461997,5.59974 8.965607,4.79505 z m 17.87353,-1.62739 c 4.67197,-5.0385 6.56932,-15.53638 4.09429,-22.65334 -2.59796,-7.47044 -6.09984,-10.84271 -8.09594,-7.79629 -0.70772,1.08012 -0.67937,1.19386 0.88465,3.54943 5.19082,7.81794 5.02408,15.8467 -0.50255,24.19799 -1.05682,1.59698 -1.07486,1.72925 -0.38019,2.78944 0.96572,1.47387 2.58495,1.43858 3.99974,-0.0873 z m -6.83156,-6.84231 c 1.59777,-2.20567 2.65508,-5.52695 2.65508,-8.34034 0,-4.46872 -2.84142,-10.18393 -5.06311,-10.18393 -1.19395,0 -2.46414,1.04827 -2.46414,2.03362 0,0.35312 0.48845,1.38496 1.08544,2.29297 0.597,0.90802 1.29523,2.59738 1.5516,3.75413 0.57683,2.60246 -0.0101,5.61693 -1.5516,7.96054 -1.21347,1.84565 -1.28491,2.24099 -0.62708,3.47013 0.29461,0.55049 0.92637,0.85646 1.76834,0.85646 1.02788,0 1.59758,-0.39702 2.64547,-1.84358 z M -82.387477,127.67668 c 0.780667,-0.41781 0.856448,-0.97807 0.856448,-6.33174 0,-3.97782 -0.171484,-6.04488 -0.531335,-6.40473 -0.740412,-0.7404 -12.808634,-0.7404 -13.549046,0 -0.356456,0.35646 -0.531335,2.34883 -0.531335,6.05336 0,7.38288 -0.242806,7.14147 7.182202,7.14147 3.144138,0 6.102018,-0.20627 6.573066,-0.45836 z m 28.055751,-0.23745 c 0.559656,-0.55966 0.695795,-1.79853 0.695795,-6.33174 0,-3.79314 -0.173733,-5.80969 -0.531334,-6.16728 -0.740414,-0.7404 -12.808634,-0.7404 -13.549048,0 -0.356454,0.35646 -0.531336,2.34883 -0.531336,6.05336 0,7.40093 -0.266796,7.14147 7.342858,7.14147 4.752599,0 6.010415,-0.1332 6.573065,-0.69581 z m 27.781165,-0.0371 c 0.698114,-0.63178 0.809727,-1.45974 0.809727,-6.00662 0,-2.90061 -0.206261,-5.65925 -0.458357,-6.13028 -0.421744,-0.78804 -0.986416,-0.85646 -7.068891,-0.85646 -8.130499,0 -7.745154,-0.37843 -7.388024,7.25543 0.205141,4.38506 0.387918,5.43735 1.025395,5.90348 0.536317,0.39217 2.549679,0.56725 6.523088,0.56725 4.72659,0 5.891143,-0.1301 6.557062,-0.7328 z m 27.40559657,0.27445 c 0.78066683,-0.41781 0.85644823,-0.97808 0.85644823,-6.33175 0,-3.97782 -0.1714842,-6.04487 -0.5313345,-6.40472 -0.74041266,-0.74041 -12.8086343,-0.74041 -13.5490463,0 -0.357667,0.35766 -0.531336,2.37558 -0.531336,6.1738 0,7.20617 -0.196022,7.02102 7.4334895,7.02102 3.0059312,0 5.85073168,-0.20626 6.32177907,-0.45835 z M 28.796855,127.40217 c 0.703127,-0.63632 0.809728,-1.46989 0.809728,-6.33174 0,-3.76436 -0.1741,-5.77305 -0.531335,-6.13028 -0.740414,-0.74041 -12.808634,-0.74041 -13.549048,0 -0.356454,0.35646 -0.531335,2.34883 -0.531335,6.05336 0,7.38821 -0.249777,7.14146 7.228924,7.14146 4.741482,0 5.906904,-0.12992 6.573066,-0.7328 z m 27.895097,0 c 0.703127,-0.63632 0.809727,-1.46989 0.809727,-6.33174 0,-3.76436 -0.1741,-5.77305 -0.531334,-6.13028 -0.740413,-0.74041 -12.808634,-0.74041 -13.549048,0 -0.359794,0.3598 -0.531336,2.42547 -0.531336,6.3983 0,5.12046 0.09859,5.92438 0.774865,6.31827 0.426176,0.24822 3.349433,0.45738 6.496131,0.46479 4.715333,0.0101 5.863635,-0.11523 6.530995,-0.71934 z m 27.819266,-0.15281 c 0.786574,-0.78658 0.885558,-1.47594 0.885558,-6.16728 0,-4.21121 -0.141024,-5.42275 -0.695794,-5.97753 -0.568355,-0.56835 -1.867954,-0.69579 -7.095428,-0.69579 H 71.20592 l -0.43182,1.13577 c -0.2375,0.62467 -0.431819,3.27023 -0.431819,5.879 0,6.84193 -0.142592,6.71139 7.330966,6.71139 5.362041,0 6.040245,-0.0878 6.837971,-0.88556 z m 27.642082,0.18976 c 0.55966,-0.55966 0.6958,-1.79853 0.6958,-6.33174 0,-3.79314 -0.17374,-5.80969 -0.53134,-6.16728 -0.36359,-0.36361 -2.5253,-0.53134 -6.8475,-0.53134 -5.79144,0 -6.35425,0.0711 -6.774527,0.85645 -0.25209,0.47104 -0.458351,3.19505 -0.458351,6.05335 0,7.02773 -0.227715,6.81636 7.342848,6.81636 4.7526,0 6.01042,-0.1332 6.57307,-0.6958 z m 27.8951,0 c 0.55966,-0.55966 0.69579,-1.79853 0.69579,-6.33174 0,-3.79314 -0.17373,-5.80969 -0.53133,-6.16728 -0.74042,-0.74041 -12.80863,-0.74041 -13.54905,0 -0.35979,0.35979 -0.53134,2.42547 -0.53134,6.3983 0,5.12046 0.0985,5.92438 0.77486,6.31827 0.42619,0.24822 3.40071,0.45738 6.61008,0.46479 4.7271,0.0101 5.96732,-0.11878 6.53099,-0.68234 z"
       id="path1" /></g></svg>
