<?xml version="1.0" encoding="UTF-8" standalone="no"?>
<!-- Created with Inkscape (http://www.inkscape.org/) -->

<svg
   width="100"
   height="100"
   viewBox="0 0 263.48587 263.48587"
   version="1.1"
   id="svg1"
   xml:space="preserve"
   inkscape:version="1.3.2 (091e20e, 2023-11-25, custom)"
   sodipodi:docname="Video_White_Balance.svg"
   xmlns:inkscape="http://www.inkscape.org/namespaces/inkscape"
   xmlns:sodipodi="http://sodipodi.sourceforge.net/DTD/sodipodi-0.dtd"
   xmlns="http://www.w3.org/2000/svg"
   xmlns:svg="http://www.w3.org/2000/svg"><sodipodi:namedview
     id="namedview1"
     pagecolor="#ffffff"
     bordercolor="#000000"
     borderopacity="0.25"
     inkscape:showpageshadow="2"
     inkscape:pageopacity="0.0"
     inkscape:pagecheckerboard="0"
     inkscape:deskcolor="#d1d1d1"
     inkscape:document-units="mm"
     inkscape:zoom="8.3597643"
     inkscape:cx="84.511952"
     inkscape:cy="57.776749"
     inkscape:window-width="2558"
     inkscape:window-height="1360"
     inkscape:window-x="1273"
     inkscape:window-y="0"
     inkscape:window-maximized="0"
     inkscape:current-layer="layer1" /><defs
     id="defs1" /><g
     inkscape:label="Layer 1"
     inkscape:groupmode="layer"
     id="layer1"
     transform="translate(113.69173,26.845177)"><path
       style="fill:#000000;stroke-width:2.2991"
       d="m -110.88858,206.68497 -2.00808,-2.00809 v -19.31047 c 0,-20.98591 0.11765,-21.79781 3.37377,-23.28137 0.91648,-0.41759 7.90023,-0.64094 20.039723,-0.64094 20.244625,0 21.126713,0.13176 22.603916,3.37377 0.934403,2.05077 0.876293,38.57817 -0.06465,40.6433 -1.412543,3.10021 -2.34748,3.23188 -22.948615,3.23188 h -18.987974 z m 29.043855,-9.15158 c 4.775402,-2.16891 5.643487,-7.92347 1.7493,-11.59616 l -1.944325,-1.83374 1.385519,-1.3335 c 1.912529,-1.84075 2.36384,-4.75698 1.136471,-7.34347 -1.559509,-3.28641 -3.663236,-3.94203 -12.649083,-3.94203 h -7.73635 v 13.58407 13.58409 l 7.825607,-0.0138 c 6.335611,-0.0109 8.283952,-0.22117 10.232861,-1.1063 z m -12.742963,-7.22521 v -3.61953 l 4.822111,0.27912 c 4.107671,0.2378 4.982712,0.4775 5.906119,1.61786 1.390771,1.71752 1.367916,2.69577 -0.09721,4.16088 -0.984353,0.98436 -1.968707,1.18124 -5.906119,1.18124 h -4.724898 z m 0,-10.85044 v -3.24835 h 4.357274 c 4.857282,0 5.893222,0.62151 5.578155,3.34661 -0.250797,2.16921 -2.251717,3.13042 -6.539408,3.14141 l -3.396021,0.01 z m 65.600799,27.08852 c -1.187262,-1.50936 -1.224091,-2.20052 -1.224091,-22.97168 v -21.41549 l 2.207514,0.49788 c 1.214133,0.27383 3.340337,0.3426 4.724897,0.15288 l 2.517382,-0.34505 v 21.53465 21.53469 l -1.366943,1.28418 c -1.993699,1.87298 -5.273836,1.7429 -6.858759,-0.27201 z m 77.370171,0 c -1.212132,-1.54096 -1.224091,-1.96364 -1.224091,-43.26233 v -41.70615 h 4.724894 4.724899 v 42.08111 c 0,41.29362 -0.02208,42.1032 -1.181225,43.26234 -1.806167,1.80614 -5.482736,1.61046 -7.044477,-0.37497 z m 78.186378,0.10647 -1.44969,-1.44969 -2.1e-4,-26.75202 -2.2e-4,-26.75205 4.87277,0.0701 4.87276,0.0701 v 26.70661 26.70663 l -1.65712,1.42504 c -2.16557,1.86229 -4.761,1.85266 -6.63829,-0.0246 z M -31.200741,154.72317 c -10.869979,-3.55473 -16.513988,-15.82469 -11.890697,-25.85014 5.639777,-12.22966 20.946404,-15.29772 31.001143,-6.21387 1.280239,1.15661 3.1046445,3.64557 4.0542338,5.531 1.4747951,2.92821 1.7278641,4.11692 1.7356976,8.15292 0.00779,3.97876 -0.2492241,5.25107 -1.6271018,8.05683 -1.926554,3.92305 -5.9109646,7.80056 -9.7769096,9.51463 -3.447837,1.5287 -10.079446,1.92604 -13.496366,0.80863 z m 10.230812,-9.85813 c 5.840629,-2.82739 7.016352,-10.39635 2.341141,-15.07157 -6.217102,-6.21707 -16.307087,-1.9998 -16.307087,6.81585 0,7.22919 7.24253,11.51048 13.965946,8.25572 z m 145.407259,-0.74532 c -5.78329,-2.16194 -8.82126,-4.85391 -11.77556,-10.43439 -1.161,-2.19307 -1.40825,-3.53552 -1.41409,-7.67797 -0.005,-4.31145 0.22641,-5.49569 1.64684,-8.38821 3.67645,-7.48665 11.99234,-11.98884 19.70433,-10.66782 4.9663,0.85068 8.69497,2.82719 11.75577,6.23154 8.59766,9.56266 5.51005,24.39887 -6.20888,29.83408 -3.89728,1.80755 -10.41952,2.33221 -13.70841,1.10277 z m 9.92369,-9.8857 c 5.86997,-2.84159 7.13085,-10.66968 2.43495,-15.11701 -5.00651,-4.74152 -12.31885,-3.53154 -15.25002,2.52347 -2.41248,4.9835 -0.51345,10.4592 4.40152,12.6913 3.14925,1.43023 5.30901,1.40512 8.41355,-0.0977 z m -243.52813,-2.57818 c -3.61434,-1.6031 -3.72955,-2.3328 -3.72955,-23.6235 V 88.817445 l 1.72339,-1.928807 1.72339,-1.928806 h 19.882396 19.882396 l 1.723389,1.928806 1.723389,1.928807 v 19.766865 19.76688 l -1.722639,1.9288 -1.722639,1.92881 -18.801128,0.1407 c -15.148584,0.11332 -19.166604,-0.0206 -20.682394,-0.69369 z m 25.075236,-9.50202 c 1.667737,-0.49524 3.842179,-1.58198 4.832093,-2.41495 1.771267,-1.49041 1.799843,-1.6027 1.799843,-7.07277 v -5.55832 h -5.941773 -5.941772 l 0.183307,2.21478 0.183307,2.21483 3.39602,0.17702 3.396018,0.17704 v 2.02406 c 0,2.60796 -1.931362,3.94725 -5.758965,3.99353 -3.860676,0.0466 -6.477069,-1.44871 -7.858551,-4.49152 -4.059902,-8.94223 4.12731,-17.342679 12.518958,-12.84502 l 2.132312,1.14286 1.562477,-1.6309 c 1.482581,-1.547463 1.509002,-1.677766 0.516694,-2.548156 -3.775291,-3.311402 -10.773698,-4.124042 -15.304664,-1.777126 -3.072227,1.591314 -6.30911,5.326132 -7.20363,8.311762 -2.00686,6.6983 0.69401,14.2492 6.102777,17.06171 4.02987,2.09547 6.900522,2.3529 11.385554,1.02099 z m 130.955759,-8.15861 c -3.919003,-1.29853 -5.812813,-2.5105 -8.631235,-5.5236 -3.478933,-3.71929 -4.952841,-7.55243 -4.952841,-12.880761 0,-5.415385 1.495791,-9.211681 5.153254,-13.078917 4.021759,-4.252418 7.710963,-5.803615 13.74633,-5.779941 3.999572,0.01558 5.249892,0.279838 8.144822,1.720634 3.987308,1.984479 7.676394,5.744525 9.469683,9.651824 1.825422,3.977323 1.768749,11.063068 -0.122294,15.290611 -1.648381,3.68504 -6.098723,8.03614 -9.971746,9.74935 -3.414245,1.5103 -9.606872,1.92075 -12.83597,0.8508 z m 9.76871,-10.01929 c 2.850945,-1.50761 5.291897,-5.2907 5.291897,-8.201625 0,-4.450749 -3.993092,-8.978672 -8.516283,-9.656963 -2.096826,-0.314447 -3.222794,-0.126435 -5.318158,0.887886 -7.12376,3.448552 -7.354247,13.354112 -0.395007,16.976022 3.294175,1.71444 5.688146,1.713 8.937551,-0.004 z M -30.21098,60.57024 v -49.7859 l 1.449685,-1.4496855 c 0.913817,-0.9138157 2.12448,-1.4496831 3.275212,-1.4496831 1.150731,0 2.361394,0.5358674 3.275211,1.4496831 l 1.449685,1.4496855 v 49.7859 49.78592 h -4.724896 -4.724897 z m 155.3317,-5.315503 -7.5e-4,-44.470397 1.44969,-1.4496855 c 1.87737,-1.8773756 4.47274,-1.8869505 6.63829,-0.02448 l 1.65712,1.4251885 0.16213,44.494891 0.16214,44.494902 h -5.03395 -5.03392 z M 47.159191,40.194131 V 10.78434 l 1.449684,-1.4496855 c 1.843124,-1.8431234 4.49335,-1.8928075 6.444122,-0.1208169 l 1.462944,1.3288774 0.232147,26.872844 c 0.127665,14.780067 0.127145,28.068838 -0.0012,29.530601 l -0.233354,2.657754 H 51.836359 47.159191 Z M -109.34477,54.706642 c -3.55023,-1.809221 -3.57458,-1.978465 -3.40781,-23.691903 l 0.15124,-19.689602 1.65712,-1.4247779 1.65711,-1.4247761 h 19.798002 19.797997 l 1.748835,1.748835 1.748835,1.748834 -0.170087,20.091082 -0.170087,20.09108 -1.636768,1.63691 -1.636768,1.636914 -18.739345,0.163327 c -16.985354,0.14804 -18.932064,0.0651 -20.798274,-0.885919 z m 31.884832,-9.445227 c 0,-0.121665 -1.281876,-2.136102 -2.848612,-4.476498 -1.566737,-2.340395 -3.028104,-4.561464 -3.247487,-4.935708 -0.23493,-0.400768 0.420449,-1.16386 1.594511,-1.856574 1.357754,-0.801093 2.321603,-2.035546 3.02269,-3.87132 1.337446,-3.502048 0.809729,-6.339028 -1.685639,-9.061948 -1.768467,-1.929733 -2.264321,-2.123182 -6.60869,-2.578283 -2.583222,-0.270611 -6.49075,-0.50635 -8.683397,-0.523864 l -3.986631,-0.03185 v 13.58408 13.584075 h 2.657754 2.657751 V 40.73282 c 0,-4.022954 0.102925,-4.388291 1.328878,-4.716832 2.872202,-0.76972 3.40508,-0.399354 6.639801,4.614874 l 3.217242,4.987128 2.970914,-0.06766 c 1.634002,-0.03722 2.970915,-0.167236 2.970915,-0.288904 z m -17.12775,-17.886248 v -4.134283 l 4.28194,0.009 c 4.679368,0.0098 5.22835,0.206436 6.310119,2.259334 0.56516,1.072518 0.572479,1.759096 0.03264,3.06238 -0.842981,2.035136 -3.136515,2.937809 -7.464465,2.937809 h -3.160235 z"
       id="path1" /></g></svg>
