<?xml version="1.0" encoding="UTF-8" standalone="no"?>
<!-- Created with Inkscape (http://www.inkscape.org/) -->

<svg
   width="100"
   height="100"
   viewBox="0 0 134.857 134.857"
   version="1.1"
   id="svg1"
   xml:space="preserve"
   inkscape:version="1.3.2 (091e20e, 2023-11-25, custom)"
   sodipodi:docname="youtube.svg"
   xmlns:inkscape="http://www.inkscape.org/namespaces/inkscape"
   xmlns:sodipodi="http://sodipodi.sourceforge.net/DTD/sodipodi-0.dtd"
   xmlns="http://www.w3.org/2000/svg"
   xmlns:svg="http://www.w3.org/2000/svg"><sodipodi:namedview
     id="namedview1"
     pagecolor="#ffffff"
     bordercolor="#000000"
     borderopacity="0.25"
     inkscape:showpageshadow="2"
     inkscape:pageopacity="0.0"
     inkscape:pagecheckerboard="0"
     inkscape:deskcolor="#d1d1d1"
     inkscape:document-units="px"
     inkscape:zoom="4.179882"
     inkscape:cx="88.878107"
     inkscape:cy="79.188838"
     inkscape:window-width="2558"
     inkscape:window-height="1360"
     inkscape:window-x="1273"
     inkscape:window-y="0"
     inkscape:window-maximized="0"
     inkscape:current-layer="layer1" /><defs
     id="defs1" /><g
     inkscape:label="Layer 1"
     inkscape:groupmode="layer"
     id="layer1"
     transform="translate(95.128159,-28.938339)"><path
       style="fill:#000000"
       d="m -64.833368,134.90462 c -7.72803,-1.45397 -13.905143,-7.16946 -16.075074,-14.87376 -0.570099,-2.02412 -0.581784,-2.41036 -0.666666,-22.036274 -0.09306,-21.51611 -0.02903,-22.893485 1.229469,-26.449862 0.997878,-2.819887 2.201679,-4.767851 4.372527,-7.075529 2.630206,-2.79599 5.013069,-4.307622 9.023077,-5.72403 1.58402,-0.559504 1.6687,-0.560908 38.629165,-0.640239 41.894703,-0.08992 38.940461,-0.228972 43.676743,2.055755 6.052843,2.91982 10.330505,8.884764 11.225904,15.653853 0.197502,1.493094 0.262914,8.647401 0.202793,22.180052 -0.08709,19.602814 -0.09956,20.014534 -0.667402,22.036274 -2.225582,7.92396 -8.701602,13.72648 -16.7349154,14.99451 -2.7691432,0.4371 -71.8479606,0.32471 -74.2156206,-0.12075 z m 37.929749,-30.16023 c 7.442438,-4.36401 13.531706,-7.996738 13.531706,-8.072721 0,-0.110136 -25.313968,-15.055609 -27.686914,-16.34647 l -0.623501,-0.339179 v 16.685649 16.685651 l 0.623501,-0.33918 c 0.342926,-0.18655 6.71277,-3.90974 14.155208,-8.27375 z"
       id="path1" /></g></svg>
